<svg width="63" height="64" viewBox="0 0 63 64" fill="none" xmlns="http://www.w3.org/2000/svg">
<circle cx="31.5" cy="31.8828" r="31" fill="white" stroke="black"/>
<path d="M27.2 40.3708L27.212 38.7628L35.024 31.7068C35.696 31.0988 36.14 30.5228 36.356 29.9788C36.58 29.4268 36.692 28.8508 36.692 28.2508C36.692 27.5388 36.524 26.8948 36.188 26.3188C35.852 25.7428 35.4 25.2868 34.832 24.9508C34.264 24.6068 33.628 24.4348 32.924 24.4348C32.188 24.4348 31.532 24.6108 30.956 24.9628C30.38 25.3148 29.924 25.7788 29.588 26.3548C29.26 26.9308 29.1 27.5588 29.108 28.2388H27.308C27.308 27.1908 27.556 26.2508 28.052 25.4188C28.548 24.5868 29.22 23.9348 30.068 23.4628C30.916 22.9828 31.876 22.7428 32.948 22.7428C33.996 22.7428 34.936 22.9908 35.768 23.4868C36.608 23.9748 37.268 24.6388 37.748 25.4788C38.236 26.3108 38.48 27.2388 38.48 28.2628C38.48 28.9828 38.392 29.6188 38.216 30.1708C38.048 30.7148 37.78 31.2228 37.412 31.6948C37.052 32.1588 36.592 32.6388 36.032 33.1348L29.096 39.3988L28.82 38.6788H38.48V40.3708H27.2Z" fill="black"/>
</svg>
