<svg width="63" height="64" viewBox="0 0 63 64" fill="none" xmlns="http://www.w3.org/2000/svg">
<circle cx="31.5" cy="31.8828" r="31" fill="white" stroke="black"/>
<path d="M32.324 40.7308C31.468 40.7308 30.68 40.5788 29.96 40.2748C29.24 39.9708 28.62 39.5388 28.1 38.9788C27.58 38.4108 27.2 37.7348 26.96 36.9508L28.64 36.4468C28.928 37.3028 29.4 37.9508 30.056 38.3908C30.72 38.8308 31.468 39.0428 32.3 39.0268C33.068 39.0108 33.728 38.8388 34.28 38.5108C34.84 38.1828 35.268 37.7268 35.564 37.1428C35.86 36.5588 36.008 35.8828 36.008 35.1148C36.008 33.9388 35.664 32.9948 34.976 32.2828C34.296 31.5628 33.396 31.2028 32.276 31.2028C31.964 31.2028 31.636 31.2468 31.292 31.3348C30.948 31.4148 30.628 31.5308 30.332 31.6828L29.444 30.2788L36.164 24.0748L36.452 24.7948H27.644V23.1028H37.628V24.8188L31.772 30.4108L31.748 29.7148C32.948 29.5628 34.004 29.6988 34.916 30.1228C35.828 30.5468 36.54 31.1948 37.052 32.0668C37.572 32.9308 37.832 33.9468 37.832 35.1148C37.832 36.2188 37.592 37.1948 37.112 38.0428C36.64 38.8828 35.988 39.5428 35.156 40.0228C34.324 40.4948 33.38 40.7308 32.324 40.7308Z" fill="black"/>
</svg>
