<svg width="746" height="576" viewBox="0 0 746 576" fill="none" xmlns="http://www.w3.org/2000/svg">
<g clip-path="url(#clip0_2_64448)">
<path d="M296.647 30.6999C296.647 30.6999 463.09 7.59311 485.167 119.363C496.843 178.505 582.697 135.76 631.724 156.282C666.622 170.879 648.568 220.398 669.533 233.293C772.819 296.919 745.935 575.116 725.886 575.084L37.1872 573.938C37.1872 573.938 -18.5118 490.511 31.9215 441.811C82.3547 393.11 47.7187 370.821 41.6026 352.002C34.5707 330.401 9.38679 268.673 81.1446 241.672C118.005 227.795 129.452 189.403 132.232 163.777C137.007 119.985 161.504 81.0045 198.659 59.7306C222.142 46.2789 253.9 35.1838 296.647 30.6999Z" fill="url(#paint0_linear_2_64448)"/>
<path d="M402.682 82.2157L412.363 93.2781C413.082 93.5399 413.671 93.1145 415.11 92.0344C417.727 90.1034 420.31 88.2051 422.992 86.3723C423.418 86.0777 424.268 86.0777 424.758 86.3068C427.604 87.6814 430.384 89.2524 433.229 90.5943C434.113 91.0198 434.505 91.3798 434.505 92.3944C434.505 96.5183 434.636 100.675 434.701 104.766C438.266 105.977 447.555 106.697 450.727 105.977C451.349 102.082 452.068 98.122 452.624 94.1291C452.788 92.8854 453.18 92.4599 454.456 92.1326C457.399 91.3798 460.31 90.3652 463.188 89.2851C464.333 88.8597 465.118 88.7288 466.099 89.7106C468.65 92.2635 471.332 94.6855 473.916 97.2056C474.603 97.8929 475.192 98.0566 475.944 97.402C479.444 94.3909 482.91 91.3798 486.41 88.3687C487.26 87.616 486.606 87.0268 486.214 86.4377C484.219 83.5575 482.224 80.6774 480.098 77.8954C479.313 76.8481 479.313 76.0953 479.967 74.9498C481.733 71.906 483.336 68.7313 485.102 65.3602C489.19 65.262 493.671 65.1638 498.315 65.0656C499.591 59.8289 499.885 54.5923 499.362 49.0938C494.946 48.341 490.498 47.621 486.606 46.9664C485.2 43.0062 483.957 39.275 482.518 35.6748C482.093 34.6275 482.256 34.1038 482.976 33.3838C485.462 30.8309 487.882 28.2126 490.335 25.6597C490.858 25.1033 491.185 24.6451 490.695 23.8923C488.209 20.0303 485.429 16.4628 481.897 13.4845C481.112 12.8299 480.556 12.9281 479.836 13.4518C476.86 15.5791 473.851 17.6411 470.874 19.8012C470.155 20.3249 469.664 20.4231 468.781 19.9648C465.707 18.3284 462.534 16.8556 459.362 15.4482C458.544 15.0882 458.413 14.6627 458.381 13.9427C458.283 9.81882 458.152 5.66222 458.054 1.44016C452.853 0.294642 447.686 -0.261754 442.289 0.261913C441.537 4.77853 440.785 9.29515 440.065 13.5827C435.879 14.9573 431.823 16.2992 427.506 17.7393C425.216 15.5791 422.567 13.0263 419.885 10.5716C417.694 8.54238 418.25 8.37874 415.633 10.2443C415.372 10.4079 415.077 10.5061 414.783 10.637C412.723 12.4699 410.629 14.27 408.569 16.1028C408.176 16.5938 407.849 17.1501 407.391 17.5429C406.181 18.5575 406.018 19.4739 407.064 20.8485C409.256 23.696 411.283 26.707 413.311 29.6854C413.573 30.0781 413.638 30.8636 413.409 31.2891C412.101 34.1038 410.531 36.8531 409.386 39.7332C408.83 41.1406 408.144 41.4679 406.77 41.4679C402.845 41.5006 398.92 41.6643 394.636 41.7952C394.243 47.13 393.851 52.334 393.426 57.6033C394.407 57.7997 394.963 57.8979 395.552 57.9961C399.051 58.5852 402.551 59.2071 406.083 59.698C407.097 59.8617 407.424 60.2871 407.718 61.2363C408.765 64.4437 410.008 67.5857 411.055 70.8259C411.218 71.3169 411.022 72.1678 410.662 72.5606C408.7 74.7207 406.639 76.7826 404.644 78.9427C403.009 80.5465 402.42 81.201 402.682 82.2157ZM428.814 68.6003C420.18 58.7161 421.161 43.6935 431.038 35.0202C440.915 26.3798 455.928 27.3616 464.595 37.2458C473.229 47.13 472.248 62.1527 462.371 70.8259C452.461 79.4991 437.449 78.4845 428.814 68.6003Z" fill="#FF847C"/>
<path d="M440.816 123.16L422.402 141.913C422.01 143.223 422.86 144.205 424.986 146.659C428.747 151.045 432.509 155.463 436.139 159.98C436.695 160.7 436.826 162.238 436.499 163.122C434.406 168.391 432.018 173.53 429.99 178.832C429.369 180.468 428.78 181.221 426.948 181.352C419.59 181.908 412.231 182.694 404.97 183.381C403.269 189.894 403.236 206.554 404.937 212.117C411.936 212.707 419.099 213.459 426.294 213.885C428.518 214.016 429.369 214.67 430.121 216.896C431.854 222.067 434.078 227.107 436.368 232.082C437.316 234.079 437.643 235.453 436.008 237.352C431.789 242.228 427.864 247.334 423.711 252.276C422.599 253.618 422.402 254.698 423.612 255.942C429.434 261.768 435.289 267.561 441.11 273.386C442.549 274.826 443.531 273.55 444.512 272.765C449.352 268.804 454.226 264.844 458.935 260.72C460.701 259.182 462.042 259.051 464.168 260.098C469.827 262.848 475.681 265.237 481.895 267.986C482.615 275.252 483.4 283.271 484.217 291.486C493.702 293.057 503.089 292.893 512.77 291.191C513.49 283.172 514.209 275.187 514.831 268.117C521.699 265.04 528.142 262.357 534.422 259.313C536.22 258.429 537.169 258.626 538.575 259.804C543.449 263.895 548.42 267.855 553.293 271.914C554.34 272.797 555.19 273.288 556.498 272.306C563.04 267.364 569.058 261.931 573.866 255.222C574.945 253.716 574.683 252.767 573.669 251.523C569.483 246.483 565.395 241.377 561.175 236.37C560.162 235.159 559.9 234.308 560.619 232.671C563.105 226.944 565.329 221.118 567.422 215.259C567.946 213.754 568.698 213.459 570.006 213.328C577.365 212.608 584.724 211.823 592.247 211.037C593.588 201.579 593.882 192.284 592.247 182.759C584.103 182.039 575.991 181.287 568.24 180.599C565.231 173.333 562.287 166.297 559.148 158.736C562.713 154.351 566.866 149.31 570.922 144.205C574.258 140.015 574.585 140.964 570.955 136.546C570.595 136.12 570.399 135.564 570.137 135.073C566.605 131.604 563.105 128.167 559.573 124.698C558.657 124.076 557.61 123.585 556.826 122.8C554.83 120.77 553.195 120.607 550.906 122.669C546.098 126.956 541.028 130.982 535.992 134.975C535.337 135.499 533.964 135.695 533.146 135.4C527.913 133.437 522.876 131.047 517.578 129.345C514.994 128.527 514.34 127.349 514.144 124.894C513.588 117.923 512.737 110.952 511.92 103.293C502.337 103.293 493.015 103.293 483.563 103.26C483.367 105.028 483.236 106.075 483.138 107.09C482.582 113.406 481.928 119.756 481.503 126.073C481.372 127.873 480.62 128.527 478.984 129.182C473.392 131.473 467.962 134.091 462.369 136.415C461.519 136.775 459.949 136.546 459.197 135.957C455.076 132.782 451.118 129.378 447.063 126.105C443.825 123.552 442.615 122.571 440.816 123.16ZM468.551 167.933C485.002 151.176 511.887 150.947 528.633 167.409C545.378 183.872 545.607 210.776 529.156 227.533C512.705 244.29 485.82 244.519 469.074 228.057C452.361 211.627 452.1 184.69 468.551 167.933Z" fill="#BDD0FB"/>
<path d="M478.92 64.4764C478.887 64.4764 478.887 64.4764 478.854 64.4436C478.266 64.2145 477.644 64.0509 477.055 63.8545C476.859 63.789 476.63 63.7236 476.434 63.6909C476.205 63.6254 475.976 63.5927 475.78 63.5272C475.551 63.4618 475.322 63.429 475.093 63.3636C474.864 63.3308 474.668 63.2654 474.439 63.2326C474.21 63.1999 473.948 63.1345 473.719 63.1017C473.523 63.069 473.294 63.0363 473.098 63.0035C472.836 62.9708 472.575 62.9381 472.28 62.9054C472.084 62.8726 471.888 62.8726 471.691 62.8399C471.397 62.8072 471.07 62.7744 470.776 62.7744C470.612 62.7744 470.449 62.7417 470.285 62.7417C469.795 62.709 469.337 62.709 468.846 62.709H248.732C248.209 62.709 247.718 62.709 247.195 62.7417C246.181 62.8072 245.2 62.9054 244.186 63.0363C243.695 63.1017 243.205 63.1999 242.714 63.2981C230.155 65.8837 220.474 76.4225 219.165 89.4487C219.067 90.4633 219.002 91.4779 219.002 92.4925V460.302V544.22C219.002 557.115 227.179 568.112 238.593 572.236C238.659 572.269 238.691 572.269 238.757 572.302C239.313 572.498 239.901 572.694 240.49 572.858C240.686 572.923 240.915 572.989 241.111 573.022C241.34 573.087 241.569 573.12 241.766 573.185C241.995 573.251 242.223 573.283 242.452 573.349C242.681 573.382 242.878 573.447 243.107 573.48C243.336 573.513 243.597 573.578 243.826 573.611C244.022 573.643 244.251 573.676 244.448 573.709C244.709 573.742 244.971 573.774 245.232 573.807C245.429 573.84 245.625 573.84 245.821 573.873C246.116 573.905 246.443 573.938 246.737 573.938C246.901 573.938 247.064 573.971 247.228 573.971C247.718 574.003 248.176 574.003 248.667 574.003H468.781C469.795 574.003 470.808 573.938 471.822 573.84C485.788 572.4 496.908 561.272 498.315 547.231C498.413 546.216 498.478 545.202 498.478 544.187V176.41V92.4925C498.511 79.5972 490.334 68.633 478.92 64.4764Z" fill="#355389"/>
<path d="M484.087 103.326H233.393V533.387H484.087V103.326Z" fill="#EAFCFC"/>
<path opacity="0.2" d="M422.854 313.945C458.004 278.771 458.004 221.742 422.854 186.567C387.704 151.393 330.715 151.393 295.565 186.567C260.415 221.742 260.415 278.771 295.565 313.945C330.715 349.12 387.704 349.12 422.854 313.945Z" fill="#4042E2"/>
<path opacity="0.3" d="M409.91 89.8086H307.996C306.525 89.8086 305.314 88.5976 305.314 87.1248C305.314 85.652 306.525 84.441 307.996 84.441H409.877C411.349 84.441 412.559 85.652 412.559 87.1248C412.591 88.5976 411.381 89.8086 409.91 89.8086Z" fill="#DAEEF7"/>
<path opacity="0.2" d="M415.269 306.354C446.23 275.372 446.23 225.14 415.269 194.158C384.308 163.176 334.111 163.176 303.151 194.158C272.19 225.14 272.19 275.372 303.151 306.354C334.111 337.336 384.308 337.336 415.269 306.354Z" fill="#4042E2"/>
<path opacity="0.2" d="M405.277 296.357C430.72 270.896 430.72 229.616 405.277 204.156C379.834 178.695 338.583 178.695 313.141 204.156C287.698 229.616 287.698 270.896 313.141 296.357C338.583 321.817 379.834 321.817 405.277 296.357Z" fill="#4042E2"/>
<path opacity="0.3" d="M370.923 554.104C370.923 560.944 365.396 566.476 358.626 566.476C351.855 566.476 346.328 560.944 346.328 554.104C346.328 547.264 351.855 541.732 358.626 541.732C365.396 541.732 370.923 547.296 370.923 554.104Z" fill="#DAEEF7"/>
<path opacity="0.2" d="M484.087 515.353H233.393V533.387H484.087V515.353Z" fill="#4042E2"/>
<path opacity="0.2" d="M484.087 103.326H233.393V126.138H484.087V103.326Z" fill="#4042E2"/>
<path d="M182.109 346.602L182.993 347.387C183.45 347.78 184.137 347.78 184.497 347.354L200.098 330.139C200.49 329.713 200.425 329.026 199.967 328.633L199.084 327.848C198.626 327.455 197.939 327.455 197.58 327.88L181.979 345.096C181.619 345.521 181.652 346.209 182.109 346.602Z" fill="#13375B"/>
<path d="M129.224 332.626C131.317 330.924 147.441 338.026 147.245 340.514C147.049 343.001 158.496 366.959 158.496 366.959L178.283 351.118C178.447 350.529 180.344 344.376 180.442 343.263C180.54 342.118 183.876 340.088 185.446 340.383C187.016 340.678 184.105 342.641 183.941 343.001C183.418 343.983 185.413 344.343 185.413 344.343C185.413 344.343 191.137 341.201 191.268 339.336C191.399 337.47 192.576 333.608 193.819 334.394C194.44 334.819 194.44 337.568 194.244 338.877C194.604 337.405 195.127 335.703 195.65 335.539C196.566 335.244 197.024 336.423 196.861 337.012C196.697 337.601 195.192 343.885 194.735 344.605C194.277 345.292 185.054 352.787 183.713 354.391C183.713 354.391 158.103 383.782 156.272 384.567C154.669 385.255 148.978 375.109 143.582 368.399C138.185 361.657 122.715 337.928 129.224 332.626Z" fill="#F7A491"/>
<path d="M77.5463 548.769C77.5463 548.769 74.014 552.206 73.9486 553.482C73.8832 554.759 73.6216 568.309 75.0606 569.552C76.4997 570.829 80.7189 571.712 79.3452 573.153C78.3313 574.233 70.4163 574.004 65.216 573.709C63.6788 573.611 61.7819 561.403 61.1604 559.603C60.2774 556.984 58.1514 551.126 58.9364 549.293C59.3289 548.409 61.1931 546.577 63.8097 544.875C66.557 543.075 69.2062 539.114 69.2062 539.114L77.5463 548.769Z" fill="#4749EF"/>
<path d="M114.015 556.788C114.015 556.788 110.875 565.723 110.875 565.756C110.646 567.163 109.73 570.665 109.73 571.942C109.73 576.786 131.448 567.851 126.574 565.691C126.149 565.494 124.743 563.956 124.612 562.319C124.383 559.799 126.443 556.592 126.443 556.592L114.015 556.788Z" fill="#F7A491"/>
<path d="M148.061 390.458C148.061 390.458 149.631 406.463 149.631 406.725C149.631 432.614 154.733 483.246 153.785 488.09C151.397 499.97 125.886 560.552 125.886 560.552L112.084 558.883L130.073 486.322L123.466 457.128L114.112 399.394L148.061 390.458Z" fill="#355389"/>
<path d="M101.749 404.63L99.1328 419.816L92.0355 482.296L65.0527 543.304C65.0527 543.304 68.8467 552.173 74.4395 553.45L117.383 490.773L144.071 410.554L143.123 392.75L101.749 404.63Z" fill="#13375B"/>
<path d="M153.557 352.329L134.424 354.293C134.424 354.293 133.541 338.55 133.541 331.023C133.541 321.891 134.326 310.174 135.405 310.403C138.48 311.123 142.633 312.825 145.086 316.229C153.655 328.011 153.557 352.329 153.557 352.329Z" fill="#B2C5F0"/>
<path d="M144.171 329.419C144.563 332.201 151.922 407.772 151.922 407.772C117.09 424.661 97.8583 410.783 97.8583 410.783C97.8583 410.783 99.003 357.729 97.6294 350.496C96.7136 345.718 95.6016 313.971 98.676 313.087C102.633 311.941 107.18 310.73 112.118 310.207C116.337 309.781 132.756 309.519 135.667 310.501C135.667 310.469 142.47 317.734 144.171 329.419Z" fill="#BDD0FB"/>
<path d="M64.0064 544.809C64.0064 544.809 72.1176 567.752 75.2901 568.832C76.1405 569.127 80.1634 569.88 80.9484 571.68C81.1773 572.236 80.9484 574.036 80.9484 574.036H64.0392C64.0392 574.036 61.9132 563.923 61.0629 559.504C61.0629 559.504 56.5821 548.671 57.0727 547.689C57.596 546.642 64.0064 544.809 64.0064 544.809Z" fill="#13375B"/>
<path d="M108.455 573.545L110.941 565.658C110.941 565.658 116.174 567.883 118.758 567.491C121.374 567.131 126.476 565.658 126.476 565.658C136.91 569.094 145.446 570.763 143.876 573.545H108.455Z" fill="#13375B"/>
<path d="M156.239 384.567C156.305 384.534 156.599 384.305 156.763 384.174C156.141 376.778 156.239 369.61 158.561 367.155C158.496 367.024 158.005 365.944 157.482 364.832C154.8 366.926 153.525 372.457 154.015 381.425C154.048 382.047 154.212 382.505 154.375 383.291C155.16 384.174 155.88 384.731 156.239 384.567Z" fill="#F7A491"/>
<path d="M63.3515 408.558C63.3188 408.394 63.3188 408.231 63.3515 408.067C63.8748 402.83 68.192 358.875 68.9115 357.009C69.5657 355.308 88.9933 327.455 88.9933 327.455L98.5435 340.514L79.8682 365.519C79.443 367.123 72.7055 396.775 72.7055 396.775C72.7055 396.775 71.3318 402.176 70.7104 405.416C71.0048 406.201 71.2664 406.921 71.5281 407.543C72.1495 408.82 72.869 409.9 73.5232 410.783C74.3735 411.896 75.7472 414.351 75.9107 415.006C76.107 415.758 76.4667 417.362 76.663 418.311C76.8592 419.26 77.1536 420.373 77.1863 420.897C77.219 421.224 77.546 421.846 77.775 422.304C78.1348 422.959 77.5133 423.744 76.7938 423.515C76.107 423.286 75.5837 422.402 75.2566 421.846C74.3408 420.308 73.8502 417.46 73.6213 417.624C73.3923 417.787 72.5747 422.566 72.4766 423.122C72.3457 423.679 71.3972 429.243 70.8412 430.257C70.2852 431.272 69.5657 431.108 69.3694 430.454C69.2059 429.897 69.9582 422.108 69.9582 422.108C69.9582 422.108 70.0563 421.126 69.6311 421.42C69.2059 421.748 68.4864 428.817 68.192 429.865C67.8977 430.912 67.2108 431.436 66.6221 430.617C65.9026 429.603 67.1454 422.075 67.1454 422.075C67.1454 422.075 67.2762 421.126 66.8838 421.224C66.4913 421.322 65.968 427.344 65.6736 427.868C65.3466 428.392 64.5616 428.588 64.2018 427.704C63.7439 426.69 64.9214 419.98 64.9214 419.98C64.9214 419.98 64.856 419.457 64.627 419.62C64.3981 419.784 63.5804 424.922 63.0571 425.381C62.6319 425.773 62.2722 425.381 62.2722 425.381C61.3237 424.726 62.7955 419.849 62.7627 417.46C62.7627 415.038 63.8748 412.322 63.5477 409.442C63.4169 409.278 63.3842 408.852 63.3515 408.558Z" fill="#F8A492"/>
<path d="M73.7852 345.129L90.3673 356.289C90.3673 356.289 99.7213 342.314 104.725 337.372C111.005 331.153 102.436 312.072 98.3804 313.152C89.3534 315.542 73.7852 345.129 73.7852 345.129Z" fill="#BDD0FB"/>
<path d="M113.327 293.842L110.842 310.24C110.842 310.24 119.901 329.779 125.298 328.077C129.844 326.67 127.031 309.356 127.031 309.356C127.031 309.356 124.546 300.061 125.298 295.413C126.083 290.831 113.327 293.842 113.327 293.842Z" fill="#F7A491"/>
<path d="M125.33 295.479C126.083 290.831 113.327 293.875 113.327 293.875L113.131 295.249C113.491 296.166 113.949 296.951 114.505 297.54C117.35 300.617 121.798 302.45 125.657 302.613C125.265 300.061 125.036 297.377 125.33 295.479Z" fill="#F39793"/>
<path d="M111.234 270.637C110.874 270.506 108.356 289.325 113.131 294.497C117.939 299.668 127.26 301.37 130.629 297.279C134.325 292.762 134.161 272.535 126.704 267.201C119.247 261.898 111.234 270.637 111.234 270.637Z" fill="#F7A491"/>
<path d="M123.859 257.153C118.103 258.331 114.374 261.866 113 263.371C110.384 263.666 106.819 265.139 103.156 271.226C98.6423 278.721 101.978 287.034 107.244 291.126C112.51 295.217 112.412 299.93 112.412 299.93L113.229 297.508C113.851 295.675 114.08 293.711 113.883 291.78C113.753 290.602 113.524 289.358 113.033 288.344C111.758 285.627 115.748 283.794 116.86 281.536C117.71 279.801 117.776 275.808 119.116 272.928L120.719 270.735C120.719 270.735 124.448 267.822 128.111 268.641C131.774 269.393 131.251 255.647 123.859 257.153Z" fill="#184655"/>
<path d="M116.631 284.842C116.664 287.133 115.617 289.031 114.309 289.031C113.001 289.064 111.889 287.198 111.856 284.907C111.824 282.616 112.87 280.718 114.178 280.718C115.487 280.718 116.599 282.551 116.631 284.842Z" fill="#F7A491"/>
<path d="M124.416 290.144L131.644 289.784C131.644 289.784 131.611 292.533 128.439 292.795C124.58 293.122 124.416 290.144 124.416 290.144Z" fill="white"/>
<path d="M592.443 353.573C592.443 353.573 606.344 384.142 609.32 389.804C612.263 395.499 617.758 413.009 618.02 413.86C618.281 414.711 610.988 424.497 612.362 424.988C613.735 425.479 615.665 420.046 617.104 420.897C618.543 421.748 621.977 435.723 622.86 435.134C624.528 434.054 621.094 426.493 621.977 426.133C622.86 425.773 624.855 434.348 626.523 434.283C628.191 434.217 623.874 426.33 624.397 425.741C624.921 425.151 629.434 432.646 630.448 431.272C631.004 430.519 626.262 424.726 627.276 424.333C628.29 423.94 632.607 427.835 633.13 426.919C633.653 426.002 629.107 424.137 627.864 421.355C626.654 418.573 624.332 417.166 623.678 412.191C623.024 407.216 622.762 389.411 618.314 380.051C613.866 370.69 604.054 349.973 604.054 349.973L592.443 353.573Z" fill="#F7A491"/>
<path d="M596.89 319.535C597.217 312.007 596.105 304.545 592.737 297.508C589.858 291.453 582.696 288.049 576.187 288.016C555.484 287.984 552.867 315.476 539.687 326.08C535.664 329.321 531.15 331.972 527.356 335.441C513.293 348.336 519.638 372.228 532.557 383.52C541.518 391.375 555.615 395.826 566.67 389.706C572.426 386.498 576.808 381.164 579.948 375.338C584.364 367.057 587.242 357.5 590.382 348.696C593.652 339.336 596.465 329.55 596.89 319.535Z" fill="#13375B"/>
<path d="M522.909 290.176C523.857 289.489 526.278 294.431 527.455 294.366C528.632 294.333 526.637 287.46 527.52 286.936C529.123 285.954 530.137 294.3 530.889 293.908C531.674 293.515 531.053 284.842 532.721 285.3C534.389 285.758 532.426 294.366 533.44 294.3C534.454 294.235 534.552 286.151 536.678 285.66C537.823 285.398 534.749 299.471 535.795 300.682C536.809 301.893 541.192 297.41 542.304 298.293C543.416 299.177 533.767 305.755 533.604 306.639C533.44 307.523 531.445 326.408 531.707 332.659C533.865 332.79 546.032 335.179 548.06 335.277C546.719 339.237 550.022 343.328 548.91 347.321C542.075 346.732 521.764 345.161 520.489 343.689C516.596 339.237 523.726 311.647 525.362 306.803C526.997 301.959 525.394 299.962 525.493 296.984C525.591 294.006 521.96 290.864 522.909 290.176Z" fill="#F7A491"/>
<path d="M554.57 572.4C556.303 571.123 557.677 570.305 563.172 567.621C563.532 567.458 564.84 566.607 565.298 566.312C566.475 565.592 567.685 564.446 568.732 563.268C569.713 562.155 570.171 558.653 570.4 555.839C569.844 549.555 560.751 448.88 558.822 437.981C556.827 426.722 559.868 409.572 559.868 409.572L566.9 406.921L580.212 453.135L579.165 488.318C579.165 488.318 582.305 498.465 582.697 504.519C583.09 510.574 578.184 559.766 578.184 559.766C578.184 561.534 578.249 563.105 578.446 564.119C578.805 565.952 580.833 569.749 579.885 571.483C578.969 573.218 577.89 573.643 577.89 573.643L553.949 574.036C552.64 574.003 553.523 573.152 554.57 572.4Z" fill="#F79C8D"/>
<path d="M590.905 405.972C590.905 405.972 599.213 418.507 601.208 428.915C603.203 439.323 599.769 471.234 603.563 484.816C605.623 492.18 613.44 503.57 614.618 513.094C615.795 522.619 619.949 550.078 619.949 550.078C620.57 552.958 621.551 556.526 622.827 558.195C623.612 559.21 625.018 560.486 625.967 562.319C627.406 565.166 626.621 569.421 625.541 571.778C624.985 572.989 625.574 572.989 624.331 573.349C620.636 574.494 616.678 572.563 615.108 568.996C614.225 566.999 613.44 564.348 613.309 561.01C613.146 557.475 612.59 554.66 612.001 552.566L585.443 487.337L566.212 431.042L561.273 402.044L590.905 405.972Z" fill="#F79C8D"/>
<path d="M614.355 567.13C620.112 568.178 623.938 564.807 625.934 562.286C627.405 565.134 628.092 569.421 627.046 571.778C626.097 573.84 623.317 573.774 621.158 573.872C618.869 573.971 617.07 572.662 615.925 570.665C615.369 569.716 614.813 568.538 614.355 567.13Z" fill="#13375B"/>
<path d="M565.297 566.312C571.642 567.948 576.319 566.836 578.935 565.788C579.622 567.719 580.505 570.109 580.015 571.516C579.426 573.218 578.608 573.611 577.889 573.611C572.1 573.774 556.695 573.971 552.312 574.036C551.691 574.036 551.364 573.316 551.756 572.858C552.836 571.516 564.839 566.607 565.297 566.312Z" fill="#13375B"/>
<path d="M585.51 486.126C585.019 486.158 584.528 486.191 584.005 486.224C583.972 486.224 583.94 486.224 583.94 486.224C583.449 486.257 582.958 486.289 582.468 486.322C582.435 486.322 582.402 486.322 582.37 486.322C581.879 486.355 581.389 486.387 580.865 486.387C580.833 486.387 580.8 486.387 580.8 486.387C580.277 486.42 579.786 486.42 579.263 486.453C573.604 486.649 566.573 486.551 562.092 485.798C559.802 462.823 558.952 441.876 558.102 437.228C556.041 425.97 559.9 408.23 559.9 408.23L559.606 404.008L560.587 401.324L591.462 405.219C591.462 405.219 600.097 417.754 602.157 428.162C604.218 438.537 600.653 470.481 604.61 484.064C604.577 484.031 595.747 485.406 585.51 486.126Z" fill="#13375B"/>
<path d="M543.449 333.543C543.449 333.543 566.573 331.121 573.376 333.412C580.211 335.703 584.986 345.456 581.356 350.922C577.726 356.387 544.921 349.22 544.921 349.22L543.449 333.543Z" fill="#F97E76"/>
<path d="M584.234 331.415C584.234 331.415 595.681 330.695 600.195 335.506C604.708 340.285 590.154 378.218 589.336 384.338C588.519 390.459 593.523 406.659 593.523 406.659C593.523 406.659 566.671 411.929 558.985 406.987C558.985 406.987 557.578 362.672 558.396 358.319C559.214 353.966 566.671 336.652 568.306 334.917C569.941 333.15 584.234 331.415 584.234 331.415Z" fill="#FF847C"/>
<path d="M580.439 316.556C580.439 316.556 580.504 316.883 580.602 317.44C581.126 320.123 583.088 328.993 584.396 331.415C585.999 334.361 578.902 343.754 572.099 342.608C570.071 342.281 573.799 333.968 573.636 333.084C573.276 331.415 572.818 329.124 572.36 326.768C572.099 325.426 571.804 324.084 571.575 322.84C570.856 319.24 570.234 316.294 570.234 316.294L580.439 316.556Z" fill="#F7A491"/>
<path opacity="0.5" d="M580.604 317.44C580.506 316.883 580.44 316.556 580.44 316.556L570.203 316.294C570.203 316.294 570.792 319.24 571.544 322.84C571.806 324.084 572.067 325.426 572.329 326.768C573.899 326.538 575.567 325.786 577.202 324.378C579.001 322.84 580.179 321.007 580.898 319.043C580.767 318.389 580.669 317.832 580.604 317.44Z" fill="#EF8A96"/>
<path d="M573.538 293.94C573.538 293.94 578.346 293.384 581.388 297.213C584.397 301.01 587.668 312.76 580.145 319.142C572.655 325.524 565.231 318.291 564.119 310.632C563.04 302.974 562.614 293.678 573.538 293.94Z" fill="#F7A491"/>
<path d="M561.927 310.501C562.81 312.203 564.314 313.12 565.296 312.596C566.244 312.072 566.309 310.239 565.394 308.57C564.511 306.868 563.006 305.952 562.025 306.476C561.076 306.999 561.011 308.832 561.927 310.501Z" fill="#F7A491"/>
<path d="M573.016 292.696C573.016 292.696 579.459 303.857 584.07 304.381C588.682 304.904 589.271 310.828 589.271 310.828C589.271 310.828 587.635 297.148 583.056 294.497C578.478 291.878 573.016 292.696 573.016 292.696Z" fill="#13375B"/>
<path d="M582.826 307.195C582.467 309.192 583.219 310.992 584.494 311.254C585.803 311.516 587.144 310.108 587.536 308.145C587.896 306.148 587.144 304.348 585.868 304.086C584.592 303.824 583.219 305.199 582.826 307.195Z" fill="#F7A491"/>
<path d="M576.515 312.334L569.941 313.283C569.941 313.283 570.465 315.771 573.343 315.443C576.875 315.051 576.515 312.334 576.515 312.334Z" fill="white"/>
<path d="M599.704 375.174C599.704 375.174 586.785 355.831 585.64 348.729C584.495 341.627 590.873 332.822 597.382 333.51C603.89 334.197 615.043 366.534 615.043 366.534L599.704 375.174Z" fill="#FF847C"/>
<path d="M344.791 242.556C347.309 242.556 349.632 242.556 351.986 242.556C352.379 242.556 352.804 242.654 353.131 242.523C353.556 242.327 353.883 241.966 354.243 241.672C353.883 241.377 353.491 240.854 353.131 240.854C350.973 240.788 348.814 240.821 346.655 240.821C346.099 240.821 345.543 240.821 344.889 240.821C344.889 239.217 344.889 237.744 344.889 236.108C347.375 236.108 349.828 236.141 352.248 236.108C353 236.108 354.178 236.435 354.21 235.257C354.243 234.046 353.066 234.406 352.313 234.373C349.861 234.341 347.44 234.373 344.922 234.373C344.922 232.77 344.922 231.297 344.922 229.595C347.342 229.595 349.762 229.628 352.215 229.595C353 229.595 354.276 229.988 354.243 228.711C354.21 227.467 352.935 227.893 352.15 227.893C349.762 227.86 347.375 227.893 344.922 227.893C344.922 226.257 344.922 224.816 344.922 223.147C347.277 223.147 349.566 223.147 351.856 223.147C352.281 223.147 352.771 223.245 353.131 223.115C353.556 222.951 353.883 222.558 354.276 222.296C353.916 222.002 353.524 221.478 353.164 221.478C351.103 221.38 349.043 221.445 346.982 221.413C346.459 221.413 345.936 221.413 345.412 221.413C345.772 215.914 352.019 210.677 358.56 210.252C365.331 209.826 371.97 214.769 373.246 221.413C371.087 221.413 368.961 221.413 366.802 221.413C366.279 221.413 365.723 221.314 365.233 221.478C364.873 221.609 364.578 222.002 364.251 222.296C364.578 222.591 364.905 223.082 365.265 223.115C366.41 223.213 367.555 223.18 368.732 223.18C370.302 223.18 371.905 223.18 373.605 223.18C373.605 224.784 373.605 226.257 373.605 227.926C371.349 227.926 369.092 227.926 366.868 227.926C366.475 227.926 366.05 227.828 365.723 227.958C365.2 228.155 364.775 228.515 364.284 228.777C364.742 229.071 365.2 229.628 365.658 229.628C367.816 229.726 369.975 229.66 372.134 229.66C372.591 229.66 373.082 229.66 373.638 229.66C373.638 231.264 373.638 232.704 373.638 234.406C371.381 234.406 369.092 234.406 366.802 234.406C366.312 234.406 365.789 234.275 365.363 234.439C364.938 234.57 364.644 234.995 364.284 235.322C364.611 235.584 364.938 236.075 365.298 236.108C366.443 236.206 367.587 236.173 368.732 236.173C370.302 236.173 371.905 236.173 373.605 236.173C373.605 237.712 373.605 239.185 373.605 240.886C371.61 240.886 369.582 240.886 367.522 240.886C366.802 240.886 366.05 240.788 365.363 240.919C364.938 241.017 364.611 241.476 364.251 241.77C364.611 242.065 364.971 242.588 365.363 242.588C367.555 242.687 369.779 242.621 371.97 242.621C372.493 242.621 373.017 242.621 373.671 242.621C373.671 246.254 373.736 249.756 373.638 253.225C373.573 255.811 373.703 258.462 373.115 260.949C371.839 266.317 368.307 269.852 363.008 271.325C357.743 272.765 353 271.455 349.108 267.626C346.296 264.844 344.824 261.408 344.856 257.415C344.791 252.473 344.791 247.629 344.791 242.556Z" fill="#EAFCFC"/>
<path d="M350.906 281.7C352.574 282.256 354.308 282.616 355.976 283.074C355.976 289.096 355.976 301.01 355.976 306.967H362.386C362.386 300.977 362.386 289.064 362.386 282.976C363.204 282.812 363.858 282.714 364.512 282.551C374.651 279.998 381.225 273.779 383.94 263.6C385.281 258.593 384.627 253.487 384.725 248.414C384.757 246.385 383.482 245.109 381.716 245.109C379.917 245.109 378.74 246.32 378.707 248.381C378.674 250.542 378.674 252.702 378.739 254.862C378.87 260.131 377.987 265.073 374.651 269.394C369.778 275.743 361.438 278.558 353.817 276.299C345.968 274.008 340.342 267.168 339.819 259.117C339.623 255.876 339.721 252.603 339.688 249.331C339.688 248.512 339.655 247.661 339.426 246.909C338.969 245.599 337.595 244.912 336.156 245.109C334.717 245.338 333.67 246.516 333.637 248.185C333.572 251.36 333.605 254.535 333.637 257.709C333.768 268.608 340.604 278.132 350.906 281.7Z" fill="#EAFCFC"/>
<path d="M509.467 79.6955L510.317 87.2559C510.546 87.5832 510.906 87.5832 511.854 87.5505C513.522 87.5178 515.223 87.4523 516.891 87.485C517.153 87.485 517.513 87.7469 517.676 87.976C518.494 89.416 519.213 90.8889 520.031 92.3289C520.293 92.7544 520.358 93.049 520.031 93.4745C518.821 95.2418 517.643 97.0419 516.466 98.8093C517.611 100.38 521.372 103.457 522.942 104.079C524.348 102.606 525.82 101.133 527.259 99.5948C527.684 99.1039 528.011 99.0384 528.633 99.3002C530.105 99.8566 531.642 100.282 533.179 100.675C533.8 100.839 534.16 101.002 534.291 101.722C534.618 103.555 535.043 105.388 535.403 107.221C535.501 107.712 535.697 107.973 536.221 107.908C538.608 107.646 540.963 107.417 543.351 107.155C543.939 107.09 543.841 106.632 543.841 106.272C543.841 104.439 543.841 102.639 543.776 100.806C543.743 100.118 543.972 99.7912 544.593 99.4966C546.261 98.7111 547.864 97.8602 549.63 96.9437C551.396 98.122 553.326 99.3984 555.354 100.74C557.447 98.8748 559.115 96.7474 560.522 94.26C558.853 92.6235 557.185 91.0198 555.714 89.5797C556.27 87.485 556.858 85.5213 557.316 83.5575C557.447 83.0011 557.676 82.8048 558.199 82.7066C559.998 82.3465 561.797 81.9538 563.629 81.5938C564.021 81.5283 564.283 81.4301 564.315 80.9392C564.381 78.55 564.283 76.1935 563.661 73.9024C563.53 73.3788 563.269 73.2806 562.778 73.2806C560.881 73.3133 558.984 73.2806 557.087 73.3133C556.629 73.3133 556.4 73.2151 556.139 72.7569C555.321 71.1532 554.405 69.5822 553.457 68.0439C553.228 67.6512 553.293 67.4221 553.49 67.0948C554.667 65.2947 555.844 63.4946 557.055 61.6617C555.19 59.6325 553.13 57.8652 550.71 56.4905C549.042 58.1925 547.406 59.8944 545.836 61.4981C543.645 60.8435 541.519 60.2217 539.262 59.5343C538.935 57.9306 538.543 56.0651 538.15 54.2322C537.823 52.7267 538.085 52.8249 536.45 52.8249C536.286 52.8249 536.123 52.7594 535.959 52.7267C534.553 52.8903 533.114 53.054 531.707 53.2176C531.413 53.3158 531.086 53.4467 530.791 53.4795C529.974 53.5449 529.647 53.9049 529.679 54.7886C529.777 56.6542 529.745 58.5197 529.712 60.3853C529.712 60.6144 529.516 60.9744 529.287 61.1053C527.881 61.9236 526.409 62.6109 525.068 63.4946C524.414 63.92 524.021 63.8546 523.432 63.4618C521.764 62.3163 520.031 61.2363 518.167 59.9926C516.401 62.1527 514.7 64.2473 512.966 66.3747C513.326 66.7348 513.522 66.9639 513.751 67.1602C515.06 68.4367 516.368 69.7458 517.709 71.0223C518.101 71.3823 518.101 71.6769 517.938 72.1678C517.414 73.837 517.022 75.5389 516.531 77.2408C516.466 77.5026 516.106 77.7972 515.845 77.8627C514.373 78.2227 512.868 78.4845 511.396 78.7791C510.088 79.1064 509.663 79.2046 509.467 79.6955ZM524.61 81.6592C523.858 74.8843 528.731 68.7967 535.501 68.0112C542.271 67.2584 548.355 72.1351 549.14 78.91C549.892 85.6849 545.019 91.7725 538.248 92.558C531.478 93.3108 525.362 88.4342 524.61 81.6592Z" fill="#BDD0FB"/>
<path d="M148.553 44.119L151.496 62.4473L161.276 49.552L193.753 18.4921L164.906 30.0782C164.906 30.0782 150.908 38.2605 150.319 39.2423C149.697 40.2569 148.553 44.119 148.553 44.119Z" fill="#1A0F91"/>
<path d="M132.232 37.4094L193.753 18.5247L148.553 44.1188L132.232 37.4094Z" fill="#4B4EF7"/>
<path d="M173.671 55.9342L153.654 47.7846L193.752 18.5248L173.671 55.9342Z" fill="#4B4EF7"/>
<path d="M81.5694 133.208C81.3405 131.735 81.177 130.262 81.1116 128.757C81.0461 127.382 81.0461 125.975 81.1116 124.567L82.6161 124.633C82.5506 125.975 82.5506 127.349 82.6161 128.658C82.6815 130.098 82.845 131.539 83.0739 132.946C83.1394 133.371 83.2048 133.764 83.3029 134.19L81.8311 134.484C81.733 134.059 81.6349 133.633 81.5694 133.208ZM82.6815 114.781C83.4991 111.705 84.6439 108.563 86.0502 105.486L87.4239 106.108C86.0502 109.119 84.9382 112.163 84.1206 115.174L82.6815 114.781ZM127.849 98.1221C127.751 98.0893 127.653 98.0566 127.555 98.0239L128.013 96.5838C128.111 96.6165 128.176 96.6493 128.274 96.6493C128.274 96.6493 128.307 96.6493 128.438 96.6493C129.288 96.6165 131.349 95.9947 132.33 94.9473C133.147 94.0637 133.671 92.9509 133.867 91.5762L135.371 91.8381C135.11 93.4745 134.423 94.9146 133.442 95.9947C132.101 97.4347 129.582 98.1548 128.503 98.1875C128.209 98.1875 128.013 98.1548 127.849 98.1221ZM90.8254 96.8129C92.5915 94.0964 94.5539 91.4453 96.7125 88.8925L97.8572 89.8743C95.7313 92.3617 93.8016 94.9801 92.0682 97.6639L90.8254 96.8129ZM118.658 88.5324C118.233 87.1251 117.972 85.6523 117.906 84.114C117.874 83.2958 117.874 82.4121 117.939 81.5611L119.443 81.6593C119.378 82.4775 119.378 83.263 119.411 84.0485C119.476 85.4559 119.705 86.8305 120.098 88.107C120.359 89.0234 120.752 89.9071 121.21 90.7253L119.869 91.4453C119.378 90.4962 118.953 89.5143 118.658 88.5324ZM123.434 79.041L123.237 79.0083L123.466 77.5027L123.695 77.5354C127.129 78.0918 130.302 79.761 132.461 82.1175L131.349 83.1321C129.386 81.0375 126.508 79.5319 123.434 79.041ZM104.431 82.5757C105.903 81.5939 108.585 79.8919 110.089 79.3355C111.267 78.9101 112.379 78.5828 113.425 78.2882L113.818 79.761C112.771 80.0229 111.725 80.3501 110.58 80.7756C109.566 81.1356 107.636 82.2484 105.249 83.8194L104.431 82.5757ZM120.457 71.8733C121.798 68.8295 123.597 65.9821 125.788 63.4619L126.933 64.4438C124.84 66.8657 123.139 69.5823 121.831 72.4952L120.457 71.8733Z" fill="#9BC1F9"/>
<path d="M134.161 58.2252C135.568 57.3415 137.007 56.5888 138.479 55.9996L137.89 54.5923C136.353 55.2469 134.816 56.0324 133.344 56.9488L134.161 58.2252Z" fill="#9BC1F9"/>
<path opacity="0.2" d="M421.324 480.202H295.732C287.62 480.202 281.014 473.623 281.014 465.474C281.014 457.357 287.588 450.746 295.732 450.746H421.324C429.435 450.746 436.042 457.324 436.042 465.474C436.042 473.623 429.468 480.202 421.324 480.202Z" fill="#4042E2"/>
<g opacity="0.5">
<g opacity="0.5">
<path opacity="0.5" d="M263.68 381.884H258.676V407.707H263.68V381.884Z" fill="#4042E2"/>
<path opacity="0.5" d="M272.707 385.124H267.703V404.499H272.707V385.124Z" fill="#4042E2"/>
<path opacity="0.5" d="M281.766 381.884H276.762V407.707H281.766V381.884Z" fill="#4042E2"/>
<path opacity="0.5" d="M290.793 370.003H285.789V418.835H290.793V370.003Z" fill="#4042E2"/>
<path opacity="0.5" d="M299.854 376.941H294.85V412.616H299.854V376.941Z" fill="#4042E2"/>
<path opacity="0.5" d="M381.586 370.003H376.582V418.835H381.586V370.003Z" fill="#4042E2"/>
<path opacity="0.5" d="M390.613 379.494H385.609V410.063H390.613V379.494Z" fill="#4042E2"/>
<path opacity="0.5" d="M399.051 387.644H394.047V401.914H399.051V387.644Z" fill="#4042E2"/>
<path opacity="0.5" d="M407.195 383.422H402.191V406.201H407.195V383.422Z" fill="#4042E2"/>
<path opacity="0.5" d="M415.502 371.41H410.498V418.18H415.502V371.41Z" fill="#4042E2"/>
<path opacity="0.5" d="M424.072 385.124H419.068V404.499H424.072V385.124Z" fill="#4042E2"/>
<path opacity="0.5" d="M432.967 379.494H427.963V410.063H432.967V379.494Z" fill="#4042E2"/>
<path opacity="0.5" d="M441.242 370.003H436.238V419.62H441.242V370.003Z" fill="#4042E2"/>
<path opacity="0.5" d="M449.387 379.494H444.383V408.558H449.387V379.494Z" fill="#4042E2"/>
<path opacity="0.5" d="M457.858 386.597H452.854V401.456H457.858V386.597Z" fill="#4042E2"/>
<path opacity="0.5" d="M466.067 389.64H461.062V398.412H466.067V389.64Z" fill="#4042E2"/>
<path opacity="0.5" d="M255.045 387.644H250.041V400.376H255.045V387.644Z" fill="#4042E2"/>
<path opacity="0.5" d="M344.563 370.003H339.559V418.835H344.563V370.003Z" fill="#4042E2"/>
<path opacity="0.5" d="M353.59 376.941H348.586V412.616H353.59V376.941Z" fill="#4042E2"/>
<path opacity="0.5" d="M308.879 385.124H303.875V404.499H308.879V385.124Z" fill="#4042E2"/>
<path opacity="0.5" d="M317.94 387.644H312.936V401.914H317.94V387.644Z" fill="#4042E2"/>
<path opacity="0.5" d="M363.369 385.124H358.365V404.499H363.369V385.124Z" fill="#4042E2"/>
<path opacity="0.5" d="M372.428 379.494H367.424V410.063H372.428V379.494Z" fill="#4042E2"/>
<path opacity="0.5" d="M326.967 383.422H321.963V406.201H326.967V383.422Z" fill="#4042E2"/>
<path opacity="0.5" d="M336.026 379.494H331.021V410.063H336.026V379.494Z" fill="#4042E2"/>
</g>
</g>
<path d="M656.122 269.328L615.108 283.86C613.113 284.58 610.922 283.532 610.235 281.536L600.946 255.254C600.227 253.258 601.273 251.065 603.268 250.378L644.282 235.846C646.277 235.126 648.468 236.173 649.155 238.17L658.444 264.451C659.163 266.415 658.117 268.608 656.122 269.328Z" fill="#BDD0FB"/>
<path d="M606.997 267.691L597.938 287.525L614.454 277.805L606.997 267.691Z" fill="#BDD0FB"/>
<path d="M619.197 260.949L623.482 259.313C623.482 259.313 627.439 253.291 627.08 251.785C626.72 250.28 624.725 247.563 625.444 246.876C626.164 246.188 627.832 245.239 629.631 246.745C630.939 247.825 632.084 253.127 632.738 253.258C633.13 253.356 635.616 252.472 637.447 251.818C638.625 251.392 639.966 251.621 640.914 252.472C641.536 253.062 641.699 253.978 641.274 254.731L640.587 255.876L641.699 256.596C642.55 257.153 642.779 258.265 642.223 259.084L641.667 259.935L642.386 260.327C643.335 260.851 643.629 262.062 643.008 262.978L642.517 263.699L642.68 263.862C643.4 264.484 643.498 265.531 642.942 266.317L642.419 267.004L631.004 271.39C629.925 271.815 628.78 271.979 627.636 271.946L623.351 272.83C622.893 272.928 622.435 272.666 622.272 272.241L618.609 262.193C618.478 261.669 618.707 261.113 619.197 260.949Z" fill="white"/>
<path d="M86.4757 201.481H7.03187C3.13981 201.481 0 204.623 0 208.517V254.993C0 258.887 3.13981 262.029 7.03187 262.029H62.6327C66.1977 267.037 72.6736 276.005 73.2623 276.005C73.7856 276.005 72.7717 267.528 72.0522 262.029H86.5084C90.3678 262.029 93.5403 258.887 93.5403 254.993V208.517C93.4749 204.623 90.335 201.481 86.4757 201.481Z" fill="#BDD0FB"/>
<path d="M133.343 145.874H233.654C238.952 145.874 243.237 150.194 243.237 155.496V219.056C243.237 224.391 238.952 228.678 233.654 228.678H165.984C161.111 235.519 152.248 247.792 151.463 247.792C150.743 247.792 152.15 236.206 153.131 228.678H133.376C128.078 228.678 123.793 224.358 123.793 219.056V155.529C123.76 150.194 128.045 145.874 133.343 145.874Z" fill="#BDD0FB"/>
<path d="M232.085 178.57H207.097H183.32C183.156 178.57 183.025 178.701 183.025 178.865V182.628C183.025 182.792 183.156 182.923 183.32 182.923H207.097H208.307H232.085C232.249 182.923 232.379 182.792 232.379 182.628V178.865C232.379 178.701 232.249 178.57 232.085 178.57Z" fill="white"/>
<path d="M135.078 182.923H175.764C175.928 182.923 176.059 182.792 176.059 182.628V178.832C176.059 178.668 175.928 178.537 175.764 178.537H135.078C134.914 178.537 134.783 178.668 134.783 178.832V182.628C134.783 182.792 134.914 182.923 135.078 182.923Z" fill="white"/>
<path d="M134.913 168.686H189.141C189.304 168.686 189.435 168.555 189.435 168.391V164.628C189.435 164.464 189.304 164.333 189.141 164.333H134.913C134.75 164.333 134.619 164.464 134.619 164.628V168.424C134.619 168.588 134.75 168.686 134.913 168.686Z" fill="white"/>
<path d="M198.986 168.686H232.117C232.281 168.686 232.412 168.555 232.412 168.391V164.628C232.412 164.464 232.281 164.333 232.117 164.333H198.986C198.822 164.333 198.691 164.464 198.691 164.628V168.424C198.691 168.588 198.822 168.686 198.986 168.686Z" fill="white"/>
<path d="M134.619 210.776H232.379V206.423H134.619V210.776Z" fill="white"/>
<path d="M185.868 197.017H232.377V192.664H185.868V197.017Z" fill="white"/>
<path d="M134.798 197.017H181.307V192.664H134.798V197.017Z" fill="white"/>
<path d="M41.3086 240.33C41.3086 242.359 43.9905 244.028 47.2612 244.028C50.5645 244.028 53.2137 242.359 53.2137 240.33C53.2137 238.301 50.5318 236.632 47.2612 236.632C43.9905 236.632 41.3086 238.301 41.3086 240.33Z" fill="#ADAEB5"/>
<path d="M47.2934 161.813C62.1421 161.813 74.1781 173.857 74.1781 188.716C74.1781 196.833 70.5804 204.099 64.8894 209.041C64.8567 209.074 60.703 213.59 60.0162 218.303L59.8854 221.216C59.8527 222.165 59.4602 223.082 58.8388 223.769C58.7734 223.835 58.7079 223.9 58.6752 223.965H35.9443C35.8789 223.9 35.8135 223.835 35.7808 223.769C35.1266 223.049 34.7669 222.165 34.7342 221.216L34.6033 218.303C33.9165 213.558 29.7301 209.041 29.7301 209.041C24.0392 204.099 20.4415 196.833 20.4415 188.716C20.4088 173.857 32.4447 161.813 47.2934 161.813Z" fill="#FF847C"/>
<path d="M38.8874 240.755H55.6985C57.3665 240.755 58.7075 239.414 58.7075 237.744V223.998H35.8457V237.744C35.8457 239.381 37.2194 240.755 38.8874 240.755Z" fill="#544C60"/>
<path opacity="0.3" d="M40.5558 209.303C55.4045 209.303 67.4404 197.259 67.4404 182.399C67.4404 176.377 65.4453 170.781 62.1093 166.297C69.3701 171.108 74.1779 179.356 74.1779 188.749C74.1779 196.866 70.5802 204.132 64.8893 209.074C64.8566 209.106 60.7029 213.623 60.0161 218.336L59.8852 221.249C59.8525 222.198 59.4601 223.115 58.8386 223.802C58.7732 223.867 58.7078 223.933 58.6751 223.998H35.9442C35.8788 223.933 35.8133 223.867 35.7806 223.802C35.1265 223.082 34.7667 222.198 34.734 221.249L34.6032 218.336C33.9164 213.59 29.73 209.074 29.73 209.074C28.2909 207.83 26.9826 206.423 25.8379 204.917C30.0243 207.666 35.0938 209.303 40.5558 209.303Z" fill="#EAB054"/>
<path d="M47.4561 201.775L52.82 178.439L57.497 192.022L58.8706 191.531L52.5256 173.17L47.0636 196.964L41.5035 183.316L36.3359 192.055L37.5788 192.807L41.2419 186.589L47.4561 201.775Z" fill="white"/>
<path d="M54.1956 227.468H54.3264C55.0133 227.533 55.602 227.042 55.6674 226.355L59.3959 190.255C59.4613 189.567 58.9707 188.978 58.2839 188.913H58.1531C57.4662 188.847 56.8775 189.338 56.8121 189.993L53.0836 226.093C53.0509 226.78 53.5415 227.402 54.1956 227.468Z" fill="#544C60"/>
<path d="M40.2947 227.467C39.5752 227.533 38.9538 227.009 38.8884 226.322L35.1598 190.353C35.0944 189.633 35.6177 189.011 36.3045 188.945C37.0241 188.88 37.6455 189.403 37.7109 190.091L41.4394 226.06C41.5049 226.78 40.9816 227.402 40.2947 227.467Z" fill="#544C60"/>
<path d="M35.2238 226.486H59.3284C59.5247 226.486 59.6555 226.322 59.6555 226.158V224.293C59.6555 224.096 59.492 223.965 59.3284 223.965H35.2238C35.0276 223.965 34.8968 224.129 34.8968 224.293V226.158C34.8641 226.355 35.0276 226.486 35.2238 226.486Z" fill="#ADAEB5"/>
<path d="M35.2238 231.559H59.3284C59.5247 231.559 59.6555 231.395 59.6555 231.231V229.366C59.6555 229.169 59.492 229.038 59.3284 229.038H35.2238C35.0276 229.038 34.8968 229.202 34.8968 229.366V231.231C34.8641 231.428 35.0276 231.559 35.2238 231.559Z" fill="#ADAEB5"/>
<path d="M35.2238 237.253H59.3284C59.5247 237.253 59.6555 237.09 59.6555 236.926V235.061C59.6555 234.864 59.492 234.733 59.3284 234.733H35.2238C35.0276 234.733 34.8968 234.897 34.8968 235.061V236.926C34.8641 237.09 35.0276 237.253 35.2238 237.253Z" fill="#ADAEB5"/>
<path d="M746.001 572.989H10.8594V576H746.001V572.989Z" fill="#FF847C"/>
</g>
<defs>
<linearGradient id="paint0_linear_2_64448" x1="669.575" y1="102.107" x2="227.769" y2="437.209" gradientUnits="userSpaceOnUse">
<stop stop-color="#AABDFF" stop-opacity="0"/>
<stop offset="0.6875" stop-color="#89AEF4" stop-opacity="0.29"/>
<stop offset="1" stop-color="#EDEFFF" stop-opacity="0.4"/>
</linearGradient>
<clipPath id="clip0_2_64448">
<rect width="746" height="576" fill="white"/>
</clipPath>
</defs>
</svg>
