<svg width="80" height="80" viewBox="0 0 80 80" fill="none" xmlns="http://www.w3.org/2000/svg">
<path d="M48 38H49V33H31V38H32C32.5304 38 33.0391 38.2107 33.4142 38.5858C33.7893 38.9609 34 39.4696 34 40C34 40.5304 33.7893 41.0391 33.4142 41.4142C33.0391 41.7893 32.5304 42 32 42H31V47H49V42H48C47.4696 42 46.9609 41.7893 46.5858 41.4142C46.2107 41.0391 46 40.5304 46 40C46 39.4696 46.2107 38.9609 46.5858 38.5858C46.9609 38.2107 47.4696 38 48 38V38ZM47 43.874V45H33V43.874C33.8595 43.653 34.6211 43.1524 35.165 42.4511C35.7088 41.7498 36.0039 40.8875 36.0039 40C36.0039 39.1125 35.7088 38.2502 35.165 37.5489C34.6211 36.8476 33.8595 36.347 33 36.126V35H47V36.126C46.1405 36.347 45.3789 36.8476 44.835 37.5489C44.2912 38.2502 43.9961 39.1125 43.9961 40C43.9961 40.8875 44.2912 41.7498 44.835 42.4511C45.3789 43.1524 46.1405 43.653 47 43.874Z" fill="#9A9AB0"/>
<path d="M41.1679 36.4456L37.168 42.4456L38.8321 43.555L42.832 37.555L41.1679 36.4456Z" fill="#9A9AB0"/>
<path d="M39 37H37V39H39V37Z" fill="#9A9AB0"/>
<path d="M43 41H41V43H43V41Z" fill="#9A9AB0"/>
</svg>
