<svg width="80" height="80" viewBox="0 0 80 80" fill="none" xmlns="http://www.w3.org/2000/svg">
<path fill-rule="evenodd" clip-rule="evenodd" d="M37.5002 39C36.9479 39 36.5002 38.5523 36.5002 38C36.5002 37.4477 36.9479 37 37.5002 37C38.0525 37 38.5002 37.4477 38.5002 38C38.5002 38.5523 38.0525 39 37.5002 39ZM39.5002 45.21V47.99C37.2302 47.86 35.2102 46.78 33.8402 45.13C34.5202 44.59 36.1202 44.02 37.5002 44.02C37.5802 44.02 37.6502 44.03 37.7302 44.03C37.9702 43.39 38.4002 42.74 39.0302 42.17C38.4702 42.06 37.9402 42.01 37.5002 42.01C36.2002 42.01 34.1102 42.46 32.7702 43.44C32.2802 42.4 31.9902 41.24 31.9902 40.01C31.9902 35.6 35.5802 32.01 39.9902 32.01C44.4002 32.01 47.9902 35.6 47.9902 40.01C47.9902 41.22 47.7202 42.36 47.2402 43.38C46.2402 42.78 44.8802 42.51 44.0002 42.51C42.4802 42.51 39.5002 43.33 39.5002 45.21V45.21ZM44.0002 37C42.8902 37 41.9902 37.89 42.0002 39C42.0002 40.11 42.8902 41 44.0002 41C45.1102 41 46.0002 40.11 46.0002 39C46.0002 37.89 45.1102 37 44.0002 37ZM37.5002 41C39.1502 41 40.5002 39.65 40.5002 38C40.5002 36.35 39.1502 35 37.5002 35C35.8502 35 34.5002 36.35 34.5002 38C34.5002 39.65 35.8502 41 37.5002 41Z" fill="white"/>
<path fill-rule="evenodd" clip-rule="evenodd" d="M40.5002 38C40.5002 36.35 39.1502 35 37.5002 35C35.8502 35 34.5002 36.35 34.5002 38C34.5002 39.65 35.8502 41 37.5002 41C39.1502 41 40.5002 39.65 40.5002 38ZM37.5002 39C36.9502 39 36.5002 38.55 36.5002 38C36.5002 37.45 36.9502 37 37.5002 37C38.0502 37 38.5002 37.45 38.5002 38C38.5002 38.55 38.0502 39 37.5002 39ZM44.0002 41C45.1102 41 46.0002 40.11 46.0002 39C46.0002 37.89 45.1102 37 44.0002 37C42.8902 37 41.9902 37.89 42.0002 39C42.0002 40.11 42.8902 41 44.0002 41ZM39.9902 30.01C34.4702 30.01 29.9902 34.49 29.9902 40.01C29.9902 45.53 34.4702 50.01 39.9902 50.01C45.5102 50.01 49.9902 45.53 49.9902 40.01C49.9902 34.49 45.5102 30.01 39.9902 30.01ZM33.8402 45.12C34.5202 44.58 36.1102 44.01 37.5002 44.01C37.5702 44.01 37.6502 44.02 37.7302 44.02C37.9702 43.38 38.4002 42.73 39.0302 42.16C38.4702 42.06 37.9402 42 37.5002 42C36.2002 42 34.1102 42.45 32.7702 43.43C32.2702 42.39 31.9902 41.23 31.9902 40C31.9902 35.59 35.5802 32 39.9902 32C44.4002 32 47.9902 35.59 47.9902 40C47.9902 41.2 47.7202 42.34 47.2402 43.37C46.2402 42.78 44.8802 42.5 44.0002 42.5C42.4802 42.5 39.5002 43.31 39.5002 45.2V47.98C37.2302 47.85 35.2102 46.77 33.8402 45.12V45.12Z" fill="#9A9AB0"/>
</svg>
