<svg width="80" height="80" viewBox="0 0 80 80" fill="none" xmlns="http://www.w3.org/2000/svg">
<path fill-rule="evenodd" clip-rule="evenodd" d="M40 51C33.9249 51 29 46.0751 29 40C29 33.9249 33.9249 29 40 29C46.0751 29 51 33.9249 51 40C51 46.0751 46.0751 51 40 51ZM47.3995 45.1246C48.4086 43.6703 49 41.9042 49 40C49 35.0294 44.9706 31 40 31C35.0294 31 31 35.0294 31 40C31 41.9042 31.5914 43.6703 32.6005 45.1246C33.726 43.6381 36.3706 43 40 43C43.6294 43 46.274 43.6381 47.3995 45.1246ZM45.9647 46.7398C45.672 45.6874 43.5694 45 40 45C36.4306 45 34.328 45.6874 34.0353 46.7398C35.6233 48.1462 37.7119 49 40 49C42.2881 49 44.3767 48.1462 45.9647 46.7398ZM40 43C37.7609 43 36 41.4274 36 38C36 35.7558 37.5791 34 40 34C42.4142 34 44 35.9216 44 38.2C44 41.4796 42.2181 43 40 43ZM38 38C38 40.2693 38.8182 41 40 41C41.1777 41 42 40.2984 42 38.2C42 36.9504 41.2157 36 40 36C38.7337 36 38 36.8158 38 38Z" fill="#9A9AB0"/>
</svg>
