<svg width="521" height="777" viewBox="0 0 521 777" fill="none" xmlns="http://www.w3.org/2000/svg">
<g clip-path="url(#clip0_328_7597)">
<path d="M108.095 420.103C97.8925 420.103 89.5898 411.8 89.5898 401.597V346.891C89.5898 336.689 97.8925 328.386 108.095 328.386C118.298 328.386 126.601 336.689 126.601 346.891V401.597C126.601 411.803 118.298 420.103 108.095 420.103Z" fill="white"/>
<path d="M140.168 367.443C138.297 367.443 136.784 368.959 136.784 370.826V403.659C136.784 419.417 123.963 432.239 108.205 432.239H107.987C92.2287 432.239 79.4073 419.417 79.4073 403.659V370.502C79.4073 368.631 77.8911 367.118 76.024 367.118C74.1569 367.118 72.6406 368.635 72.6406 370.502V403.659C72.6406 422.046 86.7532 437.198 104.716 438.856V481.999C104.716 483.869 106.232 485.382 108.099 485.382C109.97 485.382 111.482 483.866 111.482 481.999V438.856C129.445 437.198 143.558 422.046 143.558 403.659V370.826C143.554 368.959 142.038 367.443 140.168 367.443Z" fill="white"/>
<path d="M421.543 398.426C421.543 441.362 412.839 482.267 397.105 519.47C373.859 574.434 390.524 628.815 341.946 662.251C327.35 672.298 262.994 742.599 222.543 667.498C201.929 629.229 184.268 746.734 111.119 651.492C84.3079 616.579 24.6664 700.248 -13.2849 683.752C-62.0316 662.562 -181.785 686.003 -213.744 644.367C-253.98 591.956 -212.652 459.507 -212.652 388.325C-212.652 308.424 -170.268 245.66 -120.746 190.584C-86.602 152.613 -43.2447 123.09 5.8066 105.544C38.5406 93.8353 73.8104 87.4561 110.57 87.4561C179.302 87.4561 135.071 198.489 186.545 236.245C223.302 263.206 361.669 209.315 383.651 249.547C407.811 293.762 421.543 344.491 421.543 398.426Z" stroke="white" stroke-width="1.87681" stroke-miterlimit="10"/>
<path d="M423.473 398.426C430.528 439.197 415.194 487.335 397.476 526.193C372.194 581.644 385.532 633.886 334.954 666.65C320.051 676.304 257.261 742.238 216.006 670.626C194.617 633.499 177.776 747.561 104.761 657.318C76.6248 622.541 20.1084 696.832 -18.1806 678.677C-67.5265 655.169 -186.098 676.499 -217.375 632.658C-254.707 580.333 -213.287 453.654 -215.693 383.919C-218.352 306.931 -171.78 247.044 -125.404 191.736C-89.9848 149.498 -45.1841 126.42 4.84709 108.143C38.4683 95.8349 66.657 83.0532 110.402 83.361C179.564 83.851 139.653 192.415 191.598 230.22C228.778 257.274 365.143 204.793 387.531 245.227C412.618 290.378 414.555 346.888 423.473 398.426Z" stroke="white" stroke-width="1.87681" stroke-miterlimit="10"/>
<path d="M425.406 398.426C439.379 436.814 417.58 492.41 397.853 532.917C370.601 588.871 380.572 638.975 327.968 671.05C312.767 680.319 251.467 741.874 209.47 673.751C187.276 637.75 171.058 748.488 98.4002 663.144C68.8939 628.487 15.5489 693.415 -23.0777 673.602C-73.0229 647.777 -190.406 667.09 -221.011 620.946C-255.556 568.862 -213.897 447.877 -218.743 379.509C-223.994 305.487 -173.559 248.117 -130.072 192.888C-93.3624 146.267 -47.1317 129.751 3.87614 110.742C38.3845 97.8344 59.4888 78.627 110.222 79.2659C179.815 80.1399 144.224 186.34 196.639 224.198C234.242 251.344 368.604 200.27 391.4 240.913C417.431 286.992 407.407 348.977 425.406 398.426Z" stroke="white" stroke-width="1.87681" stroke-miterlimit="10"/>
<path d="M427.337 398.426C447.984 434.308 419.997 497.492 398.224 539.64C369.056 596.111 375.634 644.083 320.974 675.449C305.481 684.338 245.588 741.513 202.929 676.88C179.902 641.994 164.124 749.528 92.0384 668.971C61.1152 634.416 10.9417 690.085 -27.9763 668.527C-78.5835 640.494 -194.718 657.775 -224.645 609.237C-256.518 557.534 -214.465 442.183 -221.791 375.103C-229.548 304.1 -175.557 248.951 -134.739 194.037C-96.7448 142.926 -49.0773 133.078 2.91045 113.337C38.3061 99.8339 52.3259 74.181 110.047 75.1675C180.074 76.3659 148.8 180.262 201.685 218.17C239.715 245.409 371.992 195.791 395.275 236.59C422.142 283.661 399.972 350.871 427.337 398.426Z" stroke="white" stroke-width="1.87681" stroke-miterlimit="10"/>
<path d="M429.265 398.426C456.335 431.805 422.439 502.576 398.594 546.364C367.555 603.364 370.713 649.211 313.981 679.849C298.207 688.367 239.635 741.159 196.387 680.008C172.495 646.225 156.982 750.68 85.6746 674.801C53.2882 640.339 6.36552 686.688 -32.8768 663.452C-84.0998 633.125 -199.053 648.548 -228.281 597.524C-257.608 546.331 -214.986 436.562 -224.841 370.69C-235.005 302.766 -177.747 249.597 -139.405 195.189C-100.156 139.497 -51.0216 136.405 1.94604 115.936C38.2288 101.833 45.1643 69.7185 109.874 71.0725C180.331 72.549 153.377 174.187 206.732 212.148C245.186 239.48 375.44 191.286 399.15 232.273C426.928 280.291 392.225 352.751 429.265 398.426Z" stroke="white" stroke-width="1.87681" stroke-miterlimit="10"/>
<path d="M431.201 398.426C464.504 429.395 424.911 507.675 398.97 553.088C366.097 610.637 365.822 654.358 306.991 684.249C290.942 692.402 233.598 740.818 189.85 683.133C165.058 650.445 149.658 751.948 79.3135 680.624C45.4176 646.258 1.79545 683.282 -37.7747 658.374C-89.6134 625.746 -203.418 639.402 -231.914 585.812C-258.808 535.238 -215.438 431.017 -227.889 366.281C-240.349 301.475 -180.095 250.093 -144.067 196.341C-103.61 135.981 -52.9631 139.735 0.981074 118.535C38.1511 103.836 38.0021 65.2361 109.7 66.9774C180.588 68.6989 157.954 168.112 211.779 206.123C250.657 233.547 378.895 186.77 403.025 227.953C431.717 276.918 384.232 354.75 431.201 398.426Z" stroke="white" stroke-width="1.87681" stroke-miterlimit="10"/>
<path d="M433.13 398.425C472.564 427.114 427.403 512.783 399.343 559.811C364.67 617.923 360.945 659.529 300.003 688.648C283.682 696.448 227.48 740.497 183.312 686.261C157.583 654.666 142.156 753.335 72.9538 686.45C37.4986 652.183 -2.77334 679.875 -42.6712 653.299C-95.1224 618.363 -207.827 630.331 -235.546 574.099C-260.126 524.24 -215.816 425.538 -230.935 361.871C-245.57 300.224 -182.588 250.474 -148.732 197.493C-107.129 132.386 -54.91 143.065 0.0173909 121.133C38.0746 105.836 30.8412 60.7371 109.528 62.8823C180.845 64.8289 162.532 162.038 216.827 200.102C256.129 227.618 382.354 182.261 406.901 223.636C436.51 273.544 376.087 356.929 433.13 398.425Z" stroke="white" stroke-width="1.87681" stroke-miterlimit="10"/>
<path d="M435.065 398.425C480.588 424.949 429.921 517.901 399.719 566.531C363.271 625.223 356.087 664.72 293.016 693.041C276.427 700.49 221.278 740.199 176.779 689.38C150.07 658.88 134.494 754.831 66.5962 692.27C29.5289 658.116 -7.33659 676.456 -47.5622 648.217C-100.622 610.971 -212.291 621.33 -239.176 562.383C-261.551 513.322 -216.102 420.112 -233.975 357.458C-250.653 298.995 -185.195 250.755 -153.391 198.642C-110.716 128.711 -56.848 146.389 -0.940743 123.729C38.0037 107.832 23.6859 56.215 109.358 58.7873C181.109 60.9391 167.112 155.963 221.877 194.076C261.603 221.683 385.815 177.743 410.78 219.319C441.312 270.168 367.883 359.282 435.065 398.425Z" stroke="white" stroke-width="1.87681" stroke-miterlimit="10"/>
<path d="M436.993 398.425C488.607 422.88 432.448 523.032 400.088 573.255C361.892 632.539 351.235 669.937 286.019 697.441C269.169 704.548 214.979 739.944 170.232 692.508C142.503 663.111 126.672 756.457 60.2279 698.096C21.5019 664.081 -11.9107 673.043 -52.4673 643.142C-106.137 603.579 -216.849 612.398 -242.816 550.674C-263.093 502.477 -216.293 414.736 -237.03 353.052C-255.611 297.784 -187.922 250.97 -158.065 199.794C-114.41 124.97 -58.8003 149.723 -1.91637 126.331C37.9153 109.838 16.5131 51.683 109.173 54.6955C181.355 57.0426 171.682 149.892 226.914 188.058C267.063 215.757 389.269 173.23 414.647 215.005C446.11 266.791 359.664 361.788 436.993 398.425Z" stroke="white" stroke-width="1.87681" stroke-miterlimit="10"/>
<path d="M438.926 398.425C496.65 420.877 434.999 528.173 400.461 579.978C360.534 639.868 346.401 675.181 279.03 701.84C261.918 708.61 208.603 739.735 163.696 695.633C134.905 667.359 118.723 758.198 53.8677 703.923C13.4269 670.076 -16.47 669.623 -57.3643 638.067C-111.636 596.187 -221.488 603.526 -246.449 538.962C-264.726 491.688 -216.356 409.38 -240.076 348.639C-260.412 296.569 -190.737 251.123 -162.73 200.946C-118.198 121.157 -60.7443 153.05 -2.88046 128.93C37.8384 111.838 9.35504 47.1278 109 50.6005C181.616 53.1297 176.259 143.82 231.961 182.033C272.534 209.824 392.735 168.712 418.523 210.685C450.913 263.408 351.466 364.407 438.926 398.425Z" stroke="white" stroke-width="1.87681" stroke-miterlimit="10"/>
<path d="M440.855 398.425C504.718 418.927 437.565 533.327 400.832 586.702C359.193 647.211 341.571 680.452 272.035 706.24C254.668 712.682 202.137 739.58 157.151 698.762C127.251 671.632 110.642 760.058 47.5015 709.749C5.28965 676.118 -21.0386 666.203 -62.2672 632.992C-117.142 588.788 -226.242 594.707 -250.087 527.253C-266.457 480.946 -216.294 404.027 -243.128 344.233C-265.07 295.337 -193.627 251.225 -167.398 202.098C-122.107 117.273 -62.691 156.38 -3.84728 131.528C37.7621 113.837 2.19105 42.5594 108.825 46.5054C181.874 49.2101 180.834 137.745 237.006 176.011C278.003 203.895 396.204 164.193 422.396 206.368C455.72 260.024 343.302 367.108 440.855 398.425Z" stroke="white" stroke-width="1.87681" stroke-miterlimit="10"/>
<path d="M442.789 398.425C512.819 417.01 440.147 538.492 401.209 593.426C357.872 654.564 336.758 685.745 265.049 710.64C247.428 716.757 195.609 739.487 150.62 701.887C119.567 675.936 102.469 762.035 41.1454 715.576C-2.8905 682.213 -25.5904 662.783 -67.1601 627.918C-122.634 581.389 -231.105 585.934 -253.719 515.54C-268.275 470.233 -216.078 398.647 -246.174 339.823C-269.579 294.069 -196.586 251.295 -172.059 203.25C-126.149 113.321 -64.6309 159.707 -4.81058 134.127C37.686 115.84 -4.96619 37.971 108.653 42.4104C182.135 45.2806 185.413 131.671 242.055 169.986C283.476 197.963 399.677 159.667 426.273 202.048C460.533 256.641 335.179 369.866 442.789 398.425Z" stroke="white" stroke-width="1.87681" stroke-miterlimit="10"/>
<path d="M444.72 398.426C520.94 415.12 442.74 543.669 401.581 600.149C356.558 661.929 331.945 691.065 258.055 715.039C240.179 720.839 188.999 739.464 144.075 705.015C111.825 680.286 94.1899 764.124 34.7801 721.402C-11.1395 688.38 -30.1549 659.357 -72.0622 622.843C-128.132 573.987 -236.113 577.201 -257.356 503.831C-270.178 459.547 -215.714 393.208 -249.222 335.417C-273.961 292.749 -199.618 251.338 -176.726 204.402C-130.346 109.302 -66.5767 163.038 -5.77655 136.723C37.6072 117.836 -12.1228 33.363 108.478 38.3121C182.394 41.3445 189.988 125.593 247.101 163.961C288.945 192.031 403.15 155.142 430.147 197.728C465.347 253.255 327.085 372.663 444.72 398.426Z" stroke="white" stroke-width="1.87681" stroke-miterlimit="10"/>
<path d="M446.65 398.425C529.087 413.243 445.345 548.857 401.952 606.873C355.254 669.305 327.138 696.408 251.063 719.439C232.935 724.928 182.335 739.514 137.537 708.14C104.048 684.686 85.8343 766.322 28.4207 727.225C-19.4488 694.627 -34.7068 655.931 -76.9584 617.761C-133.62 566.574 -241.27 568.491 -260.988 492.115C-272.151 448.874 -215.177 387.673 -252.268 331.008C-278.219 291.358 -202.7 251.358 -181.391 205.551C-134.713 105.21 -68.52 166.364 -6.73988 139.321C37.5278 119.839 -19.2833 28.7414 108.302 34.2169C182.656 37.4082 194.563 119.518 252.146 157.936C294.417 186.098 406.623 150.617 434.02 193.411C470.164 249.865 319.027 375.487 446.65 398.425Z" stroke="white" stroke-width="1.87681" stroke-miterlimit="10"/>
<path d="M448.583 398.426C537.258 411.376 447.964 554.054 402.326 613.596C353.963 676.694 322.335 701.778 244.075 723.839C225.692 729.02 175.625 739.649 130.999 711.269C96.2328 689.155 77.4127 768.636 22.0583 733.055C-27.824 700.993 -39.2617 652.504 -81.8575 612.689C-139.112 559.172 -246.603 559.818 -264.622 480.406C-274.199 438.201 -214.482 382.006 -255.317 326.598C-282.376 289.882 -205.835 251.368 -186.058 206.703C-139.271 101.052 -70.4662 169.695 -7.70621 141.92C37.452 121.839 -26.4369 24.1035 108.131 30.1219C182.918 33.4655 199.142 113.443 257.195 151.914C299.89 180.169 410.102 146.091 437.897 189.094C474.984 246.475 310.997 378.331 448.583 398.426Z" stroke="white" stroke-width="1.87681" stroke-miterlimit="10"/>
<path d="M450.515 398.425C545.446 409.519 450.591 559.265 402.701 620.32C352.68 684.09 317.536 707.17 237.085 728.238C218.45 733.118 168.879 739.871 124.463 714.394C88.3818 693.7 68.9427 771.053 15.7003 738.878C-36.2609 707.478 -43.7294 648.992 -86.7523 607.611C-144.484 551.647 -252.12 551.148 -268.256 468.694C-276.31 427.528 -213.62 376.166 -258.364 322.185C-286.447 288.306 -209.018 251.374 -190.721 207.855C-144.04 96.8279 -72.408 173.022 -8.67141 144.519C37.374 123.838 -33.5927 19.4522 107.957 26.0268C183.181 29.5194 203.719 107.368 262.241 145.889C305.36 174.237 413.583 141.562 441.772 184.774C479.809 243.081 302.99 381.188 450.515 398.425Z" stroke="white" stroke-width="1.87681" stroke-miterlimit="10"/>
<path d="M452.449 398.425C553.647 407.665 453.23 564.485 403.076 627.043C351.406 691.492 312.737 712.586 230.097 732.638C211.211 737.219 162.117 740.179 117.925 717.522C80.5068 698.335 60.4354 773.582 9.33823 744.708C-44.7781 714.126 -48.2872 645.576 -91.6511 602.539C-149.982 544.255 -257.844 542.487 -271.89 456.984C-278.484 416.842 -212.609 370.111 -261.409 317.779C-290.465 286.617 -212.242 251.377 -195.385 209.007C-149.045 92.5309 -74.3506 176.352 -9.6341 147.117C37.2985 125.838 -40.7459 14.7844 107.785 21.9317C183.443 25.5732 208.298 101.294 267.29 139.867C310.833 168.308 417.066 137.034 445.649 180.457C484.633 239.688 295.002 384.051 452.449 398.425Z" stroke="white" stroke-width="1.87681" stroke-miterlimit="10"/>
<path d="M454.376 398.426C561.857 405.815 455.872 569.716 403.444 633.767C350.129 698.907 307.933 718.025 223.099 737.037C203.961 741.328 155.34 740.58 111.381 720.647C72.6017 703.065 51.908 776.214 2.97251 750.531C-53.3685 720.962 -52.852 642.156 -96.5536 597.461C-155.48 536.86 -263.789 533.811 -275.525 445.272C-280.712 406.132 -211.477 363.808 -264.461 313.369C-294.46 284.81 -215.512 251.391 -200.052 210.159C-154.318 88.1711 -76.3001 179.679 -10.6037 149.716C37.2161 127.84 -47.9029 10.1001 107.607 17.8367C183.701 21.6206 212.873 95.2224 272.333 133.842C316.299 162.375 420.619 132.455 449.519 176.137C489.563 236.222 287.031 386.922 454.376 398.426Z" stroke="white" stroke-width="1.87681" stroke-miterlimit="10"/>
<path d="M456.31 398.426C570.081 403.964 458.525 574.953 403.819 640.491C348.862 706.326 303.134 723.484 216.112 741.437C196.719 745.436 148.592 741.07 104.844 723.776C64.7008 707.905 43.388 778.955 -3.389 756.357C-62.0308 728.03 -57.4126 638.74 -101.452 592.386C-160.981 529.467 -269.975 525.114 -279.162 433.56C-282.992 395.39 -210.241 357.23 -267.509 308.96C-298.452 282.877 -218.818 251.414 -204.719 211.308C-159.875 83.7417 -78.2455 183.006 -11.5692 152.312C37.1378 129.837 -55.0556 5.39932 107.432 13.7384C183.964 17.6646 217.449 89.1444 277.379 127.817C321.769 156.443 424.086 127.93 453.394 171.82C494.371 232.836 279.077 389.795 456.31 398.426Z" stroke="white" stroke-width="1.87681" stroke-miterlimit="10"/>
<path d="M458.239 398.426C578.314 402.12 461.183 580.204 404.193 647.214C347.6 713.755 298.33 728.967 209.123 745.837C189.479 749.551 141.871 741.646 98.3081 726.901C56.8014 712.851 34.8926 781.799 -9.7458 762.184C-70.7612 735.372 -61.9686 635.323 -106.342 587.311C-166.47 522.072 -276.401 516.374 -282.79 421.85C-285.306 384.614 -208.94 350.361 -270.552 304.554C-302.468 280.824 -222.149 251.457 -209.381 212.463C-165.752 79.2593 -80.1861 186.34 -12.5299 154.914C37.061 131.84 -62.1903 0.387285 107.256 9.64668C184.231 13.5762 222.024 83.073 282.423 121.796C327.237 150.514 427.551 123.411 457.266 167.503C499.18 229.452 271.135 392.672 458.239 398.426Z" stroke="white" stroke-width="1.87681" stroke-miterlimit="10"/>
<path d="M460.175 398.425C586.556 400.471 463.969 585.56 404.569 653.938C346.457 721.289 293.529 734.468 202.133 750.233C182.234 753.666 135.199 742.301 91.7688 730.026C48.918 717.913 26.4465 784.748 -16.1063 768.007C-79.5615 743.043 -66.5248 631.903 -111.239 582.233C-171.967 514.676 -283.093 507.575 -286.423 410.138C-287.665 373.792 -207.621 343.197 -273.598 300.141C-306.548 278.639 -225.52 251.517 -214.043 213.612C-171.987 74.7173 -82.1271 189.667 -13.4943 157.509C36.9871 133.839 -69.3421 -4.19781 107.086 5.55154C184.495 9.68963 226.605 76.9982 287.474 115.774C332.712 144.585 431.026 118.892 461.145 163.186C503.992 226.066 263.202 395.857 460.175 398.425Z" stroke="white" stroke-width="1.87681" stroke-miterlimit="10"/>
<path d="M462.104 398.426C594.804 398.426 466.523 590.725 404.939 660.662C345.085 728.632 288.718 739.991 195.141 754.633C174.983 757.788 128.59 743.033 85.2295 733.151C41.0612 723.087 18.0831 787.807 -22.4702 773.834C-88.4182 751.11 -71.0878 628.487 -116.14 577.158C-177.467 507.284 -290.062 498.703 -290.062 398.426C-290.062 362.911 -206.337 335.748 -276.652 295.731C-310.707 276.352 -228.928 251.609 -218.712 214.764C-178.615 70.1291 -84.0748 192.994 -14.4621 160.108C36.9065 135.842 -76.5037 -8.77942 106.91 1.45657C184.752 5.79991 231.178 70.9236 292.518 109.749C338.18 138.653 434.491 114.37 465.017 158.866C508.798 222.682 255.285 398.426 462.104 398.426Z" stroke="white" stroke-width="1.87681" stroke-miterlimit="10"/>
</g>
<defs>
<clipPath id="clip0_328_7597">
<rect width="812" height="776.76" fill="white" transform="translate(-291)"/>
</clipPath>
</defs>
</svg>
