<svg width="127" height="127" viewBox="0 0 127 127" fill="none" xmlns="http://www.w3.org/2000/svg">
<path d="M63.5 127C28.4768 127 0 98.5232 0 63.5C0 28.4768 28.4768 0 63.5 0C98.5232 0 127 28.4768 127 63.5C127 98.5232 98.5232 127 63.5 127ZM63.5 6.54639C32.0773 6.54639 6.54639 32.0773 6.54639 63.5C6.54639 94.9227 32.0773 120.454 63.5 120.454C94.9227 120.454 120.454 94.9227 120.454 63.5C120.454 32.0773 94.9227 6.54639 63.5 6.54639Z" fill="#1A0F91"/>
<path d="M58.9166 83.1393C58.262 83.1393 57.28 82.812 56.6254 82.4847C51.0609 77.5749 41.5687 69.0646 40.2594 67.428C39.2774 65.7914 39.6047 63.8275 41.2413 62.8455C42.8779 61.8636 44.8419 62.1909 45.8238 63.8275C46.8058 64.8094 52.6975 70.3739 58.9166 75.9383L90.9939 45.4976C92.3032 44.1883 94.2671 44.1883 95.5764 45.4976C96.8857 46.8069 96.8857 48.7708 95.5764 50.0801L61.2078 82.4847C60.5532 82.812 59.5712 83.1393 58.9166 83.1393Z" fill="#1A0F91"/>
</svg>
