<svg width="19" height="18" viewBox="0 0 19 18" fill="none" xmlns="http://www.w3.org/2000/svg">
<ellipse cx="9.39484" cy="8.87237" rx="8.82062" ry="8.82061" fill="#F2F2F2"/>
<g clip-path="url(#clip0_145_3007)">
<path d="M13.4879 9.27325C13.4879 9.4301 13.3608 9.55725 13.2039 9.55725C13.0471 9.55725 12.9199 9.4301 12.9199 9.27325C12.9199 9.11641 13.0471 8.98926 13.2039 8.98926V8.98926C13.3608 8.98926 13.4879 9.11641 13.4879 9.27325" stroke="#DCD9D9" stroke-width="1.5" stroke-linecap="round" stroke-linejoin="round"/>
<path d="M10.0797 9.27325C10.0797 9.4301 9.95256 9.55725 9.79572 9.55725C9.63887 9.55725 9.51172 9.4301 9.51172 9.27325C9.51172 9.11641 9.63887 8.98926 9.79572 8.98926V8.98926C9.95256 8.98926 10.0797 9.11641 10.0797 9.27325" stroke="#DCD9D9" stroke-width="1.5" stroke-linecap="round" stroke-linejoin="round"/>
<path d="M6.67151 9.27325C6.67151 9.4301 6.54436 9.55725 6.38751 9.55725C6.23067 9.55725 6.10352 9.4301 6.10352 9.27325C6.10352 9.11641 6.23067 8.98926 6.38751 8.98926V8.98926C6.54436 8.98926 6.67151 9.11641 6.67151 9.27325" stroke="#DCD9D9" stroke-width="1.5" stroke-linecap="round" stroke-linejoin="round"/>
</g>
<defs>
<clipPath id="clip0_145_3007">
<rect width="13.6318" height="13.6319" fill="white" transform="translate(2.98047 2.45703)"/>
</clipPath>
</defs>
</svg>
