<svg width="688" height="482" viewBox="0 0 688 482" fill="none" xmlns="http://www.w3.org/2000/svg">
<g clip-path="url(#clip0_769_9737)">
<path d="M305.99 257.855C304.231 257.855 302.809 256.291 302.809 254.355V203.81C302.809 201.875 304.231 200.31 305.99 200.31C307.75 200.31 309.172 201.875 309.172 203.81V254.355C309.172 256.291 307.75 257.855 305.99 257.855Z" fill="#B7C7FF"/>
<path d="M291.045 249.951C289.286 249.951 287.863 248.386 287.863 246.451V211.715C287.863 209.779 289.286 208.215 291.045 208.215C292.805 208.215 294.227 209.779 294.227 211.715V246.451C294.227 248.386 292.805 249.951 291.045 249.951Z" fill="#B7C7FF"/>
<path d="M320.928 249.951C319.168 249.951 317.746 248.386 317.746 246.451V211.715C317.746 209.779 319.168 208.215 320.928 208.215C322.688 208.215 324.11 209.779 324.11 211.715V246.451C324.11 248.386 322.688 249.951 320.928 249.951Z" fill="#B7C7FF"/>
<path d="M335.865 242.858C334.106 242.858 332.684 241.293 332.684 239.358V218.82C332.684 216.884 334.106 215.32 335.865 215.32C337.625 215.32 339.047 216.884 339.047 218.82V239.358C339.047 241.293 337.625 242.858 335.865 242.858Z" fill="#B7C7FF"/>
<path d="M574.94 257.855C573.18 257.855 571.758 256.291 571.758 254.355V203.81C571.758 201.875 573.18 200.31 574.94 200.31C576.699 200.31 578.122 201.875 578.122 203.81V254.355C578.122 256.291 576.699 257.855 574.94 257.855Z" fill="#B7C7FF"/>
<path d="M560.002 249.951C558.243 249.951 556.82 248.386 556.82 246.451V211.715C556.82 209.779 558.243 208.215 560.002 208.215C561.762 208.215 563.184 209.779 563.184 211.715V246.451C563.184 248.386 561.762 249.951 560.002 249.951Z" fill="#B7C7FF"/>
<path d="M589.885 249.951C588.126 249.951 586.703 248.386 586.703 246.451V211.715C586.703 209.779 588.126 208.215 589.885 208.215C591.645 208.215 593.067 209.779 593.067 211.715V246.451C593.067 248.386 591.645 249.951 589.885 249.951Z" fill="#B7C7FF"/>
<path d="M604.823 242.858C603.063 242.858 601.641 241.293 601.641 239.358V218.82C601.641 216.884 603.063 215.32 604.823 215.32C606.582 215.32 608.004 216.884 608.004 218.82V239.358C608.004 241.293 606.582 242.858 604.823 242.858Z" fill="#B7C7FF"/>
<path d="M350.807 249.302C349.047 249.302 347.625 247.737 347.625 245.802V212.376C347.625 210.44 349.047 208.875 350.807 208.875C352.566 208.875 353.989 210.44 353.989 212.376V245.802C353.989 247.737 352.566 249.302 350.807 249.302Z" fill="#B7C7FF"/>
<path d="M365.744 256.604C363.985 256.604 362.562 255.039 362.562 253.104V205.074C362.562 203.138 363.985 201.574 365.744 201.574C367.504 201.574 368.926 203.138 368.926 205.074V253.104C368.926 255.039 367.504 256.604 365.744 256.604Z" fill="#B7C7FF"/>
<path d="M380.698 265.354C378.938 265.354 377.516 263.789 377.516 261.854V196.311C377.516 194.376 378.938 192.811 380.698 192.811C382.457 192.811 383.879 194.376 383.879 196.311V261.854C383.879 263.789 382.457 265.354 380.698 265.354Z" fill="#B7C7FF"/>
<path d="M395.639 256.975C393.879 256.975 392.457 255.41 392.457 253.475V204.691C392.457 202.756 393.879 201.191 395.639 201.191C397.398 201.191 398.821 202.756 398.821 204.691V253.475C398.821 255.41 397.398 256.975 395.639 256.975Z" fill="#B7C7FF"/>
<path d="M410.576 249.117C408.817 249.117 407.395 247.552 407.395 245.617V212.561C407.395 210.626 408.817 209.061 410.576 209.061C412.336 209.061 413.758 210.626 413.758 212.561V245.617C413.758 247.552 412.336 249.117 410.576 249.117Z" fill="#B7C7FF"/>
<path d="M425.518 244.91C423.758 244.91 422.336 243.345 422.336 241.409V216.757C422.336 214.821 423.758 213.257 425.518 213.257C427.277 213.257 428.7 214.821 428.7 216.757V241.409C428.7 243.345 427.277 244.91 425.518 244.91Z" fill="#B7C7FF"/>
<path d="M440.463 257.519C438.704 257.519 437.281 255.955 437.281 254.019V204.158C437.281 202.223 438.704 200.658 440.463 200.658C442.223 200.658 443.645 202.223 443.645 204.158V254.019C443.645 255.955 442.223 257.519 440.463 257.519Z" fill="#B7C7FF"/>
<path d="M500.233 257.519C498.473 257.519 497.051 255.955 497.051 254.019V204.158C497.051 202.223 498.473 200.658 500.233 200.658C501.992 200.658 503.415 202.223 503.415 204.158V254.019C503.415 255.955 501.992 257.519 500.233 257.519Z" fill="#B7C7FF"/>
<path d="M455.401 265.354C453.641 265.354 452.219 263.789 452.219 261.854V196.311C452.219 194.376 453.641 192.811 455.401 192.811C457.16 192.811 458.583 194.376 458.583 196.311V261.854C458.583 263.789 457.16 265.354 455.401 265.354Z" fill="#B7C7FF"/>
<path d="M470.354 278.614C468.594 278.614 467.172 277.049 467.172 275.113V183.052C467.172 181.117 468.594 179.552 470.354 179.552C472.113 179.552 473.536 181.117 473.536 183.052V275.113C473.536 277.049 472.113 278.614 470.354 278.614Z" fill="#B7C7FF"/>
<path d="M485.287 265.354C483.528 265.354 482.105 263.789 482.105 261.854V196.311C482.105 194.376 483.528 192.811 485.287 192.811C487.047 192.811 488.469 194.376 488.469 196.311V261.854C488.469 263.789 487.047 265.354 485.287 265.354Z" fill="#B7C7FF"/>
<path d="M515.174 244.909C513.415 244.909 511.992 243.345 511.992 241.409V216.757C511.992 214.821 513.415 213.257 515.174 213.257C516.934 213.257 518.356 214.821 518.356 216.757V241.409C518.356 243.345 516.934 244.909 515.174 244.909Z" fill="#B7C7FF"/>
<path d="M545.049 244.91C543.29 244.91 541.867 243.345 541.867 241.409V216.757C541.867 214.821 543.29 213.257 545.049 213.257C546.809 213.257 548.231 214.821 548.231 216.757V241.409C548.231 243.345 546.809 244.91 545.049 244.91Z" fill="#B7C7FF"/>
<path d="M530.112 240.795C528.352 240.795 526.93 239.23 526.93 237.295V220.871C526.93 218.936 528.352 217.371 530.112 217.371C531.871 217.371 533.293 218.936 533.293 220.871V237.295C533.293 239.23 531.871 240.795 530.112 240.795Z" fill="#B7C7FF"/>
<path d="M276.096 244.909C274.336 244.909 272.914 243.345 272.914 241.409V216.757C272.914 214.821 274.336 213.257 276.096 213.257C277.856 213.257 279.278 214.821 279.278 216.757V241.409C279.278 243.345 277.856 244.909 276.096 244.909Z" fill="#B7C7FF"/>
<path d="M81.5569 256.735C79.7974 256.735 78.375 255.17 78.375 253.235V202.69C78.375 200.754 79.7974 199.19 81.5569 199.19C83.3165 199.19 84.7388 200.754 84.7388 202.69V253.235C84.7388 255.17 83.3165 256.735 81.5569 256.735Z" fill="#B7C7FF"/>
<path d="M66.6155 248.831C64.856 248.831 63.4336 247.266 63.4336 245.33V210.594C63.4336 208.659 64.856 207.094 66.6155 207.094C68.375 207.094 69.7974 208.659 69.7974 210.594V245.33C69.7974 247.266 68.375 248.831 66.6155 248.831Z" fill="#B7C7FF"/>
<path d="M96.4983 248.831C94.7388 248.831 93.3164 247.266 93.3164 245.33V210.594C93.3164 208.659 94.7388 207.094 96.4983 207.094C98.2579 207.094 99.6802 208.659 99.6802 210.594V245.33C99.6802 247.266 98.2579 248.831 96.4983 248.831Z" fill="#B7C7FF"/>
<path d="M111.44 241.738C109.68 241.738 108.258 240.173 108.258 238.237V217.699C108.258 215.764 109.68 214.199 111.44 214.199C113.199 214.199 114.622 215.764 114.622 217.699V238.237C114.622 240.173 113.199 241.738 111.44 241.738Z" fill="#B7C7FF"/>
<path d="M350.514 256.735C348.754 256.735 347.332 255.17 347.332 253.235V202.69C347.332 200.754 348.754 199.19 350.514 199.19C352.273 199.19 353.696 200.754 353.696 202.69V253.235C353.696 255.17 352.273 256.735 350.514 256.735Z" fill="#B7C7FF"/>
<path d="M335.576 248.831C333.817 248.831 332.395 247.266 332.395 245.33V210.594C332.395 208.659 333.817 207.094 335.576 207.094C337.336 207.094 338.758 208.659 338.758 210.594V245.33C338.758 247.266 337.336 248.831 335.576 248.831Z" fill="#B7C7FF"/>
<path d="M365.451 248.831C363.692 248.831 362.27 247.266 362.27 245.33V210.594C362.27 208.659 363.692 207.094 365.451 207.094C367.211 207.094 368.633 208.659 368.633 210.594V245.33C368.633 247.266 367.211 248.831 365.451 248.831Z" fill="#B7C7FF"/>
<path d="M380.405 241.738C378.645 241.738 377.223 240.173 377.223 238.237V217.699C377.223 215.764 378.645 214.199 380.405 214.199C382.164 214.199 383.586 215.764 383.586 217.699V238.237C383.586 240.173 382.164 241.738 380.405 241.738Z" fill="#B7C7FF"/>
<path d="M126.389 248.182C124.629 248.182 123.207 246.617 123.207 244.681V211.255C123.207 209.32 124.629 207.755 126.389 207.755C128.148 207.755 129.571 209.32 129.571 211.255V244.681C129.571 246.617 128.148 248.182 126.389 248.182Z" fill="#B7C7FF"/>
<path d="M141.326 255.484C139.567 255.484 138.145 253.919 138.145 251.983V203.954C138.145 202.018 139.567 200.453 141.326 200.453C143.086 200.453 144.508 202.018 144.508 203.954V251.983C144.508 253.919 143.086 255.484 141.326 255.484Z" fill="#B7C7FF"/>
<path d="M156.272 264.245C154.512 264.245 153.09 262.681 153.09 260.745V195.203C153.09 193.267 154.512 191.702 156.272 191.702C158.031 191.702 159.454 193.267 159.454 195.203V260.745C159.454 262.681 158.031 264.245 156.272 264.245Z" fill="#B7C7FF"/>
<path d="M171.209 255.855C169.45 255.855 168.027 254.29 168.027 252.354V203.571C168.027 201.636 169.45 200.071 171.209 200.071C172.969 200.071 174.391 201.636 174.391 203.571V252.354C174.391 254.29 172.969 255.855 171.209 255.855Z" fill="#B7C7FF"/>
<path d="M186.155 247.996C184.395 247.996 182.973 246.432 182.973 244.496V211.441C182.973 209.505 184.395 207.941 186.155 207.941C187.914 207.941 189.336 209.505 189.336 211.441V244.496C189.336 246.432 187.914 247.996 186.155 247.996Z" fill="#B7C7FF"/>
<path d="M201.088 243.79C199.329 243.79 197.906 242.225 197.906 240.289V215.637C197.906 213.701 199.329 212.137 201.088 212.137C202.848 212.137 204.27 213.701 204.27 215.637V240.289C204.27 242.225 202.848 243.79 201.088 243.79Z" fill="#B7C7FF"/>
<path d="M216.045 256.399C214.286 256.399 212.863 254.834 212.863 252.899V203.038C212.863 201.102 214.286 199.538 216.045 199.538C217.805 199.538 219.227 201.102 219.227 203.038V252.899C219.227 254.834 217.805 256.399 216.045 256.399Z" fill="#B7C7FF"/>
<path d="M275.803 256.399C274.043 256.399 272.621 254.834 272.621 252.899V203.038C272.621 201.102 274.043 199.538 275.803 199.538C277.563 199.538 278.985 201.102 278.985 203.038V252.899C278.985 254.834 277.563 256.399 275.803 256.399Z" fill="#B7C7FF"/>
<path d="M230.983 264.245C229.223 264.245 227.801 262.681 227.801 260.745V195.203C227.801 193.267 229.223 191.702 230.983 191.702C232.742 191.702 234.165 193.267 234.165 195.203V260.745C234.165 262.681 232.742 264.245 230.983 264.245Z" fill="#B7C7FF"/>
<path d="M245.92 277.493C244.161 277.493 242.738 275.929 242.738 273.993V181.932C242.738 179.997 244.161 178.432 245.92 178.432C247.68 178.432 249.102 179.997 249.102 181.932V273.993C249.102 275.929 247.68 277.493 245.92 277.493Z" fill="#B7C7FF"/>
<path d="M260.866 264.245C259.106 264.245 257.684 262.681 257.684 260.745V195.203C257.684 193.267 259.106 191.702 260.866 191.702C262.625 191.702 264.047 193.267 264.047 195.203V260.745C264.047 262.681 262.625 264.245 260.866 264.245Z" fill="#B7C7FF"/>
<path d="M290.741 243.79C288.981 243.79 287.559 242.225 287.559 240.289V215.637C287.559 213.701 288.981 212.137 290.741 212.137C292.5 212.137 293.922 213.701 293.922 215.637V240.289C293.922 242.225 292.5 243.79 290.741 243.79Z" fill="#B7C7FF"/>
<path d="M320.631 243.79C318.872 243.79 317.449 242.225 317.449 240.289V215.637C317.449 213.701 318.872 212.137 320.631 212.137C322.391 212.137 323.813 213.701 323.813 215.637V240.289C323.813 242.225 322.391 243.79 320.631 243.79Z" fill="#B7C7FF"/>
<path d="M305.694 239.675C303.934 239.675 302.512 238.11 302.512 236.174V219.751C302.512 217.815 303.934 216.251 305.694 216.251C307.453 216.251 308.876 217.815 308.876 219.751V236.174C308.876 238.11 307.453 239.675 305.694 239.675Z" fill="#B7C7FF"/>
<path d="M51.678 243.789C49.9185 243.789 48.4961 242.224 48.4961 240.289V215.636C48.4961 213.701 49.9185 212.136 51.678 212.136C53.4375 212.136 54.8599 213.701 54.8599 215.636V240.289C54.8599 242.224 53.4375 243.789 51.678 243.789Z" fill="#B7C7FF"/>
<path d="M545.692 453.188H402.586V481.017H545.692V453.188Z" fill="#2F2259"/>
<path d="M516.167 194.49C524.429 180.696 532.722 159.886 532.329 151.114C531.935 142.326 524.823 131.921 508.147 122.907C513.186 120.003 514.805 117.81 510.493 115.859C506.18 113.893 494.029 110.173 476.778 110.369C480.107 104.607 478.548 102.731 469.333 104.879C460.117 107.042 431.638 110.142 435.693 139.71C438.569 160.612 467.774 191.072 488.354 195.201C508.934 199.329 516.167 194.49 516.167 194.49Z" fill="#2F2259"/>
<path d="M446.319 145.049C443.928 144.761 442.93 140.118 442.93 138.455C442.93 136.549 442.899 133.479 443.111 132.178C440.463 134.326 435.257 137.623 431.898 152.354C428.327 168.083 425.724 194.974 428.962 205.772C433.063 219.46 454.929 221.925 464.765 222.893C463.873 232.466 464.644 239.923 458.183 240.195C458.44 250.116 450.708 264.666 464.781 268.674C478.854 272.666 511.04 257.391 515.217 240.875C508.21 238.38 503.716 236.52 503.716 225.161C503.716 218.628 504.881 210.96 504.881 210.96C504.881 210.96 508.286 209.75 511.963 204.472C518.621 194.883 518.5 180.833 508.861 177.354C501.355 174.662 496.044 178.987 493.487 185.037C492.488 187.396 489.461 188.727 487.464 186.67C485.905 185.067 486.193 182.617 486.178 180.575C486.147 178.095 484.937 176.885 483.197 175.221C476.327 168.612 473.905 157.783 477.31 148.89C478.415 146.002 480.064 143.34 481.411 140.557C482.183 138.969 482.833 137.048 481.971 135.521C481.532 134.749 480.775 134.22 480.004 133.781C469.169 127.535 455.156 135.233 447.984 143.748C447.484 144.338 447.045 145.185 446.289 145.079L446.319 145.049Z" fill="#FBC8C7"/>
<path d="M464.763 222.908C472.813 222.757 479.335 221.018 488.596 210.99C486.977 222.953 477.67 229.321 464.309 229.079L464.763 222.893V222.908Z" fill="url(#paint0_linear_769_9737)"/>
<path d="M504.896 210.96C498.268 213.032 493.698 210.053 492.472 206.544C491.609 210.431 498.101 215.89 504.896 210.96Z" fill="#FB929C"/>
<path d="M511.735 186.686C510.616 184.674 507.725 184.402 505.713 184.901C503.67 185.415 501.839 186.625 500.462 188.198C499.191 189.65 498.298 191.419 497.859 193.295C497.435 195.049 497.193 197.53 498.389 199.042C498.555 199.254 498.979 199.345 499.054 198.997C499.236 198.18 499.054 197.273 499.054 196.441C499.054 195.594 499.145 194.762 499.327 193.945C499.69 192.312 500.431 190.739 501.476 189.423C501.566 189.317 501.657 189.226 501.748 189.121C501.748 189.121 501.748 189.121 501.763 189.136C503.11 190.194 504.275 191.465 505.047 193.008C505.834 194.611 506.061 196.41 506.015 198.18C506.015 198.301 506.182 198.573 506.303 198.392C507.423 196.683 507.059 194.323 506.257 192.554C505.471 190.815 504.199 189.332 502.747 188.122C503.609 187.381 504.593 186.761 505.682 186.398C507.665 185.718 509.541 186.171 511.342 187.124C511.66 187.291 511.932 186.973 511.75 186.67L511.735 186.686Z" fill="#FB929C"/>
<path d="M485.208 176.023C485.163 184.009 481.607 189.181 475.191 193.386C470.136 196.698 463.297 195.443 456.714 191.964C451.963 189.453 447.166 188.758 441.324 188.289C436.437 187.896 430.142 189.06 427.372 191.51C426.026 196.395 425.995 211.731 431.201 216.783C436.406 221.834 446.681 224.436 459.408 224.133C472.134 223.831 483.029 220.004 487.145 213.546C494.303 202.324 491.866 188.667 493.803 184.341L485.208 176.008V176.023Z" fill="#2F2259"/>
<path d="M444.682 161.625C444.485 163.153 443.85 164.635 443.365 166.087C442.881 167.584 442.382 169.066 441.898 170.563C440.959 173.482 440.112 176.447 439.34 179.411C438.977 180.818 438.538 182.239 438.311 183.676C438.069 185.173 438.432 186.368 439.84 187.079C441.111 187.714 442.594 188.017 443.986 188.198C444.727 188.304 445.484 188.349 446.241 188.334C446.77 188.334 447.391 188.198 447.89 188.41C448.087 188.486 448.011 188.818 447.845 188.909C446.997 189.317 445.953 189.257 445.045 189.242C443.713 189.211 442.397 189.03 441.126 188.667C439.098 188.107 437.055 187.155 437.07 184.75C437.07 183.646 437.403 182.557 437.676 181.498C438.009 180.152 438.372 178.791 438.735 177.46C439.446 174.889 440.233 172.318 441.065 169.777C441.973 166.994 442.866 164.015 444.379 161.504C444.485 161.323 444.697 161.459 444.667 161.625H444.682Z" fill="#FB929C"/>
<path d="M454.913 196.516C454.399 196.667 453.96 197 453.46 197.197C452.885 197.424 452.28 197.59 451.69 197.756C450.752 198.014 449.768 198.165 448.8 198.21C447.907 198.256 447.014 198.195 446.152 198.044C445.667 197.968 445.213 197.968 444.85 198.316C444.472 198.679 444.714 199.208 445.092 199.465C445.486 199.723 446.091 199.738 446.56 199.798C446.984 199.844 447.408 199.874 447.831 199.889C448.739 199.904 449.662 199.859 450.555 199.677C451.478 199.496 452.371 199.239 453.218 198.83C453.748 198.588 454.262 198.286 454.716 197.908C454.989 197.681 455.458 197.318 455.413 196.909C455.382 196.683 455.186 196.441 454.943 196.501L454.913 196.516Z" fill="#FB929C"/>
<path d="M523.888 141.737C521.678 139.922 519.091 138.53 516.518 137.275C514.006 136.065 511.419 135.037 508.755 134.19C503.55 132.541 498.057 131.573 492.594 131.498C489.492 131.452 486.132 131.467 483.121 132.299C482.955 132.345 482.985 132.692 483.166 132.692C485.815 132.632 488.448 132.329 491.111 132.36C493.835 132.39 496.543 132.571 499.237 132.965C504.73 133.751 510.102 135.309 515.141 137.608C518.137 138.969 520.876 140.708 523.751 142.296C524.115 142.493 524.099 141.933 523.888 141.752V141.737Z" fill="#6565C2"/>
<path d="M526.749 151.537C519.032 142.871 507.592 137.729 496.152 136.504C494.578 136.337 492.989 136.262 491.4 136.262C489.781 136.262 488.041 136.247 486.452 136.655C486.285 136.7 486.301 137.094 486.482 137.094C487.965 137.184 489.448 137.048 490.931 137.063C492.369 137.078 493.806 137.169 495.244 137.29C498.089 137.562 500.903 138.046 503.672 138.788C509.105 140.239 514.31 142.599 518.971 145.73C521.695 147.56 524.222 149.571 526.628 151.809C526.749 151.93 526.825 151.613 526.749 151.522V151.537Z" fill="#6565C2"/>
<path d="M518.804 160.627C516.277 156.256 512.584 152.475 508.62 149.39C504.489 146.183 499.798 143.657 494.834 141.979C492.171 141.086 489.341 140.27 486.526 140.149C486.269 140.149 486.33 140.587 486.526 140.633C489.069 141.222 491.611 141.706 494.108 142.508C496.514 143.295 498.859 144.278 501.099 145.427C505.563 147.726 509.634 150.751 513.175 154.32C515.187 156.347 516.927 158.555 518.622 160.839C518.743 161.005 518.849 160.718 518.789 160.612L518.804 160.627Z" fill="#6565C2"/>
<path d="M266.424 366.164C264.442 368.72 262.929 373.257 262.596 378.218C262.127 385.251 263.277 390.438 265.516 397.123C265.516 397.123 267.816 397.199 270.919 397.199C274.021 397.199 275.746 397.834 277.198 398.288C281.042 399.498 282.132 400.662 285.446 402.961C288.427 405.033 312.26 416.815 316.739 417.601C320.78 418.312 322.853 418.902 325.062 418.66C328.346 418.297 333.173 416.694 330.283 411.9C335.715 415.136 341.829 413.23 341.405 408.043C344.31 410.493 349.319 410.795 351.907 407.967C353.011 406.727 352.421 404.322 351.831 402.825C343.327 380.91 338.394 381.092 314.848 370.384C307.085 366.845 301.486 364.969 293.42 364.833C286.671 364.712 270.177 365.362 266.439 366.164H266.424Z" fill="#9E5959"/>
<path d="M312.502 418.267C313.546 417.768 314.605 417.238 315.407 416.422C316.209 415.59 316.724 414.38 316.421 413.276C315.498 409.843 310.413 410.342 307.795 410.675C308.28 410.191 308.779 409.691 309.263 409.207C310.156 408.315 311.094 407.287 311.109 406.031C311.109 405.063 310.534 404.171 309.763 403.596C308.991 403.022 308.038 402.749 307.084 402.583C306.086 402.402 305.056 402.356 304.043 402.402C303.846 402.402 302.181 402.432 302.151 402.477C302.953 401.615 303.695 400.677 304.073 399.558C305.072 396.579 302.302 394.295 299.458 394.461C297.959 394.552 296.552 395.172 295.22 395.823C290.953 397.925 285.96 400.481 283.448 404.655C282.751 405.805 282.222 407.362 283.069 408.527C284.007 409.828 285.642 410.584 287.2 410.826C289.213 411.143 291.241 410.735 293.238 410.342C292.315 411.355 292.179 412.943 292.724 414.198C294.101 417.39 298.141 417.087 301.046 416.679C300.774 417.556 301.334 418.524 302.121 419.008C305.465 421.065 309.263 419.825 312.517 418.252L312.502 418.267Z" fill="#FBC8C7"/>
<path d="M340.286 364.334C334.263 362.534 328.316 360.266 322.066 359.524C320.205 359.298 318.298 359.222 316.513 359.766C314.561 360.356 312.911 361.627 311.337 362.927C306.102 367.253 301.32 372.123 297.068 377.431C296.826 377.749 296.568 378.067 296.432 378.43C296.129 379.277 296.493 380.26 297.158 380.88C297.824 381.485 298.717 381.787 299.61 381.923C303.378 382.528 307.146 380.774 310.233 378.536C312.018 377.235 313.744 375.722 315.877 375.117C318.389 374.422 321.083 375.118 323.549 375.964C329.769 378.097 335.307 380.623 338.939 383.345C340.679 384.646 343.433 388.835 346.263 393.418C348.079 396.367 351.816 402.81 351.816 402.81L366.919 397.153C366.011 389.924 365.088 382.664 363.483 375.556C362.908 373.015 361.335 365.907 361.335 365.907C361.335 365.907 356.644 366.451 353.874 366.255C349.925 365.982 344.069 365.468 340.286 364.334Z" fill="#FBC8C7"/>
<path d="M369.551 359.585L358.035 364.243L366.418 402.704L379.901 398.394L369.551 359.585Z" fill="url(#paint1_linear_769_9737)"/>
<path d="M409.094 337.852L365.906 359.524L376.907 403.173L407.051 392.813L409.094 337.852Z" fill="#386DF5"/>
<path d="M458.195 240.195L431.093 252.158C431.093 252.158 416.642 304.896 414.281 359.812C411.92 414.728 413.343 453.173 413.343 453.173C438.099 462.717 487.446 457.953 536.823 453.173V256.106L509.872 236.323C509.872 236.323 470.301 252.914 463.643 252.158C457 251.402 458.18 240.195 458.18 240.195H458.195Z" fill="url(#paint2_linear_769_9737)"/>
<path d="M458.197 240.195C449.421 251.341 440.402 264.409 433.168 294.158C425.935 323.907 421.88 371.185 421.88 395.656C421.88 420.127 421.078 461.023 421.078 461.023L402.586 453.173C403.797 403.717 406.687 327.976 418.989 275.298C423.756 254.88 428.22 249.118 440.629 243.008C453.037 236.898 461.859 233.828 461.859 233.828L458.197 240.195Z" fill="#2424B4"/>
<path d="M463.658 245.987L461.04 244.853C461.04 244.853 454.321 247.152 453.187 254.109C452.052 261.066 454.306 269.324 454.306 269.324L461.782 270.64C461.782 270.64 467.123 262.548 468.909 259.796C470.695 257.043 463.673 246.003 463.673 246.003L463.658 245.987Z" fill="#386DF5"/>
<path d="M454.292 269.324C446.907 289.923 428.461 362.186 429.127 373.499C429.793 384.827 434.06 422.774 439.417 423.772C444.774 424.77 456.668 386.476 457.894 378.158C459.104 369.839 461.752 270.625 461.752 270.625L454.277 269.309L454.292 269.324Z" fill="#386DF5"/>
<path d="M461.042 244.853C461.648 240.316 462.662 238.743 463.66 235.174C463.66 233.026 464.205 230.606 464.205 230.606C464.205 230.606 463.267 230.273 461.875 231.74C458.409 235.385 449.829 244.278 448.044 250.041C444.094 262.669 446.228 270.337 446.228 270.337C446.228 270.337 451.887 255.395 461.073 244.853H461.042Z" fill="#386DF5"/>
<path d="M463.66 245.987C463.66 245.987 487.267 243.885 503.897 220.654L504.094 217.977C504.094 217.977 506.394 216.526 507.196 220.049C507.998 223.573 521.254 236.338 521.254 236.338C521.254 236.338 505.773 266.632 469.758 274.3C469.274 259.917 463.66 245.987 463.66 245.987Z" fill="#386DF5"/>
<path d="M512.566 230.168C510.524 239.046 494.619 254.971 483.815 286.596C473.01 318.221 469.939 335.432 468.319 378.082C466.806 417.889 469.061 462.823 469.061 462.823L545.691 453.189C545.691 453.189 537.096 390.333 539.048 362.928C541 335.523 545.116 245.988 545.116 245.988C545.116 245.988 525.232 241.284 512.581 230.168H512.566Z" fill="#2424B4"/>
<path d="M514.217 241.284C514.338 246.91 514.55 258.162 514.626 263.789C508.149 270.67 501.037 277.325 494.273 284.055L494.47 283.601C494.197 297.818 493.471 326.418 493.032 340.619C485.844 353.324 477.733 365.786 472.059 379.322C476.946 366.134 485.299 351.69 491.791 340.589C492.064 326.236 492.76 297.652 493.183 283.299C499.781 277.053 507.831 268.991 513.824 263.774C513.899 258.193 514.111 246.865 514.232 241.269L514.217 241.284Z" fill="#223F7F"/>
<path d="M545.119 245.988C555.666 250.827 563.187 260.749 567.787 274.3C572.387 287.851 595.994 366.89 598.748 377.008C601.502 387.126 603.953 395.702 591.696 413.775C579.439 431.848 553.139 481.017 553.139 481.017H504.73C504.73 481.017 529.094 420.959 534.314 409.933C539.52 398.908 540.655 386.128 532.529 361.642C525.265 339.757 521.376 326.176 519.802 315.453C518.229 304.73 523.525 261.792 545.104 245.988H545.119Z" fill="#2424B4"/>
<path d="M226.383 260.613C240.093 264.59 244.36 272.893 247.447 284.267C250.534 295.64 253.651 317.298 253.651 317.298L226.398 260.613H226.383Z" fill="#5586FC"/>
<path d="M114.42 203.141C111.545 205.652 109.335 208.691 108.337 212.17C107.141 216.344 107.353 220.791 107.943 225.101C108.518 229.321 109.396 233.828 107.52 237.639C105.008 242.766 98.6672 244.521 94.1729 248.045C88.9371 252.143 86.1679 259.176 87.1969 265.74C88.2864 272.712 93.2044 278.792 93.4768 285.825C93.7492 293.054 91.9333 300.631 96.1401 307.195C100.301 313.699 106.945 317.283 114.511 318.811C127.888 321.503 136.407 310.25 148.135 306.862C160.483 303.293 174.405 310.643 186.132 304.064C190.43 301.645 193.653 297.38 194.773 292.57C195.726 288.547 195.272 284.237 196.71 280.365C199.116 273.922 205.971 270.413 210.344 265.105C216.563 257.558 217.259 246.411 213.612 237.337C209.966 228.262 202.536 221.108 194.167 216.042C185.799 210.96 176.463 207.754 167.217 204.563C156.609 200.918 145.82 195.503 134.38 195.518C127.873 195.518 119.913 198.331 114.405 203.141H114.42Z" fill="#2F2259"/>
<path opacity="0.3" d="M105.628 289.046C105.931 286.853 106.218 284.615 105.901 282.391C105.659 280.743 105.083 279.185 104.357 277.688C102.753 274.406 100.392 271.442 99.3483 267.902C98.1983 264.031 98.97 259.72 101.316 256.453C104.947 251.387 111.197 249.133 115.6 244.899C117.825 242.751 119.459 240.119 119.943 237.019C120.473 233.631 119.838 230.198 119.157 226.886C118.37 223.014 117.386 219.006 118.188 215.059C119.172 210.249 123.182 207.194 127.555 205.546C127.706 205.485 127.631 205.092 127.464 205.137C123.953 206.135 120.549 208.192 118.612 211.368C116.751 214.393 116.614 217.917 117.038 221.365C117.885 228.307 121.063 236.021 116.236 242.237C112.256 247.334 105.659 249.466 101.331 254.23C98.8187 256.998 97.366 260.552 97.5324 264.318C97.6989 268.265 99.772 271.578 101.785 274.844C102.92 276.674 104.024 278.565 104.645 280.637C105.432 283.253 105.159 285.961 104.811 288.623C104.251 292.842 103.676 297.531 106.672 301.024C106.96 301.357 107.096 300.813 106.914 300.571C104.418 297.289 105.099 292.842 105.628 289.061V289.046ZM127.51 230.712C126.087 225.993 124.922 220.14 128.16 215.89C128.206 215.83 128.16 215.648 128.085 215.739C125.225 218.976 125.346 223.392 126.148 227.4C127.146 232.391 129.674 237.473 128.645 242.66C127.025 250.797 117.25 252.461 113.346 259.025C110.425 263.955 112.12 269.884 114.39 274.693C114.466 274.844 114.587 274.678 114.541 274.557C112.816 270.126 111.651 264.696 113.921 260.235C115.616 256.907 118.93 254.82 121.88 252.718C124.756 250.676 127.706 248.377 128.932 244.929C130.581 240.286 128.872 235.204 127.525 230.712H127.51Z" fill="#9DC4FC"/>
<path d="M222.662 176.795C229.214 167.75 234.344 143.763 222.662 131.498C210.98 119.232 197.92 124.162 197.92 124.162C197.92 124.162 184.362 117.508 167.61 118.99C150.859 120.472 132.307 131.634 127.177 143.143C122.138 154.441 119.959 191.117 154.127 211.217L222.662 176.81V176.795Z" fill="#2F2259"/>
<path d="M202.778 144.913C204.882 143.083 206.682 140.89 208.181 138.531C212.569 142.327 216.972 151.658 219.711 162.85C223.449 178.065 225.658 194.626 225.673 203.867C225.673 211.247 225.174 213.577 224.357 216.632C221.209 228.247 209.542 231.393 200.281 231.363C200.69 242.827 200.856 256.136 207.318 255.97C213.477 268.447 235.752 300.42 221.981 305.365C208.211 310.311 154.128 270.791 148.832 254.593C155.565 247.848 158.546 244.43 157.23 233.147C156.186 224.194 154.158 211.202 154.158 211.202C154.158 211.202 145.699 213.955 138.557 205.41C131.066 196.456 129.674 184.447 139.041 180.319C146.335 177.112 153.114 182.965 156.08 188.849C157.23 191.132 160.362 192.252 162.208 190.059C163.646 188.35 163.192 185.93 163.071 183.888C162.935 181.408 164.055 180.122 165.674 178.337C169.321 174.314 170.758 169.051 168.867 163.848C167.717 160.687 164.039 155.848 165.477 152.324C166.446 149.964 169.533 149.435 172.06 149.617C180.488 150.221 189.25 152.142 197.3 148.497C199.313 147.59 201.144 146.365 202.809 144.913H202.778Z" fill="#9E5959"/>
<path d="M200.282 231.347C192.247 231.756 176.191 229.109 166.824 216.223C171.213 234.236 187.344 241.586 200.66 240.437L200.267 231.347H200.282Z" fill="#974747"/>
<path d="M150.117 211.61C157.018 210.854 160.014 206.287 159.726 202.581C162.087 205.803 158.334 213.395 150.117 211.61Z" fill="#431919"/>
<path d="M137.994 188.909C138.978 186.822 141.838 186.353 143.881 186.716C145.954 187.094 147.861 188.168 149.344 189.65C150.721 191.011 151.719 192.72 152.294 194.55C152.839 196.274 153.248 198.74 152.158 200.328C152.007 200.555 151.583 200.66 151.492 200.328C151.25 199.526 151.386 198.604 151.326 197.772C151.265 196.94 151.114 196.093 150.872 195.291C150.403 193.688 149.555 192.161 148.405 190.936C148.315 190.83 148.209 190.754 148.118 190.648C148.118 190.648 148.118 190.663 148.103 190.678C146.847 191.828 145.742 193.174 145.091 194.762C144.41 196.426 144.304 198.225 144.471 199.98C144.471 200.101 144.335 200.388 144.199 200.222C142.958 198.588 143.17 196.214 143.85 194.399C144.516 192.599 145.681 191.057 147.059 189.726C146.151 189.045 145.122 188.501 144.017 188.198C141.989 187.669 140.158 188.228 138.418 189.317C138.115 189.514 137.828 189.211 137.979 188.894L137.994 188.909Z" fill="#431919"/>
<path d="M204.822 172.409C205.216 173.906 206.033 175.282 206.683 176.674C207.364 178.095 208.045 179.517 208.711 180.939C210.012 183.721 211.223 186.535 212.373 189.393C212.918 190.739 213.523 192.1 213.932 193.492C214.371 194.944 214.144 196.184 212.842 197.061C211.662 197.847 210.224 198.331 208.862 198.694C208.136 198.891 207.395 199.027 206.653 199.118C206.139 199.178 205.488 199.133 205.019 199.405C204.837 199.511 204.943 199.829 205.125 199.889C206.018 200.177 207.047 199.995 207.954 199.859C209.271 199.662 210.557 199.315 211.768 198.8C213.705 197.984 215.611 196.789 215.294 194.399C215.142 193.31 214.688 192.267 214.28 191.238C213.78 189.938 213.251 188.652 212.706 187.366C211.662 184.901 210.572 182.466 209.407 180.046C208.151 177.4 206.895 174.571 205.064 172.257C204.943 172.091 204.746 172.257 204.792 172.424L204.822 172.409Z" fill="#431919"/>
<path d="M192.156 204.154C192.02 204.608 192.308 205.001 192.52 205.409C192.792 205.939 193.216 206.347 193.654 206.725C194.426 207.406 195.319 207.905 196.257 208.328C198.013 209.13 199.889 209.614 201.796 209.78C202.734 209.856 203.733 209.916 204.656 209.81C205.17 209.75 205.806 209.387 205.987 208.858C206.245 208.147 205.397 207.481 204.762 207.451C203.839 207.406 202.931 207.496 202.008 207.391C201.039 207.285 200.086 207.088 199.132 206.831C198.179 206.574 197.256 206.211 196.348 205.803C195.667 205.5 194.986 205.198 194.335 204.835C194.078 204.683 193.806 204.593 193.549 204.457C193.201 204.29 192.943 204.063 192.58 203.912C192.398 203.836 192.217 203.973 192.156 204.139V204.154Z" fill="#431919"/>
<path d="M112.74 453.189C108.08 465.212 106.566 481.017 106.566 481.017H265.411V453.189H112.74Z" fill="#223F7F"/>
<path d="M154.718 248.559L220.816 297.47L205.638 255.077L221.739 259.387C221.739 259.387 246.526 303.353 252.094 326.569C257.663 349.785 261.386 453.173 261.386 453.173C245.769 466.906 178.99 458.951 117.341 453.173C117.341 453.173 133.805 413.23 135.666 398.363C137.527 383.496 120.171 315.392 117.386 301.765C114.602 288.139 113.664 279.79 117.386 274.527C121.109 269.264 154.703 248.559 154.703 248.559H154.718Z" fill="url(#paint3_linear_769_9737)"/>
<path d="M261.066 445.052C245.692 450.663 225.097 450.209 222.343 445.385C218.817 439.214 222.343 423.802 222.343 423.802L259.281 406.727C258.948 400.511 258.585 394.038 258.176 387.565L179.412 395.611L135.649 392.178C135.831 394.719 135.846 396.851 135.649 398.379C133.788 413.246 117.324 453.189 117.324 453.189C178.958 458.966 245.752 466.921 261.369 453.189C261.369 453.189 261.263 450.179 261.051 445.067L261.066 445.052Z" fill="#B2D4FE"/>
<path d="M154.717 248.559C154.717 248.559 180.2 276.281 194.712 305.773C207.226 331.227 209.768 337.519 213.037 383.103C216.29 428.702 214.626 467.088 214.626 467.088C175.902 469.901 141.264 466.331 112.755 453.173C112.755 453.173 123.363 416.361 127.343 401.161C131.322 385.962 126.616 366.739 119.746 339.984C112.861 313.23 109.244 285.915 109.971 279.397C110.697 272.878 127.554 266.708 154.732 248.559H154.717Z" fill="url(#paint4_linear_769_9737)"/>
<path d="M205.636 255.092C221.949 273.695 239.26 305.123 243.149 328.081C247.038 351.04 250.216 463.685 250.216 463.685C258.176 461.325 264.168 458.195 265.409 453.189C265.409 453.189 260.884 362.338 258.055 335.507C255.225 308.677 226.383 260.628 226.383 260.628L205.621 255.092H205.636Z" fill="url(#paint5_linear_769_9737)"/>
<path d="M251.596 367.374L266.955 366.119C266.955 366.119 263.793 373.514 264.231 383.148C264.67 392.783 266.955 398.696 266.955 398.696L252.065 401.585C252.065 401.585 249.765 396.397 249.22 385.568C248.675 374.724 251.596 367.389 251.596 367.389V367.374Z" fill="url(#paint6_linear_769_9737)"/>
<path d="M112.575 275.419C106.265 281.847 105.66 291.663 112.575 326.267C119.491 360.871 141.947 405.517 145.897 414.425C149.846 423.318 155.793 428.597 174.255 424.634C192.716 420.687 254.365 404.156 254.365 404.156C250.628 393.04 249.508 378.853 251.732 366.633L186.452 375.193C186.452 375.193 175.708 332.241 171.864 319.219C164.358 293.81 140.555 259.267 112.575 275.404V275.419Z" fill="url(#paint7_linear_769_9737)"/>
<path d="M187.179 374.483C183.29 359.555 179.598 344.552 175.331 329.73C171.502 316.421 166.645 302.945 157.792 292.071C153.101 286.309 147.487 281.227 140.935 277.673C140.859 277.627 140.844 277.809 140.905 277.854C151.997 284.645 159.775 295.383 165.343 306.953C171.88 320.535 175.285 335.371 179.114 349.876C181.247 357.997 183.411 366.104 185.56 374.225C185.59 374.316 185.53 374.422 185.424 374.437C178.402 375.753 171.411 377.16 164.587 379.247C164.45 379.292 164.481 379.61 164.647 379.594C170.246 378.702 175.785 377.583 181.353 376.494C183.29 376.116 185.394 375.738 187.391 375.345C187.391 375.345 187.27 374.724 187.209 374.483H187.179Z" fill="#5586FC"/>
<path d="M212.161 371.836C211.056 371.836 189.251 373.953 185.422 374.437C185.074 374.482 186.754 375.466 187.026 375.42C188.494 375.178 212.176 371.836 212.161 371.836Z" fill="#5586FC"/>
<path d="M237.313 398.364C236.859 396.14 236.511 393.917 236.254 391.664C235.997 389.486 235.845 387.293 235.785 385.1C235.724 382.771 235.981 380.396 235.724 378.082C235.694 377.84 235.331 377.583 235.24 377.916C234.65 380.033 234.786 382.423 234.816 384.616C234.847 386.884 234.983 389.153 235.225 391.406C235.467 393.705 235.845 396.004 236.314 398.273C236.799 400.587 237.343 402.84 238.372 404.973C238.493 405.215 238.69 405.094 238.66 404.852C238.418 402.644 237.782 400.526 237.328 398.364H237.313Z" fill="#5586FC"/>
<path d="M315 453L322 464L328.5 453L339 458.5V496H315V453Z" fill="#E7E5E5"/>
</g>
<path d="M149.215 164.538C143.216 159.349 131.762 146.252 136.777 124.925C162.695 124.342 192.071 124.023 206.038 125.081C206.038 125.081 205.888 67.3793 210.551 44.304L77.9911 46.8817C77.9911 46.8817 91.8655 102.077 88.2703 126.365C88.2703 126.365 97.4697 126.016 110.895 125.612C113.452 135.763 121.969 158.026 148.405 166.001C149.288 166.266 149.913 165.142 149.215 164.538Z" fill="#5274C7"/>
<path d="M124.365 84.3913C124.4 81.4774 124.365 78.5978 124.258 75.7525C124.188 72.8729 123.798 70.0105 123.089 67.1651C122.911 66.5138 123 65.9824 123.355 65.5711C123.709 65.1254 124.134 64.834 124.631 64.6969C125.162 64.5598 125.677 64.5941 126.173 64.7997C126.669 65.0054 127.006 65.4339 127.183 66.0853C127.928 68.9992 128.335 71.9473 128.406 74.9298C128.477 77.8779 128.495 80.8604 128.459 83.8771C129.558 83.9799 130.657 84.0999 131.756 84.237C132.855 84.3399 133.954 84.4256 135.053 84.4941C136.152 84.5284 137.233 84.5284 138.297 84.4941C139.396 84.4256 140.477 84.2542 141.541 83.9799C141.824 83.8771 142.126 83.8599 142.445 83.9285C142.551 82.3859 142.693 80.8775 142.87 79.4034C143.047 77.8951 143.154 76.3696 143.189 74.8269C143.26 73.1814 143.225 71.5531 143.083 69.9419C142.941 68.3307 142.781 66.7023 142.604 65.0569C142.533 64.5084 142.728 64.0284 143.189 63.6171C143.65 63.2057 144.164 63 144.731 63C145.334 63 145.812 63.2057 146.167 63.6171C146.521 64.0284 146.734 64.5084 146.805 65.0569C146.982 66.7023 147.142 68.3307 147.284 69.9419C147.461 71.5531 147.514 73.1814 147.443 74.8269C147.372 76.4724 147.23 78.0836 147.018 79.6605C146.84 81.2032 146.716 82.7972 146.645 84.4427C146.468 87.1166 146.344 89.8077 146.273 92.5159C146.202 95.1898 146.256 97.8637 146.433 100.538C146.468 101.223 146.273 101.72 145.848 102.029C145.422 102.372 144.944 102.543 144.412 102.543C143.88 102.543 143.384 102.372 142.923 102.029C142.462 101.72 142.214 101.223 142.179 100.538C142.037 98.4808 141.966 96.4068 141.966 94.3156C142.001 92.2245 142.072 90.1334 142.179 88.0422C141.044 88.3165 139.91 88.4879 138.775 88.5564C137.641 88.5907 136.507 88.5907 135.372 88.5564C134.238 88.4879 133.086 88.4022 131.916 88.2993C130.781 88.1622 129.647 88.0422 128.513 87.9394C128.548 89.8591 128.637 91.7617 128.778 93.6472C128.956 95.5326 129.292 97.4181 129.789 99.3035C129.966 99.9548 129.877 100.503 129.523 100.949C129.204 101.36 128.778 101.635 128.247 101.772C127.75 101.909 127.236 101.875 126.705 101.669C126.208 101.463 125.889 101.035 125.747 100.383C125.145 98.1894 124.773 95.9954 124.631 93.8014C124.489 91.5732 124.4 89.3278 124.365 87.0652C124.081 86.6881 123.939 86.2425 123.939 85.7283C123.939 85.214 124.081 84.7684 124.365 84.3913Z" fill="white"/>
<path d="M152.708 101.412C152.991 99.7663 153.31 98.1551 153.665 96.5782C154.055 94.967 154.338 93.3386 154.516 91.6931C154.657 90.0819 154.675 88.505 154.569 86.9624C154.498 85.3854 154.604 83.7914 154.888 82.1802C154.959 81.6317 155.278 81.2203 155.845 80.9461C156.448 80.6718 156.997 80.6033 157.493 80.7404C158.096 80.9118 158.504 81.2375 158.716 81.7174C158.965 82.1973 159.053 82.7115 158.982 83.26C158.84 84.0485 158.77 84.8541 158.77 85.6768C158.805 86.4996 158.84 87.3223 158.876 88.1451C158.876 89.722 158.77 91.2989 158.557 92.8758C158.344 94.5213 158.061 96.1325 157.706 97.7094C157.387 99.2864 157.086 100.88 156.802 102.492C156.696 103.04 156.359 103.452 155.792 103.726C155.225 104 154.693 104.069 154.196 103.931C153.594 103.76 153.168 103.434 152.92 102.954C152.672 102.474 152.601 101.96 152.708 101.412ZM155.26 77.7579C155.012 77.6894 154.764 77.5865 154.516 77.4494C154.267 77.278 154.09 77.0723 153.984 76.8324C153.877 76.5581 153.789 76.3181 153.718 76.1125C153.647 75.9068 153.612 75.6668 153.612 75.3926C153.612 75.084 153.665 74.7755 153.771 74.467C153.913 73.8499 154.196 73.4043 154.622 73.13C154.764 72.9243 154.959 72.7701 155.207 72.6672C155.597 72.4273 156.04 72.3073 156.536 72.3073C157.032 72.273 157.476 72.393 157.866 72.6672C158.043 72.8043 158.22 72.9586 158.397 73.13C158.575 73.2671 158.716 73.4557 158.823 73.6957C158.894 73.8671 158.965 74.0556 159.035 74.2613C159.142 74.467 159.177 74.6727 159.142 74.8783C159.106 75.1183 159.071 75.3411 159.035 75.5468C159 75.7525 158.911 75.9411 158.77 76.1125C158.592 76.3524 158.451 76.5238 158.344 76.6267C158.238 76.7295 158.061 76.8666 157.812 77.038C157.671 77.1752 157.458 77.278 157.174 77.3466C156.43 77.7579 155.792 77.8951 155.26 77.7579Z" fill="white"/>
<path d="M167.118 98.3265C167.579 98.6007 167.934 99.0121 168.182 99.5606C168.43 100.109 168.465 100.623 168.288 101.103C168.146 101.617 167.809 102.046 167.278 102.389C166.888 102.8 166.391 102.989 165.789 102.954C165.186 102.954 164.69 102.766 164.3 102.389C163.768 102.012 163.431 101.669 163.29 101.36C163.006 100.88 162.917 100.4 163.024 99.9206C163.165 99.4406 163.431 99.0293 163.821 98.6865C163.928 98.6179 164.016 98.5493 164.087 98.4808C164.193 98.3779 164.318 98.2922 164.459 98.2237C164.778 98.0865 164.956 98.018 164.991 98.018C165.062 98.018 165.257 97.9837 165.576 97.9151C165.682 97.9151 165.806 97.9323 165.948 97.9665C166.09 97.9665 166.196 97.9837 166.267 98.018C166.551 98.0523 166.835 98.1551 167.118 98.3265ZM166.693 65.1597C166.693 64.5084 166.905 64.0113 167.331 63.6685C167.792 63.3257 168.27 63.1543 168.767 63.1543C169.298 63.1543 169.777 63.3257 170.202 63.6685C170.663 64.0113 170.894 64.5084 170.894 65.1597C170.894 67.4222 170.911 69.7019 170.947 71.9987C171.018 74.2613 171.018 76.5238 170.947 78.7864C170.911 81.0489 170.77 83.3115 170.521 85.574C170.309 87.8365 169.919 90.0819 169.352 92.3102C169.174 92.9615 168.838 93.39 168.341 93.5957C167.845 93.8014 167.331 93.8357 166.799 93.6986C166.303 93.5615 165.877 93.2872 165.523 92.8758C165.168 92.4302 165.08 91.8817 165.257 91.2303C165.789 89.1049 166.161 86.9624 166.374 84.8027C166.586 82.6087 166.71 80.4319 166.746 78.2722C166.817 76.0782 166.817 73.8842 166.746 71.6902C166.71 69.4962 166.693 67.3194 166.693 65.1597Z" fill="white"/>
<path d="M461.647 40.002C419.317 40.002 385 59.5045 385 83.5608C385 99.0149 399.163 112.589 420.514 120.322C420.892 126.763 423.469 143.436 439.666 151.922C440.295 152.251 440.985 151.604 440.693 150.957C438.734 146.609 434.726 135.596 438.678 125.13C445.929 126.422 453.644 127.12 461.646 127.12C503.976 127.12 538.293 107.617 538.293 83.5608C538.293 59.5045 503.979 40.002 461.647 40.002Z" fill="#B7C7FF"/>
<path d="M431.994 104.937C430.945 97.0221 431.743 88.6658 431.058 82.9764C429.074 82.5991 426.845 82.7322 425.63 83.1736C425.343 87.4427 427.433 100.186 426.356 104.027C425.152 105.284 424.667 104.1 424.07 101.849C422.565 94.8623 422.045 76.9754 422.001 66.7945C421.958 65.59 421.931 63.8783 421.922 61.6612C421.89 59.872 424.345 60.7211 425.016 61.5314C424.645 64.8622 424.802 67.9553 425.058 71.8572C425.372 76.3622 425.087 77.8784 425.331 81.5983C426.815 81.5731 429.774 81.1249 430.992 81.167C430.966 74.6084 430.697 66.8569 430.676 60.4583C433.196 60.3268 433.712 62.7444 433.553 64.9397C433.51 70.7975 434.897 96.6464 434.818 103.38C434.971 104.858 433.031 106.334 431.994 104.937Z" fill="white"/>
<path d="M443.555 104.804C442.434 103.911 443.009 102.064 442.867 100.839C442.545 94.8334 442.358 90.7193 442.622 83.6299C442.764 80.2453 442.83 77.4065 442.821 75.1119C442.735 72.5629 441.366 65.9503 444.887 66.0615C447.124 65.9098 455.456 67.7462 450.218 70.4738C448.581 69.8976 447.099 69.5152 445.777 69.3248C445.89 71.0938 445.846 74.2813 445.804 76.0334C445.725 78.4696 445.468 79.5242 445.824 81.1668C446.53 81.1365 447.142 81.0405 447.925 81.0421C451.234 80.6985 451.708 84.0275 448.872 84.1892C447.673 84.1808 446.837 84.0258 445.779 84.0848C446.104 88.081 445.778 95.3725 445.723 99.0789C445.731 101.257 445.775 102.346 445.853 102.346L447.78 102.28C448.983 102.255 452.549 101.754 452.397 103.602C452.399 104.147 452.158 104.566 451.672 104.859C450.631 105.666 446.2 105.189 444.932 105.324C444.423 105.324 443.964 105.151 443.555 104.804Z" fill="white"/>
<path d="M462.614 104.726C461.234 105.767 458.939 105.397 458.931 103.399C458.917 100.132 459.035 95.7753 459.286 90.3302C459.646 81.9082 459.656 77.4942 459.211 71.4291C459.195 67.7345 459.868 65.8847 461.232 65.8779C461.987 65.851 462.717 66.5754 462.697 67.3302C461.93 74.8576 462.908 81.4129 462.259 88.9757L462.161 93.5851C462.186 95.5866 461.262 102.369 464.005 102.27C464.791 102.209 465.511 102.16 466.457 102.144C469.916 101.837 470.783 104.858 467.812 105.405C466.409 104.944 464.676 104.718 462.614 104.726Z" fill="white"/>
<path d="M478.259 104.662C476.878 105.703 474.584 105.333 474.575 103.335C474.562 100.068 474.68 95.7113 474.931 90.2662C475.29 81.8442 475.3 77.4302 474.855 71.3652C474.84 67.6705 475.514 65.8207 476.877 65.814C477.632 65.787 478.362 66.5114 478.342 67.2662C477.574 74.7936 478.552 81.3489 477.903 88.9117L477.805 93.5211C477.831 95.5226 476.907 102.305 479.65 102.206C480.436 102.145 481.155 102.096 482.101 102.08C485.561 101.773 486.427 104.794 483.457 105.341C482.054 104.881 480.321 104.654 478.259 104.662Z" fill="white"/>
<path d="M494.14 104.511C489.149 100.229 489.53 90.0461 489.328 84.0248C489.446 80.7093 488.826 65.6326 493.631 65.1052C502.505 64.8475 504.763 74.8346 504.559 82.0385C504.581 84.1562 504.667 86.5991 504.702 88.6309C504.7 100.919 501.517 107.994 494.14 104.511ZM498.626 102.161C502.293 97.2601 501.647 87.6622 501.111 81.4118C500.814 77.729 500.723 76.019 500.728 73.6536C500.629 70.9917 498.655 68.1276 495.861 68.19C491.746 68.4023 492.87 75.5186 492.751 78.5865C492.725 80.2392 492.528 82.2542 492.538 83.9541C492.644 87.2006 492.606 107.278 498.626 102.161Z" fill="white"/>
<defs>
<linearGradient id="paint0_linear_769_9737" x1="481.484" y1="226.266" x2="474.255" y2="217.308" gradientUnits="userSpaceOnUse">
<stop stop-color="#FBC8C7"/>
<stop offset="0.99" stop-color="#FB929C"/>
</linearGradient>
<linearGradient id="paint1_linear_769_9737" x1="370.323" y1="398.787" x2="367.526" y2="362.897" gradientUnits="userSpaceOnUse">
<stop stop-color="#EBF7FF"/>
<stop offset="0.98" stop-color="white"/>
</linearGradient>
<linearGradient id="paint2_linear_769_9737" x1="486.175" y1="257.527" x2="472.344" y2="450.165" gradientUnits="userSpaceOnUse">
<stop offset="0.02" stop-color="white"/>
<stop offset="1" stop-color="#EBF7FF"/>
</linearGradient>
<linearGradient id="paint3_linear_769_9737" x1="188.781" y1="262.276" x2="187.783" y2="434.162" gradientUnits="userSpaceOnUse">
<stop offset="0.02" stop-color="white"/>
<stop offset="1" stop-color="#EBF7FF"/>
</linearGradient>
<linearGradient id="paint4_linear_769_9737" x1="171.817" y1="249.89" x2="155.113" y2="466.03" gradientUnits="userSpaceOnUse">
<stop stop-color="#81BFFD"/>
<stop offset="0.32" stop-color="#7DBCFC"/>
<stop offset="0.61" stop-color="#72B4FC"/>
<stop offset="0.89" stop-color="#5FA6FC"/>
<stop offset="1" stop-color="#569FFC"/>
</linearGradient>
<linearGradient id="paint5_linear_769_9737" x1="205.636" y1="359.389" x2="265.409" y2="359.389" gradientUnits="userSpaceOnUse">
<stop stop-color="#81BFFD"/>
<stop offset="0.32" stop-color="#7DBCFC"/>
<stop offset="0.61" stop-color="#72B4FC"/>
<stop offset="0.89" stop-color="#5FA6FC"/>
<stop offset="1" stop-color="#569FFC"/>
</linearGradient>
<linearGradient id="paint6_linear_769_9737" x1="249.16" y1="383.844" x2="266.955" y2="383.844" gradientUnits="userSpaceOnUse">
<stop stop-color="#EBF7FF"/>
<stop offset="0.98" stop-color="white"/>
</linearGradient>
<linearGradient id="paint7_linear_769_9737" x1="107.612" y1="348.62" x2="254.365" y2="348.62" gradientUnits="userSpaceOnUse">
<stop stop-color="#81BFFD"/>
<stop offset="0.32" stop-color="#7DBCFC"/>
<stop offset="0.61" stop-color="#72B4FC"/>
<stop offset="0.89" stop-color="#5FA6FC"/>
<stop offset="1" stop-color="#569FFC"/>
</linearGradient>
<clipPath id="clip0_769_9737">
<rect width="688" height="377" fill="white" transform="translate(0 104.002)"/>
</clipPath>
</defs>
</svg>
