<svg width="688" height="90" viewBox="0 0 688 90" fill="none" xmlns="http://www.w3.org/2000/svg">
<path d="M642.957 90H45.0431C20.1193 90 0 69.9 0 45C0 20.1 20.1193 0 45.0431 0H642.957C667.881 0 688 20.1 688 45C688 69.9 667.881 90 642.957 90Z" fill="#F5F5F5"/>
<path d="M45.0433 78C63.2862 78 78.0749 63.2254 78.0749 45C78.0749 26.7746 63.2862 12 45.0433 12C26.8005 12 12.0117 26.7746 12.0117 45C12.0117 63.2254 26.8005 78 45.0433 78Z" fill="white"/>
<path d="M37.2363 30.9L57.3555 44.1C57.9561 44.7 57.9561 45.6 57.3555 46.2L37.2363 59.4C36.3354 60 35.4346 59.4 35.4346 58.5V32.1C35.4346 30.9 36.6357 30.3 37.2363 30.9Z" fill="#1A0F91"/>
<path d="M104.8 51.6C104.2 51.6 103.899 51.3 103.899 50.7V39.6C103.899 39 104.2 38.7 104.8 38.7C105.401 38.7 105.701 39 105.701 39.6V50.7C105.701 51 105.401 51.6 104.8 51.6Z" fill="black"/>
<path d="M113.809 55.8C113.209 55.8 112.908 55.5 112.908 54.9V34.8C112.908 34.2 113.209 33.9 113.809 33.9C114.41 33.9 114.71 34.2 114.71 34.8V54.9C114.71 55.5 114.41 55.8 113.809 55.8Z" fill="black"/>
<path d="M123.118 67.2C122.517 67.2 122.217 66.9 122.217 66.3V23.7C122.217 23.1 122.517 22.8 123.118 22.8C123.718 22.8 124.019 23.1 124.019 23.7V66C124.019 66.6 123.418 67.2 123.118 67.2Z" fill="black"/>
<path d="M132.126 59.1C131.526 59.1 131.226 58.8 131.226 58.2V31.8C131.226 31.2 131.526 30.9 132.126 30.9C132.727 30.9 133.027 31.2 133.027 31.8V58.2C133.027 58.5 132.427 59.1 132.126 59.1Z" fill="black"/>
<path d="M141.135 55.8C140.535 55.8 140.234 55.5 140.234 54.9V34.8C140.234 34.2 140.535 33.9 141.135 33.9C141.736 33.9 142.036 34.2 142.036 34.8V54.9C142.036 55.5 141.436 55.8 141.135 55.8Z" fill="black"/>
<path d="M150.144 70.2C149.543 70.2 149.243 69.9 149.243 69.3V20.4C149.243 19.8 149.543 19.5 150.144 19.5C150.745 19.5 151.045 19.8 151.045 20.4V69.3C151.045 69.9 150.444 70.2 150.144 70.2Z" fill="black"/>
<path d="M159.152 57C158.551 57 158.251 56.7 158.251 56.1V33.6C158.251 33 158.551 32.7 159.152 32.7C159.752 32.7 160.053 33 160.053 33.6V56.1C160.053 56.7 159.752 57 159.152 57Z" fill="black"/>
<path d="M168.161 64.8C167.56 64.8 167.26 64.5 167.26 63.8999V26.1C167.26 25.5 167.56 25.2 168.161 25.2C168.761 25.2 169.061 25.5 169.061 26.1V63.6C169.061 64.2 168.761 64.8 168.161 64.8Z" fill="black"/>
<path d="M177.169 55.8C176.569 55.8 176.269 55.5 176.269 54.9V34.8C176.269 34.2 176.569 33.9 177.169 33.9C177.77 33.9 178.07 34.2 178.07 34.8V54.9C178.07 55.5 177.77 55.8 177.169 55.8Z" fill="black"/>
<path d="M186.178 51.6C185.578 51.6 185.277 51.3 185.277 50.7V39.6C185.277 39 185.578 38.7 186.178 38.7C186.779 38.7 187.079 39 187.079 39.6V50.7C187.079 51 186.779 51.6 186.178 51.6Z" fill="black"/>
<path d="M195.187 63C194.586 63 194.286 62.7 194.286 62.1V27.9C194.286 27.3 194.887 27 195.187 27C195.788 27 196.088 27.3 196.088 27.9V62.4C196.088 62.7 195.788 63 195.187 63Z" fill="black"/>
<path d="M204.196 69.6C203.595 69.6 203.295 69.3 203.295 68.7V21.3C203.295 20.7 203.595 20.4 204.196 20.4C204.796 20.4 205.097 20.7 205.097 21.3V69C205.097 69.3 204.796 69.6 204.196 69.6Z" fill="black"/>
<path d="M213.504 55.8C212.904 55.8 212.604 55.5 212.604 54.9V34.8C212.604 34.2 212.904 33.9 213.504 33.9C214.105 33.9 214.405 34.2 214.405 34.8V54.9C214.405 55.5 213.805 55.8 213.504 55.8Z" fill="black"/>
<path d="M222.513 63C221.913 63 221.612 62.7 221.612 62.1V27.9C221.612 27.3 221.913 27 222.513 27C223.114 27 223.414 27.3 223.414 27.9V62.4C223.414 62.7 222.813 63 222.513 63Z" fill="black"/>
<path d="M231.522 55.8C230.921 55.8 230.621 55.5 230.621 54.9V34.8C230.621 34.2 230.921 33.9 231.522 33.9C232.123 33.9 232.423 34.2 232.423 34.8V54.9C232.423 55.5 231.822 55.8 231.522 55.8Z" fill="black"/>
<path d="M240.53 67.5C239.929 67.5 239.629 67.2 239.629 66.6V23.4C239.629 22.8 239.929 22.5 240.53 22.5C241.13 22.5 241.431 22.8 241.431 23.4V66.6C241.431 67.2 240.83 67.5 240.53 67.5Z" fill="black"/>
<path d="M249.539 60C248.938 60 248.638 59.7 248.638 59.1V30.9C248.638 30.3 248.938 30 249.539 30C250.139 30 250.439 30.3 250.439 30.9V59.1C250.439 59.7 250.139 60 249.539 60Z" fill="black"/>
<path d="M258.547 66.3C257.947 66.3 257.646 66 257.646 65.4V24.3C257.646 23.7 257.947 23.4 258.547 23.4C259.148 23.4 259.448 23.7 259.448 24.3V65.4C259.448 66 259.148 66.3 258.547 66.3Z" fill="black"/>
<path d="M267.556 60C266.956 60 266.655 59.7 266.655 59.1V30.9C266.655 30.3 266.956 30 267.556 30C268.157 30 268.457 30.3 268.457 30.9V59.1C268.457 59.7 268.157 60 267.556 60Z" fill="black"/>
<path d="M276.565 54.9C275.964 54.9 275.664 54.6 275.664 54V36C275.664 35.4 275.964 35.1 276.565 35.1C277.166 35.1 277.466 35.4 277.466 36V54C277.466 54.3 277.166 54.9 276.565 54.9Z" fill="black"/>
<path d="M285.574 67.5C284.973 67.5 284.673 67.2 284.673 66.6V23.4C284.673 22.8 284.973 22.5 285.574 22.5C286.174 22.5 286.475 22.8 286.475 23.4V66.6C286.475 67.2 286.174 67.5 285.574 67.5Z" fill="black"/>
<path d="M294.582 54.9C293.981 54.9 293.681 54.6 293.681 54V36C293.681 35.4 293.981 35.1 294.582 35.1C295.182 35.1 295.482 35.4 295.482 36V54C295.482 54.3 295.182 54.9 294.582 54.9Z" fill="black"/>
<path d="M303.891 67.5C303.291 67.5 302.99 67.2 302.99 66.6V23.4C302.99 22.8 303.291 22.5 303.891 22.5C304.492 22.5 304.792 22.8 304.792 23.4V66.6C304.792 67.2 304.191 67.5 303.891 67.5Z" fill="black"/>
<path d="M312.9 60.6C312.299 60.6 311.999 60.3 311.999 59.7V30.6C311.999 30 312.299 29.7 312.9 29.7C313.5 29.7 313.801 30 313.801 30.6V59.7C313.801 60 313.2 60.6 312.9 60.6Z" fill="black"/>
<path d="M321.908 63C321.307 63 321.007 62.7 321.007 62.1V27.9C321.007 27.3 321.307 27 321.908 27C322.508 27 322.809 27.3 322.809 27.9V62.4C322.809 62.7 322.208 63 321.908 63Z" fill="black"/>
<path d="M330.916 57.9C330.316 57.9 330.016 57.6 330.016 57V33C330.016 32.4 330.316 32.1 330.916 32.1C331.517 32.1 331.817 32.4 331.817 33V57C331.817 57.3 331.217 57.9 330.916 57.9Z" fill="black"/>
<path d="M339.925 71.1C339.325 71.1 339.024 70.8 339.024 70.2V19.5C339.024 18.9 339.325 18.6 339.925 18.6C340.526 18.6 340.826 18.9 340.826 19.5V70.2C340.826 70.8 340.526 71.1 339.925 71.1Z" fill="black"/>
<path d="M348.934 63C348.333 63 348.033 62.7 348.033 62.1V27.9C348.033 27.3 348.333 27 348.934 27C349.535 27 349.835 27.3 349.835 27.9V62.4C349.835 62.7 349.535 63 348.934 63Z" fill="black"/>
<path d="M357.943 57.9C357.342 57.9 357.042 57.6 357.042 57V33C357.042 32.4 357.342 32.1 357.943 32.1C358.543 32.1 358.844 32.4 358.844 33V57C358.844 57.3 358.543 57.9 357.943 57.9Z" fill="black"/>
<path d="M366.952 69.3C366.351 69.3 366.051 69 366.051 68.3999V21.6C366.051 21 366.351 20.7 366.952 20.7C367.552 20.7 367.853 21 367.853 21.6V68.1C367.853 68.7 367.552 69.3 366.952 69.3Z" fill="black"/>
<path d="M375.959 60C375.359 60 375.059 59.7 375.059 59.1V30.9C375.059 30.3 375.359 30 375.959 30C376.56 30 376.86 30.3 376.86 30.9V59.1C376.86 59.7 376.56 60 375.959 60Z" fill="black"/>
<path d="M384.968 51.6C384.368 51.6 384.067 51.3 384.067 50.7V39C384.067 38.4 384.368 38.1 384.968 38.1C385.569 38.1 385.869 38.4 385.869 39V50.7C385.869 51.3 385.569 51.6 384.968 51.6Z" fill="black"/>
<path d="M396.227 59.1C395.626 59.1 395.326 58.8 395.326 58.2V31.8C395.326 31.2 395.626 30.9 396.227 30.9C396.828 30.9 397.128 31.2 397.128 31.8V58.2C397.128 58.5 396.527 59.1 396.227 59.1Z" fill="black"/>
<path d="M405.236 55.8C404.635 55.8 404.335 55.5 404.335 54.9V34.8C404.335 34.2 404.635 33.9 405.236 33.9C405.836 33.9 406.137 34.2 406.137 34.8V54.9C406.137 55.5 405.536 55.8 405.236 55.8Z" fill="black"/>
<path d="M414.245 70.2C413.644 70.2 413.344 69.9 413.344 69.3V20.4C413.344 19.8 413.644 19.5 414.245 19.5C414.845 19.5 415.145 19.8 415.145 20.4V69.3C415.145 69.9 414.545 70.2 414.245 70.2Z" fill="black"/>
<path d="M423.252 57C422.652 57 422.352 56.7 422.352 56.1V33.6C422.352 33 422.652 32.7 423.252 32.7C423.853 32.7 424.153 33 424.153 33.6V56.1C424.153 56.7 423.853 57 423.252 57Z" fill="black"/>
<path d="M432.261 64.8C431.661 64.8 431.36 64.5 431.36 63.8999V26.1C431.36 25.5 431.661 25.2 432.261 25.2C432.862 25.2 433.162 25.5 433.162 26.1V63.6C433.162 64.2 432.862 64.8 432.261 64.8Z" fill="black"/>
<path d="M441.27 55.8C440.669 55.8 440.369 55.5 440.369 54.9V34.8C440.369 34.2 440.669 33.9 441.27 33.9C441.871 33.9 442.171 34.2 442.171 34.8V54.9C442.171 55.5 441.871 55.8 441.27 55.8Z" fill="black"/>
<path d="M450.279 51.6C449.678 51.6 449.378 51.3 449.378 50.7V39.6C449.378 39 449.678 38.7 450.279 38.7C450.879 38.7 451.18 39 451.18 39.6V50.7C451.18 51 450.879 51.6 450.279 51.6Z" fill="black"/>
<path d="M459.288 63C458.687 63 458.387 62.7 458.387 62.1V27.9C458.387 27.3 458.987 27 459.288 27C459.888 27 460.188 27.3 460.188 27.9V62.4C460.188 62.7 459.888 63 459.288 63Z" fill="black"/>
<path d="M468.296 69.6C467.696 69.6 467.396 69.3 467.396 68.7V21.3C467.396 20.7 467.696 20.4 468.296 20.4C468.897 20.4 469.197 20.7 469.197 21.3V69C469.197 69.3 468.897 69.6 468.296 69.6Z" fill="black"/>
<path d="M477.605 55.8C477.004 55.8 476.704 55.5 476.704 54.9V34.8C476.704 34.2 477.004 33.9 477.605 33.9C478.206 33.9 478.506 34.2 478.506 34.8V54.9C478.506 55.5 477.905 55.8 477.605 55.8Z" fill="black"/>
<path d="M486.614 63C486.013 63 485.713 62.7 485.713 62.1V27.9C485.713 27.3 486.013 27 486.614 27C487.214 27 487.515 27.3 487.515 27.9V62.4C487.515 62.7 486.914 63 486.614 63Z" fill="black"/>
<path d="M495.623 55.8C495.022 55.8 494.722 55.5 494.722 54.9V34.8C494.722 34.2 495.022 33.9 495.623 33.9C496.223 33.9 496.523 34.2 496.523 34.8V54.9C496.523 55.5 495.923 55.8 495.623 55.8Z" fill="black"/>
<path d="M504.63 67.5C504.03 67.5 503.729 67.2 503.729 66.6V23.4C503.729 22.8 504.03 22.5 504.63 22.5C505.231 22.5 505.531 22.8 505.531 23.4V66.6C505.531 67.2 504.931 67.5 504.63 67.5Z" fill="black"/>
<path d="M513.639 60C513.039 60 512.738 59.7 512.738 59.1V30.9C512.738 30.3 513.039 30 513.639 30C514.24 30 514.54 30.3 514.54 30.9V59.1C514.54 59.7 514.24 60 513.639 60Z" fill="black"/>
<path d="M522.648 66.3C522.047 66.3 521.747 66 521.747 65.4V24.3C521.747 23.7 522.047 23.4 522.648 23.4C523.249 23.4 523.549 23.7 523.549 24.3V65.4C523.549 66 523.249 66.3 522.648 66.3Z" fill="black"/>
<path d="M531.657 60C531.056 60 530.756 59.7 530.756 59.1V30.9C530.756 30.3 531.056 30 531.657 30C532.257 30 532.558 30.3 532.558 30.9V59.1C532.558 59.7 532.257 60 531.657 60Z" fill="black"/>
<path d="M540.666 54.9C540.065 54.9 539.765 54.6 539.765 54V36C539.765 35.4 540.065 35.1 540.666 35.1C541.266 35.1 541.566 35.4 541.566 36V54C541.566 54.3 541.266 54.9 540.666 54.9Z" fill="black"/>
<path d="M549.674 67.5C549.074 67.5 548.773 67.2 548.773 66.6V23.4C548.773 22.8 549.074 22.5 549.674 22.5C550.275 22.5 550.575 22.8 550.575 23.4V66.6C550.575 67.2 550.275 67.5 549.674 67.5Z" fill="black"/>
<path d="M558.682 54.9C558.082 54.9 557.781 54.6 557.781 54V36C557.781 35.4 558.082 35.1 558.682 35.1C559.283 35.1 559.583 35.4 559.583 36V54C559.583 54.3 559.283 54.9 558.682 54.9Z" fill="black"/>
<path d="M567.992 67.5C567.391 67.5 567.091 67.2 567.091 66.6V23.4C567.091 22.8 567.391 22.5 567.992 22.5C568.592 22.5 568.893 22.8 568.893 23.4V66.6C568.893 67.2 568.292 67.5 567.992 67.5Z" fill="black"/>
<path d="M577 60.6C576.4 60.6 576.1 60.3 576.1 59.7V30.6C576.1 30 576.4 29.7 577 29.7C577.601 29.7 577.901 30 577.901 30.6V59.7C577.901 60 577.301 60.6 577 60.6Z" fill="black"/>
<path d="M586.008 63C585.408 63 585.107 62.7 585.107 62.1V27.9C585.107 27.3 585.408 27 586.008 27C586.609 27 586.909 27.3 586.909 27.9V62.4C586.909 62.7 586.309 63 586.008 63Z" fill="black"/>
<path d="M595.017 57.9C594.416 57.9 594.116 57.6 594.116 57V33C594.116 32.4 594.416 32.1 595.017 32.1C595.618 32.1 595.918 32.4 595.918 33V57C595.918 57.3 595.317 57.9 595.017 57.9Z" fill="black"/>
<path d="M604.026 71.1C603.425 71.1 603.125 70.8 603.125 70.2V19.5C603.125 18.9 603.425 18.6 604.026 18.6C604.626 18.6 604.927 18.9 604.927 19.5V70.2C604.927 70.8 604.626 71.1 604.026 71.1Z" fill="black"/>
<path d="M613.035 63C612.434 63 612.134 62.7 612.134 62.1V27.9C612.134 27.3 612.434 27 613.035 27C613.635 27 613.936 27.3 613.936 27.9V62.4C613.936 62.7 613.635 63 613.035 63Z" fill="black"/>
<path d="M622.043 57.9C621.443 57.9 621.143 57.6 621.143 57V33C621.143 32.4 621.443 32.1 622.043 32.1C622.644 32.1 622.944 32.4 622.944 33V57C622.944 57.3 622.644 57.9 622.043 57.9Z" fill="black"/>
<path d="M631.051 69.3C630.451 69.3 630.15 69 630.15 68.3999V21.6C630.15 21 630.451 20.7 631.051 20.7C631.652 20.7 631.952 21 631.952 21.6V68.1C631.952 68.7 631.652 69.3 631.051 69.3Z" fill="black"/>
<path d="M640.06 60C639.459 60 639.159 59.7 639.159 59.1V30.9C639.159 30.3 639.459 30 640.06 30C640.661 30 640.961 30.3 640.961 30.9V59.1C640.961 59.7 640.661 60 640.06 60Z" fill="black"/>
<path d="M649.069 51.6C648.468 51.6 648.168 51.3 648.168 50.7V39C648.168 38.4 648.468 38.1 649.069 38.1C649.669 38.1 649.97 38.4 649.97 39V50.7C649.97 51.3 649.669 51.6 649.069 51.6Z" fill="black"/>
</svg>
