<svg width="25" height="25" viewBox="0 0 25 25" fill="none" xmlns="http://www.w3.org/2000/svg">
<path d="M12.1216 2.17236C6.60758 2.17236 2.12158 6.65836 2.12158 12.1724C2.12158 17.6864 6.60758 22.1724 12.1216 22.1724C17.6356 22.1724 22.1216 17.6864 22.1216 12.1724C22.1216 6.65836 17.6356 2.17236 12.1216 2.17236ZM10.1226 16.5854L7.11703 13.5863C6.72628 13.1964 6.72549 12.5636 7.11527 12.1727C7.50529 11.7815 8.13859 11.7808 8.52951 12.1711L10.1206 13.7594L14.7076 9.17236C15.098 8.7819 15.7311 8.7819 16.1216 9.17236C16.512 9.56283 16.512 10.1959 16.1216 10.5864L10.1226 16.5854Z" fill="#1A0F91"/>
</svg>
