<svg width="106" height="106" viewBox="0 0 106 106" fill="none" xmlns="http://www.w3.org/2000/svg">
<g filter="url(#filter0_d_6_1920)">
<g filter="url(#filter1_d_6_1920)">
<rect x="20" y="12" width="66" height="66" rx="24" fill="#1A0F91"/>
</g>
<path fill-rule="evenodd" clip-rule="evenodd" d="M53.1936 45.7498C55.8371 45.7498 57.9801 43.6068 57.9801 40.9632C57.9801 38.3197 55.8371 36.1766 53.1936 36.1766C50.55 36.1766 48.407 38.3197 48.407 40.9632C48.407 43.6068 50.55 45.7498 53.1936 45.7498Z" fill="white"/>
<path fill-rule="evenodd" clip-rule="evenodd" d="M57.3475 45.2141C56.2713 46.2402 54.8063 46.8716 53.1923 46.8716C51.5783 46.8716 50.1133 46.2402 49.0371 45.2141C48.8517 45.1682 48.6664 45.1228 48.4864 45.0998C48.3064 45.0768 48.1323 45.0768 47.97 45.1019C47.8081 45.1265 47.6586 45.1767 47.4839 45.2392C47.3093 45.3012 47.1101 45.376 46.8607 45.5255C46.6118 45.6751 46.3121 45.8994 46.0259 46.2739C45.7391 46.6472 45.4651 47.1713 45.2157 47.7946C44.9662 48.4174 44.7419 49.1407 44.6175 49.8388C44.493 50.5364 44.4679 51.21 44.4556 51.7207C44.4428 52.2319 44.4428 52.5812 44.493 52.9177C44.5427 53.2542 44.642 53.5779 44.8669 53.9022C45.0912 54.2264 45.44 54.5506 45.8512 54.7996C46.2625 55.049 46.7362 55.2237 47.3846 55.3107C48.0324 55.3978 48.8549 55.3978 49.8521 55.3978H52.7437H53.1923H53.6409H56.5325C57.5296 55.3978 58.3521 55.3978 59 55.3107C59.6484 55.2237 60.1221 55.049 60.5334 54.7996C60.9446 54.5506 61.2934 54.2264 61.5177 53.9022C61.7425 53.5779 61.8419 53.2542 61.8915 52.9177C61.9417 52.5812 61.9417 52.2319 61.9289 51.7207C61.9166 51.21 61.8915 50.5364 61.7671 49.8388C61.6427 49.1407 61.4183 48.4174 61.1689 47.7946C60.9195 47.1713 60.6455 46.6472 60.3587 46.2739C60.0724 45.8994 59.7728 45.6751 59.5239 45.5255C59.2745 45.376 59.0753 45.3012 58.9006 45.2392C58.726 45.1767 58.5764 45.1265 58.4146 45.1019C58.2523 45.0768 58.0781 45.0768 57.8982 45.0998C57.7182 45.1228 57.5328 45.1682 57.3475 45.2141Z" fill="white"/>
<path fill-rule="evenodd" clip-rule="evenodd" d="M58.2929 43.3221C59.1436 44.0988 60.2763 44.5731 61.519 44.5731C64.1618 44.5731 66.3043 42.4301 66.3043 39.7866C66.3043 37.143 64.1618 35 61.519 35C59.8218 35 58.3303 35.884 57.4812 37.2167C58.4392 38.0917 59.0406 39.3523 59.0406 40.7523C59.0406 41.6978 58.7661 42.5802 58.2929 43.3221Z" fill="white"/>
<path fill-rule="evenodd" clip-rule="evenodd" d="M47.7071 43.3221C46.8564 44.0988 45.7237 44.5731 44.481 44.5731C41.8382 44.5731 39.6957 42.4301 39.6957 39.7866C39.6957 37.143 41.8382 35 44.481 35C46.1782 35 47.6697 35.884 48.5188 37.2167C47.5608 38.0917 46.9594 39.3523 46.9594 40.7523C46.9594 41.6978 47.2339 42.5802 47.7071 43.3221Z" fill="white"/>
<path fill-rule="evenodd" clip-rule="evenodd" d="M65.4097 44.2142C64.3652 45.2093 62.9552 45.8338 61.3977 45.8701L61.5697 46.0763C61.8567 46.4496 62.1308 46.9737 62.3803 47.597C62.6298 48.2198 62.8542 48.9431 62.9787 49.6412C63.1032 50.3388 63.1283 51.0124 63.1406 51.5231C63.1534 52.0343 63.1534 52.3836 63.1032 52.7201C63.0535 53.0566 62.9541 53.3803 62.7292 53.7046C62.5619 53.946 62.3258 54.188 62.0463 54.3979H64.5944C65.5919 54.3979 66.4147 54.3979 67.0628 54.3108C67.7115 54.2238 68.1854 54.0491 68.5968 53.7996C69.0082 53.5507 69.3571 53.2265 69.5815 52.9023C69.8064 52.578 69.9058 52.2543 69.9555 51.9178C70.0057 51.5813 70.0057 51.232 69.9929 50.7208C69.9806 50.2101 69.9555 49.5365 69.831 48.8389C69.7065 48.1408 69.4821 47.4175 69.2326 46.7947C68.9831 46.1713 68.709 45.6473 68.4221 45.274C68.1357 44.8995 67.836 44.6752 67.587 44.5256C67.3375 44.376 67.1382 44.3013 66.9635 44.2393C66.7887 44.1768 66.6391 44.1266 66.4772 44.102C66.3148 44.0769 66.1406 44.0769 65.9606 44.0999C65.7805 44.1229 65.5951 44.1683 65.4097 44.2142Z" fill="white"/>
<path fill-rule="evenodd" clip-rule="evenodd" d="M40.5903 44.2142C41.6348 45.2093 43.0448 45.8338 44.6023 45.8701L44.4303 46.0763C44.1433 46.4496 43.8692 46.9737 43.6197 47.597C43.3702 48.2198 43.1458 48.9431 43.0213 49.6412C42.8968 50.3388 42.8717 51.0124 42.8594 51.5231C42.8466 52.0343 42.8466 52.3836 42.8968 52.7201C42.9465 53.0566 43.0459 53.3803 43.2708 53.7046C43.4381 53.946 43.6742 54.188 43.9537 54.3979H41.4056C40.4081 54.3979 39.5853 54.3979 38.9372 54.3108C38.2885 54.2238 37.8146 54.0491 37.4032 53.7996C36.9918 53.5507 36.6429 53.2265 36.4185 52.9023C36.1936 52.578 36.0942 52.2543 36.0445 51.9178C35.9943 51.5813 35.9943 51.232 36.0071 50.7208C36.0194 50.2101 36.0445 49.5365 36.169 48.8389C36.2935 48.1408 36.5179 47.4175 36.7674 46.7947C37.0169 46.1713 37.291 45.6473 37.5779 45.274C37.8643 44.8995 38.164 44.6752 38.413 44.5256C38.6625 44.376 38.8618 44.3013 39.0365 44.2393C39.2113 44.1768 39.3609 44.1266 39.5228 44.102C39.6852 44.0769 39.8594 44.0769 40.0394 44.0999C40.2195 44.1229 40.4049 44.1683 40.5903 44.2142Z" fill="white"/>
</g>
<defs>
<filter id="filter0_d_6_1920" x="16" y="12" width="74" height="74" filterUnits="userSpaceOnUse" color-interpolation-filters="sRGB">
<feFlood flood-opacity="0" result="BackgroundImageFix"/>
<feColorMatrix in="SourceAlpha" type="matrix" values="0 0 0 0 0 0 0 0 0 0 0 0 0 0 0 0 0 0 127 0" result="hardAlpha"/>
<feOffset dy="4"/>
<feGaussianBlur stdDeviation="2"/>
<feComposite in2="hardAlpha" operator="out"/>
<feColorMatrix type="matrix" values="0 0 0 0 0 0 0 0 0 0 0 0 0 0 0 0 0 0 0.25 0"/>
<feBlend mode="normal" in2="BackgroundImageFix" result="effect1_dropShadow_6_1920"/>
<feBlend mode="normal" in="SourceGraphic" in2="effect1_dropShadow_6_1920" result="shape"/>
</filter>
<filter id="filter1_d_6_1920" x="0" y="0" width="106" height="106" filterUnits="userSpaceOnUse" color-interpolation-filters="sRGB">
<feFlood flood-opacity="0" result="BackgroundImageFix"/>
<feColorMatrix in="SourceAlpha" type="matrix" values="0 0 0 0 0 0 0 0 0 0 0 0 0 0 0 0 0 0 127 0" result="hardAlpha"/>
<feMorphology radius="2" operator="erode" in="SourceAlpha" result="effect1_dropShadow_6_1920"/>
<feOffset dy="8"/>
<feGaussianBlur stdDeviation="11"/>
<feColorMatrix type="matrix" values="0 0 0 0 0.971137 0 0 0 0 0.341921 0 0 0 0 0.36709 0 0 0 0.3 0"/>
<feBlend mode="normal" in2="BackgroundImageFix" result="effect1_dropShadow_6_1920"/>
<feBlend mode="normal" in="SourceGraphic" in2="effect1_dropShadow_6_1920" result="shape"/>
</filter>
</defs>
</svg>
