<svg width="510" height="415" viewBox="0 0 510 415" fill="none" xmlns="http://www.w3.org/2000/svg">
<path d="M381.172 293.659L341.45 270.341L310.249 316.773C328.477 331.985 359.1 343.048 374.924 339.67C407.398 332.737 473.021 240.534 482.127 233.514C513.125 209.617 523.201 200.548 484.413 219.117C447.432 236.821 467.019 219.117 457.959 219.117C447.074 219.877 450.681 229.538 454.721 236.46L381.172 293.659Z" fill="url(#paint0_linear_6_1056)"/>
<path d="M155.79 258.334C166.997 250.552 211.279 236.534 230.726 230.497L251.302 232.742C264.266 235.956 292.072 241.435 304.863 246.621C317.654 251.806 340.866 268.343 362.521 282.133L357.408 299.841C352.816 315.744 340.672 328.356 324.955 333.547C320.91 359.269 317.422 401.086 317.998 414.05L167.512 413.933L160.622 350.285L129.634 353.605L103.457 333.547C136.234 276.853 141.782 268.062 155.79 258.334Z" fill="url(#paint1_linear_6_1056)"/>
<path d="M112.739 404.588C65.0583 398.543 96.0694 350.218 104.523 334.259C114.748 342.866 127.374 348.117 140.687 349.3L157.118 350.759L150.39 366.281L223.029 383.287L233.22 411.558C225.961 410.322 172.032 412.107 112.739 404.588Z" fill="url(#paint2_linear_6_1056)"/>
<path d="M235.798 103.623C238.145 99.3796 244.875 93.4385 253.022 103.623H235.798Z" fill="#30235B"/>
<ellipse cx="239.71" cy="249.006" rx="25.9725" ry="18.5082" fill="#386DF5"/>
<path d="M218.428 248.011L222.059 211.862H257.404L261.464 248.011C260.045 252.268 253.345 260.904 240.939 260.904C225.126 260.904 219.442 252.268 218.428 248.011Z" fill="url(#paint3_linear_6_1056)"/>
<mask id="mask0_6_1056" style="mask-type:alpha" maskUnits="userSpaceOnUse" x="218" y="211" width="44" height="50">
<path d="M218.428 248.011L222.059 211.862H257.404L261.472 248.084C260.053 252.341 253.33 260.905 240.923 260.905C225.111 260.905 219.442 252.268 218.428 248.011Z" fill="url(#paint4_linear_6_1056)"/>
</mask>
<g mask="url(#mask0_6_1056)">
<path opacity="0.1" d="M270.142 213.246C238.183 252.788 220.324 220.994 211.099 216.225L217.438 189.493L255.28 184.974L270.142 213.246Z" fill="black"/>
</g>
<path d="M239.097 226.374C200.98 226.374 194.425 171.659 206.202 146.633C232.7 114.246 265.824 133.138 279.073 146.633C282.263 167.488 285.78 226.374 239.097 226.374Z" fill="url(#paint5_linear_6_1056)"/>
<path d="M279.724 184.516L272.256 179.015L273.411 174.919L281.941 180.544L279.724 184.516Z" fill="#111111"/>
<path d="M201.919 182.921L209.387 177.419L208.232 173.324L199.702 178.948L201.919 182.921Z" fill="#111111"/>
<path d="M208.752 149.921C235.776 167.528 265.735 157.257 277.336 149.921C274.893 157.625 278.354 172.434 280.389 178.875C297.973 155.977 292.224 143.612 287.152 140.291C286.307 128.879 275.932 100.345 241.103 101.697C206.274 103.05 199.515 127.752 200.502 136.91C187.314 154.832 195.16 172.354 201.52 178.875C208.752 164.835 208.588 154.986 208.752 149.921Z" fill="#30235B"/>
<g filter="url(#filter0_d_6_1056)">
<path d="M243.871 119.318C203.527 117.968 194.541 144.499 193.335 159.905C193.239 161.139 192.23 162.11 190.992 162.11C189.672 162.11 188.62 161.01 188.737 159.695C190.498 139.941 201.03 105.422 243.871 107.802C287.127 110.205 295.589 144.64 294.261 163.836C294.19 164.863 293.323 165.639 292.293 165.639C291.17 165.639 290.269 164.728 290.224 163.606C289.588 147.679 278.999 120.336 243.871 119.318Z" fill="white"/>
</g>
<g filter="url(#filter1_d_6_1056)">
<rect x="295.069" y="171.939" width="5.4757" height="21.0131" rx="2.73785" transform="rotate(10.0542 295.069 171.939)" fill="#24C28A"/>
</g>
<g filter="url(#filter2_d_6_1056)">
<rect x="283.305" y="158.316" width="16.8668" height="43.7733" rx="8.43338" transform="rotate(10.0542 283.305 158.316)" fill="white"/>
</g>
<g filter="url(#filter3_d_6_1056)">
<rect width="5.4757" height="21.0131" rx="2.73785" transform="matrix(-0.984643 0.17458 0.17458 0.984643 186.159 171.939)" fill="#24C28A"/>
</g>
<g filter="url(#filter4_d_6_1056)">
<rect width="16.8668" height="43.7733" rx="8.43338" transform="matrix(-0.984643 0.17458 0.17458 0.984643 197.77 158.316)" fill="white"/>
</g>
<mask id="mask1_6_1056" style="mask-type:alpha" maskUnits="userSpaceOnUse" x="182" y="159" width="23" height="45">
<rect width="16.8668" height="43.7733" rx="8.43338" transform="matrix(-0.984643 0.17458 0.17458 0.984643 197.77 158.316)" fill="white"/>
</mask>
<g mask="url(#mask1_6_1056)">
<rect x="189.828" y="158.316" width="21.9399" height="47.5168" transform="rotate(-10.0977 189.828 158.316)" fill="#E8E8E8"/>
</g>
<mask id="mask2_6_1056" style="mask-type:alpha" maskUnits="userSpaceOnUse" x="277" y="159" width="22" height="45">
<rect x="283.305" y="158.316" width="16.8668" height="43.7733" rx="8.43338" transform="rotate(10.0542 283.305 158.316)" fill="white"/>
</mask>
<g mask="url(#mask2_6_1056)">
<rect width="21.9399" height="47.5168" transform="matrix(-0.98451 -0.175326 -0.175326 0.98451 292.271 158.316)" fill="#E8E8E8"/>
</g>
<path opacity="0.5" d="M222.672 190.907C217.279 190.907 214.564 186.657 213.874 184.76C213.08 183.173 212.454 179.038 214.333 175.753C216.722 171.577 227.951 170.412 231.885 176.312C235.818 182.212 231.885 190.907 222.672 190.907Z" fill="#E6FCFF"/>
<path opacity="0.5" d="M258.403 190.907C263.796 190.907 266.511 186.657 267.201 184.76C267.995 183.173 268.622 179.038 266.743 175.753C264.353 171.577 253.124 170.412 249.191 176.312C245.257 182.212 249.191 190.907 258.403 190.907Z" fill="#E6FCFF"/>
<path fill-rule="evenodd" clip-rule="evenodd" d="M234.67 175.01C225.876 167.287 217.932 170.555 213.225 172.491C212.702 172.707 212.218 172.905 211.778 173.071L208.831 173.076C208.276 173.077 207.828 173.53 207.833 174.085L207.855 176.563C207.86 177.112 208.306 177.554 208.855 177.554L210.986 177.554C209.442 190.805 219.214 194.351 227.029 191.962C233.997 189.833 235.862 183.808 236.235 180.028C237.725 176.725 244.26 178.251 244.518 179.954C244.524 179.994 244.531 180.039 244.538 180.088L244.538 180.088C244.845 182.162 246.39 192.611 258.153 192.625C267.788 192.637 270.401 184.03 270.504 179.724L272.998 179.702C273.55 179.697 273.994 179.246 273.989 178.693L273.962 175.662C273.957 175.11 273.505 174.666 272.953 174.671L270.459 174.693C264.183 168.335 250.701 168.93 245.952 174.91C240.713 173.702 236.248 174.474 234.67 175.01ZM222.672 190.907C217.28 190.907 214.564 186.657 213.874 184.76C213.081 183.173 212.454 179.038 214.333 175.753C216.722 171.577 227.951 170.412 231.885 176.312C235.818 182.212 231.885 190.907 222.672 190.907ZM267.202 184.76C266.512 186.657 263.797 190.907 258.404 190.907C249.192 190.907 245.259 182.212 249.192 176.312C253.125 170.412 264.355 171.577 266.744 175.753C268.623 179.038 267.996 183.173 267.202 184.76Z" fill="#111111"/>
<path d="M164.324 408.687C164.324 408.132 164.774 407.683 165.329 407.683H319.721C320.692 407.683 321.479 408.47 321.479 409.441C321.479 412.353 319.117 414.715 316.205 414.715H170.352C167.023 414.715 164.324 412.016 164.324 408.687Z" fill="#B4B4B4"/>
<rect x="164.324" y="305.147" width="157.155" height="105.147" rx="2.94666" fill="url(#paint6_linear_6_1056)"/>
<circle cx="242.901" cy="357.721" r="11.1765" fill="white"/>
<path fill-rule="evenodd" clip-rule="evenodd" d="M131.238 169.875C131.437 166.467 132.117 163.613 132.684 162.027C133.796 164.809 134.346 167.48 134.532 169.916C136.968 170.101 139.639 170.652 142.42 171.764C140.834 172.331 137.981 173.01 134.572 173.21C134.382 176.828 133.452 179.64 132.684 181.08C131.749 178.463 131.322 175.772 131.211 173.237C128.676 173.125 125.984 172.699 123.367 171.764C124.808 170.996 127.619 170.066 131.238 169.875Z" fill="url(#paint7_linear_6_1056)"/>
<path fill-rule="evenodd" clip-rule="evenodd" d="M104.35 147.449C104.483 145.18 104.935 143.28 105.313 142.225C106.053 144.076 106.419 145.854 106.543 147.475C108.164 147.599 109.942 147.965 111.794 148.706C110.738 149.083 108.839 149.535 106.57 149.668C106.443 152.077 105.824 153.948 105.313 154.907C104.69 153.165 104.407 151.373 104.333 149.686C102.645 149.612 100.853 149.328 99.1114 148.706C100.07 148.195 101.942 147.575 104.35 147.449Z" fill="url(#paint8_linear_6_1056)"/>
<path fill-rule="evenodd" clip-rule="evenodd" d="M61.0275 131.471C61.2268 128.062 61.9064 125.209 62.4728 123.623C63.5856 126.405 64.1356 129.075 64.3215 131.511C66.7571 131.697 69.4279 132.247 72.2097 133.36C70.6237 133.926 67.7703 134.606 64.3616 134.805C64.1715 138.424 63.2409 141.236 62.4728 142.676C61.5382 140.059 61.1117 137.367 61.0005 134.832C58.4653 134.721 55.7735 134.294 53.1567 133.36C54.5968 132.592 57.4086 131.661 61.0275 131.471Z" fill="url(#paint9_linear_6_1056)"/>
<path fill-rule="evenodd" clip-rule="evenodd" d="M64.7363 209.812C65.0295 204.797 66.0293 200.599 66.8627 198.265C68.4998 202.358 69.3091 206.287 69.5826 209.871C73.1659 210.144 77.0953 210.954 81.188 212.591C78.8546 213.424 74.6566 214.424 69.6416 214.717C69.3619 220.041 67.9927 224.178 66.8627 226.297C65.4877 222.447 64.8603 218.487 64.6966 214.757C60.9667 214.593 57.0065 213.966 53.1565 212.591C55.2753 211.461 59.412 210.091 64.7363 209.812Z" fill="url(#paint10_linear_6_1056)"/>
<circle cx="95.2052" cy="180.157" r="1.8414" fill="#2F235A"/>
<circle cx="137.463" cy="127.36" r="1.8414" fill="#FE9076"/>
<circle cx="44.8434" cy="172.847" r="1.8414" fill="#FFA400"/>
<circle cx="127.37" cy="208.557" r="1.8414" fill="#1A0F91"/>
<path d="M132.951 119.675C128.788 113.957 117.061 101.744 103.457 98.6345" stroke="#FE9076" stroke-width="1.60277" stroke-linecap="round"/>
<path d="M37.074 167.911C30.9208 164.424 15.1962 158.145 1.52289 160.932" stroke="#FFA400" stroke-width="1.60277" stroke-linecap="round"/>
<path d="M121.05 213.906C117.897 216.688 110.311 224.59 105.192 233.937" stroke="#1A0F91" stroke-width="1.60277" stroke-linecap="round"/>
<path fill-rule="evenodd" clip-rule="evenodd" d="M348.588 169.875C348.388 166.467 347.709 163.613 347.142 162.027C346.03 164.809 345.48 167.48 345.294 169.916C342.858 170.101 340.187 170.652 337.406 171.764C338.992 172.331 341.845 173.01 345.254 173.21C345.444 176.828 346.374 179.64 347.142 181.08C348.077 178.463 348.503 175.772 348.615 173.237C351.15 173.125 353.842 172.699 356.459 171.764C355.018 170.996 352.207 170.066 348.588 169.875Z" fill="url(#paint11_linear_6_1056)"/>
<path fill-rule="evenodd" clip-rule="evenodd" d="M375.475 147.449C375.343 145.18 374.89 143.28 374.513 142.225C373.773 144.076 373.407 145.854 373.283 147.475C371.662 147.599 369.884 147.965 368.032 148.706C369.088 149.083 370.987 149.535 373.256 149.668C373.383 152.077 374.002 153.948 374.513 154.907C375.135 153.165 375.419 151.373 375.493 149.686C377.181 149.612 378.973 149.328 380.715 148.706C379.756 148.195 377.884 147.575 375.475 147.449Z" fill="url(#paint12_linear_6_1056)"/>
<path fill-rule="evenodd" clip-rule="evenodd" d="M418.798 131.471C418.599 128.062 417.92 125.209 417.353 123.623C416.24 126.405 415.69 129.075 415.504 131.511C413.069 131.697 410.398 132.247 407.616 133.36C409.202 133.926 412.056 134.606 415.464 134.805C415.654 138.424 416.585 141.236 417.353 142.676C418.288 140.059 418.714 137.367 418.825 134.832C421.361 134.721 424.052 134.294 426.669 133.36C425.229 132.592 422.417 131.661 418.798 131.471Z" fill="url(#paint13_linear_6_1056)"/>
<path fill-rule="evenodd" clip-rule="evenodd" d="M415.09 209.812C414.796 204.797 413.797 200.599 412.963 198.265C411.326 202.358 410.517 206.287 410.243 209.871C406.66 210.144 402.731 210.954 398.638 212.591C400.971 213.424 405.169 214.424 410.184 214.717C410.464 220.041 411.833 224.178 412.963 226.297C414.338 222.447 414.966 218.487 415.129 214.757C418.859 214.593 422.819 213.966 426.669 212.591C424.551 211.461 420.414 210.091 415.09 209.812Z" fill="url(#paint14_linear_6_1056)"/>
<circle r="1.8414" transform="matrix(-1 0 0 1 384.621 180.157)" fill="#2F235A"/>
<circle r="1.8414" transform="matrix(-1 0 0 1 342.363 127.36)" fill="#FE9076"/>
<circle r="1.8414" transform="matrix(-1 0 0 1 434.983 172.847)" fill="#FFA400"/>
<circle r="1.8414" transform="matrix(-1 0 0 1 352.456 208.557)" fill="#1A0F91"/>
<path d="M346.875 119.675C351.038 113.957 362.765 101.744 376.369 98.6345" stroke="#FE9076" stroke-width="1.60277" stroke-linecap="round"/>
<path d="M442.752 167.911C448.905 164.424 464.63 158.145 478.303 160.932" stroke="#FFA400" stroke-width="1.60277" stroke-linecap="round"/>
<path d="M358.776 213.906C361.929 216.688 369.515 224.59 374.634 233.937" stroke="#1A0F91" stroke-width="1.60277" stroke-linecap="round"/>
<path d="M269.949 56.1737C267.861 52.9483 263.635 54.7054 263.635 58.2189C263.635 60.8572 269.428 64.9844 269.949 65.521C270.473 64.9844 275.979 60.8572 275.979 58.2189C275.979 54.732 272.041 52.9483 269.949 56.1737Z" fill="#386DF5"/>
<circle cx="269.807" cy="59.9987" r="13.7999" stroke="#F7F7F7" stroke-width="0.649684"/>
<path d="M220.426 36.9405C218.578 34.0859 214.838 35.641 214.838 38.7506C214.838 41.0856 219.966 44.7383 220.426 45.2132C220.89 44.7383 225.763 41.0856 225.763 38.7506C225.763 35.6645 222.278 34.0859 220.426 36.9405Z" fill="#386DF5"/>
<circle cx="220.3" cy="40.3258" r="12.2135" stroke="#F7F7F7" stroke-width="0.574998"/>
<path d="M253.109 15.9654C251.845 14.0131 249.287 15.0766 249.287 17.2034C249.287 18.8004 252.794 21.2986 253.109 21.6234C253.426 21.2986 256.759 18.8004 256.759 17.2034C256.759 15.0928 254.375 14.0131 253.109 15.9654Z" fill="#386DF5"/>
<circle cx="253.022" cy="18.2808" r="8.35318" stroke="#F7F7F7" stroke-width="0.393259"/>
<path d="M195.379 5.10129C194.345 3.50382 192.251 4.37407 192.251 6.11426C192.251 7.421 195.121 9.46511 195.379 9.7309C195.638 9.46511 198.365 7.421 198.365 6.11426C198.365 4.38726 196.415 3.50382 195.379 5.10129Z" fill="#386DF5"/>
<circle cx="195.308" cy="6.99577" r="6.83488" stroke="#F7F7F7" stroke-width="0.321779"/>
<path d="M190.292 79.9873C188.034 76.4995 183.464 78.3996 183.464 82.1989C183.464 85.0519 189.73 89.5148 190.292 90.0951C190.859 89.5148 196.813 85.0519 196.813 82.1989C196.813 78.4284 192.555 76.4995 190.292 79.9873Z" fill="#386DF5"/>
<circle cx="190.138" cy="84.1235" r="14.9226" stroke="#F7F7F7" stroke-width="0.702541"/>
<defs>
<filter id="filter0_d_6_1056" x="154.729" y="77.6848" width="173.661" height="125.955" filterUnits="userSpaceOnUse" color-interpolation-filters="sRGB">
<feFlood flood-opacity="0" result="BackgroundImageFix"/>
<feColorMatrix in="SourceAlpha" type="matrix" values="0 0 0 0 0 0 0 0 0 0 0 0 0 0 0 0 0 0 127 0" result="hardAlpha"/>
<feOffset dy="4"/>
<feGaussianBlur stdDeviation="17"/>
<feColorMatrix type="matrix" values="0 0 0 0 0.0386285 0 0 0 0 0.0648437 0 0 0 0 0.104167 0 0 0 0.13 0"/>
<feBlend mode="normal" in2="BackgroundImageFix" result="effect1_dropShadow_6_1056"/>
<feBlend mode="normal" in="SourceGraphic" in2="effect1_dropShadow_6_1056" result="shape"/>
</filter>
<filter id="filter1_d_6_1056" x="257.836" y="142.375" width="76.189" height="88.7753" filterUnits="userSpaceOnUse" color-interpolation-filters="sRGB">
<feFlood flood-opacity="0" result="BackgroundImageFix"/>
<feColorMatrix in="SourceAlpha" type="matrix" values="0 0 0 0 0 0 0 0 0 0 0 0 0 0 0 0 0 0 127 0" result="hardAlpha"/>
<feOffset dy="4"/>
<feGaussianBlur stdDeviation="17"/>
<feColorMatrix type="matrix" values="0 0 0 0 0.0386285 0 0 0 0 0.0648437 0 0 0 0 0.104167 0 0 0 0.13 0"/>
<feBlend mode="normal" in2="BackgroundImageFix" result="effect1_dropShadow_6_1056"/>
<feBlend mode="normal" in="SourceGraphic" in2="effect1_dropShadow_6_1056" result="shape"/>
</filter>
<filter id="filter2_d_6_1056" x="243.005" y="129.658" width="89.5669" height="111.363" filterUnits="userSpaceOnUse" color-interpolation-filters="sRGB">
<feFlood flood-opacity="0" result="BackgroundImageFix"/>
<feColorMatrix in="SourceAlpha" type="matrix" values="0 0 0 0 0 0 0 0 0 0 0 0 0 0 0 0 0 0 127 0" result="hardAlpha"/>
<feOffset dy="4"/>
<feGaussianBlur stdDeviation="17"/>
<feColorMatrix type="matrix" values="0 0 0 0 0.0386285 0 0 0 0 0.0648437 0 0 0 0 0.104167 0 0 0 0.13 0"/>
<feBlend mode="normal" in2="BackgroundImageFix" result="effect1_dropShadow_6_1056"/>
<feBlend mode="normal" in="SourceGraphic" in2="effect1_dropShadow_6_1056" result="shape"/>
</filter>
<filter id="filter3_d_6_1056" x="147.203" y="142.375" width="76.189" height="88.7753" filterUnits="userSpaceOnUse" color-interpolation-filters="sRGB">
<feFlood flood-opacity="0" result="BackgroundImageFix"/>
<feColorMatrix in="SourceAlpha" type="matrix" values="0 0 0 0 0 0 0 0 0 0 0 0 0 0 0 0 0 0 127 0" result="hardAlpha"/>
<feOffset dy="4"/>
<feGaussianBlur stdDeviation="17"/>
<feColorMatrix type="matrix" values="0 0 0 0 0.0386285 0 0 0 0 0.0648437 0 0 0 0 0.104167 0 0 0 0.13 0"/>
<feBlend mode="normal" in2="BackgroundImageFix" result="effect1_dropShadow_6_1056"/>
<feBlend mode="normal" in="SourceGraphic" in2="effect1_dropShadow_6_1056" result="shape"/>
</filter>
<filter id="filter4_d_6_1056" x="148.504" y="129.658" width="89.5669" height="111.363" filterUnits="userSpaceOnUse" color-interpolation-filters="sRGB">
<feFlood flood-opacity="0" result="BackgroundImageFix"/>
<feColorMatrix in="SourceAlpha" type="matrix" values="0 0 0 0 0 0 0 0 0 0 0 0 0 0 0 0 0 0 127 0" result="hardAlpha"/>
<feOffset dy="4"/>
<feGaussianBlur stdDeviation="17"/>
<feColorMatrix type="matrix" values="0 0 0 0 0.0386285 0 0 0 0 0.0648437 0 0 0 0 0.104167 0 0 0 0.13 0"/>
<feBlend mode="normal" in2="BackgroundImageFix" result="effect1_dropShadow_6_1056"/>
<feBlend mode="normal" in="SourceGraphic" in2="effect1_dropShadow_6_1056" result="shape"/>
</filter>
<linearGradient id="paint0_linear_6_1056" x1="391.304" y1="158.321" x2="393.951" y2="334.189" gradientUnits="userSpaceOnUse">
<stop stop-color="#FFEFE0"/>
<stop offset="1" stop-color="#FFBE99"/>
</linearGradient>
<linearGradient id="paint1_linear_6_1056" x1="242.798" y1="200.208" x2="230.398" y2="448.546" gradientUnits="userSpaceOnUse">
<stop stop-color="#1A0F91"/>
<stop offset="0.276042" stop-color="#384BF5"/>
</linearGradient>
<linearGradient id="paint2_linear_6_1056" x1="227.733" y1="287.483" x2="109.061" y2="344.358" gradientUnits="userSpaceOnUse">
<stop offset="0.0677966" stop-color="#FFEFE0"/>
<stop offset="1" stop-color="#FFBE99"/>
</linearGradient>
<linearGradient id="paint3_linear_6_1056" x1="238.727" y1="172.975" x2="240.807" y2="239.361" gradientUnits="userSpaceOnUse">
<stop stop-color="#FFEFE0"/>
<stop offset="1" stop-color="#FFBE99"/>
</linearGradient>
<linearGradient id="paint4_linear_6_1056" x1="238.727" y1="172.975" x2="235.813" y2="248.606" gradientUnits="userSpaceOnUse">
<stop stop-color="#FFEFE0"/>
<stop offset="1" stop-color="#FFBE99"/>
</linearGradient>
<linearGradient id="paint5_linear_6_1056" x1="242.184" y1="137.583" x2="242.184" y2="217.302" gradientUnits="userSpaceOnUse">
<stop stop-color="#FFEFE0"/>
<stop offset="1" stop-color="#FFBE99"/>
</linearGradient>
<linearGradient id="paint6_linear_6_1056" x1="275.352" y1="226.235" x2="217.247" y2="434.729" gradientUnits="userSpaceOnUse">
<stop offset="0.0171777" stop-color="white"/>
<stop offset="1" stop-color="#D7D7D7"/>
</linearGradient>
<linearGradient id="paint7_linear_6_1056" x1="132.894" y1="164.055" x2="132.894" y2="181.945" gradientUnits="userSpaceOnUse">
<stop stop-color="#FFE89E"/>
<stop offset="1" stop-color="#FFBF1A"/>
</linearGradient>
<linearGradient id="paint8_linear_6_1056" x1="105.453" y1="143.575" x2="105.453" y2="155.482" gradientUnits="userSpaceOnUse">
<stop stop-color="#FFE89E"/>
<stop offset="1" stop-color="#FFBF1A"/>
</linearGradient>
<linearGradient id="paint9_linear_6_1056" x1="62.6832" y1="125.651" x2="62.6832" y2="143.54" gradientUnits="userSpaceOnUse">
<stop stop-color="#FFE89E"/>
<stop offset="1" stop-color="#FFBF1A"/>
</linearGradient>
<linearGradient id="paint10_linear_6_1056" x1="67.1722" y1="201.249" x2="67.1722" y2="227.569" gradientUnits="userSpaceOnUse">
<stop stop-color="#FFE89E"/>
<stop offset="1" stop-color="#FFBF1A"/>
</linearGradient>
<linearGradient id="paint11_linear_6_1056" x1="346.932" y1="164.055" x2="346.932" y2="181.945" gradientUnits="userSpaceOnUse">
<stop stop-color="#FFE89E"/>
<stop offset="1" stop-color="#FFBF1A"/>
</linearGradient>
<linearGradient id="paint12_linear_6_1056" x1="374.373" y1="143.575" x2="374.373" y2="155.482" gradientUnits="userSpaceOnUse">
<stop stop-color="#FFE89E"/>
<stop offset="1" stop-color="#FFBF1A"/>
</linearGradient>
<linearGradient id="paint13_linear_6_1056" x1="417.143" y1="125.651" x2="417.143" y2="143.54" gradientUnits="userSpaceOnUse">
<stop stop-color="#FFE89E"/>
<stop offset="1" stop-color="#FFBF1A"/>
</linearGradient>
<linearGradient id="paint14_linear_6_1056" x1="412.654" y1="201.249" x2="412.654" y2="227.569" gradientUnits="userSpaceOnUse">
<stop stop-color="#FFE89E"/>
<stop offset="1" stop-color="#FFBF1A"/>
</linearGradient>
</defs>
</svg>
