<svg width="34" height="37" viewBox="0 0 34 37" fill="none" xmlns="http://www.w3.org/2000/svg">
<path fill-rule="evenodd" clip-rule="evenodd" d="M33.3391 10.9674C33.2616 9.07987 32.9776 7.78224 32.5706 6.65783C32.1508 5.46429 31.5049 4.39572 30.6587 3.50741C29.8319 2.60528 28.8308 1.90429 27.7328 1.46027C26.6803 1.02303 25.4788 0.717797 23.7221 0.634578C21.9523 0.54431 21.3904 0.523438 16.9016 0.523438C12.4128 0.523438 11.8509 0.54431 10.0876 0.62753C8.33087 0.710749 7.12314 1.01625 6.07687 1.45322C4.96576 1.90429 3.97122 2.59823 3.14445 3.50741C2.30481 4.39572 1.65263 5.47134 1.23912 6.65105C0.832167 7.78224 0.548083 9.07282 0.470628 10.9603C0.386614 12.8619 0.367188 13.4656 0.367188 18.2885C0.367188 23.1114 0.386614 23.7151 0.464069 25.6097C0.541523 27.4971 0.825859 28.7948 1.23281 29.9192C1.65263 31.1127 2.30481 32.1813 3.14445 33.0696C3.97122 33.9717 4.97232 34.6727 6.07031 35.1168C7.12314 35.554 8.32431 35.8592 10.0813 35.9424C11.8443 36.0259 12.4064 36.0465 16.8953 36.0465C21.3841 36.0465 21.946 36.0259 23.7092 35.9424C25.466 35.8592 26.6737 35.554 27.72 35.1168C29.9419 34.1937 31.6987 32.3063 32.5577 29.9192C32.9644 28.788 33.2488 27.4971 33.3262 25.6097C33.4037 23.7151 33.4231 23.1114 33.4231 18.2885C33.4231 13.4656 33.4165 12.8619 33.3391 10.9674ZM30.3618 25.4709C30.2906 27.2057 30.0194 28.1426 29.7933 28.7671C29.2378 30.3147 28.0946 31.5429 26.6543 32.1398C26.073 32.3827 25.1948 32.6741 23.5864 32.7503C21.8425 32.8338 21.3195 32.8544 16.9081 32.8544C12.4968 32.8544 11.9672 32.8338 10.2296 32.7503C8.61496 32.6741 7.74303 32.3827 7.16174 32.1398C6.44497 31.8552 5.79253 31.4041 5.26297 30.8143C4.71397 30.2382 4.29416 29.5443 4.02925 28.7742C3.80319 28.1496 3.53197 27.2057 3.46108 25.4779C3.38337 23.6043 3.3642 23.0421 3.3642 18.3023C3.3642 13.5626 3.38337 12.9936 3.46108 11.127C3.53197 9.39215 3.80319 8.45532 4.02925 7.83077C4.29416 7.06037 4.71397 6.35965 5.26953 5.7904C5.8054 5.20054 6.45128 4.74947 7.1683 4.46512C7.74959 4.22224 8.62808 3.93083 10.2362 3.85439C11.9801 3.77117 12.5033 3.7503 16.9144 3.7503C21.3324 3.7503 21.8554 3.77117 23.5929 3.85439C25.2076 3.93083 26.0796 4.22224 26.6608 4.46512C27.3776 4.74947 28.03 5.20054 28.5596 5.7904C29.1086 6.36643 29.5284 7.06037 29.7933 7.83077C30.0194 8.45532 30.2906 9.39893 30.3618 11.127C30.4392 13.0007 30.4586 13.5626 30.4586 18.3023C30.4586 23.0421 30.4392 23.5972 30.3618 25.4709ZM16.9025 9.16406C12.2136 9.16406 8.40923 13.2513 8.40923 18.2895C8.40923 23.3277 12.2136 27.4149 16.9025 27.4149C21.5916 27.4149 25.3957 23.3277 25.3957 18.2895C25.3957 13.2513 21.5916 9.16406 16.9025 9.16406ZM16.9025 24.2089C13.8606 24.2089 11.3931 21.5581 11.3931 18.2895C11.3931 15.0209 13.8606 12.37 16.9025 12.37C19.9447 12.37 22.4118 15.0209 22.4118 18.2895C22.4118 21.5581 19.9447 24.2089 16.9025 24.2089ZM25.7312 10.9334C26.8266 10.9334 27.7146 9.97933 27.7146 8.80265C27.7146 7.62569 26.8266 6.67188 25.7312 6.67188C24.636 6.67188 23.748 7.62569 23.748 8.80265C23.748 9.97933 24.636 10.9334 25.7312 10.9334Z" fill="black"/>
</svg>
