<svg width="11" height="11" viewBox="0 0 11 11" fill="none" xmlns="http://www.w3.org/2000/svg">
<g clip-path="url(#clip0_145_2889)">
<path d="M5.53421 8.81257C3.54116 8.81257 1.92578 7.19719 1.92578 5.20413C1.92578 3.21108 3.54116 1.5957 5.53421 1.5957C7.52727 1.5957 9.14264 3.21108 9.14264 5.20413C9.14264 7.19719 7.52727 8.81257 5.53421 8.81257Z" stroke="#41477A" stroke-linecap="round" stroke-linejoin="round"/>
<path d="M5.53375 7.20879V5.2041H5.13281" stroke="#41477A" stroke-linecap="round" stroke-linejoin="round"/>
<path d="M5.43415 3.59961C5.37864 3.59961 5.33358 3.64466 5.33399 3.70018C5.33399 3.75569 5.37904 3.80075 5.43456 3.80075C5.49007 3.80075 5.53512 3.75569 5.53512 3.70018C5.53512 3.64466 5.49007 3.59961 5.43415 3.59961Z" stroke="#41477A" stroke-linecap="round" stroke-linejoin="round"/>
</g>
<defs>
<clipPath id="clip0_145_2889">
<rect width="9.62248" height="9.62248" fill="white" transform="translate(0.722656 0.392578)"/>
</clipPath>
</defs>
</svg>
