<svg width="38" height="36" viewBox="0 0 38 36" fill="none" xmlns="http://www.w3.org/2000/svg">
<path fill-rule="evenodd" clip-rule="evenodd" d="M28.1812 11.4529C33.4214 11.4529 37.3521 14.879 37.3521 22.2406V35.9829H29.3863V23.1593C29.3863 19.9385 28.234 17.7408 25.3499 17.7408C23.1499 17.7408 21.8393 19.2228 21.2643 20.6531C21.0531 21.1658 21.0015 21.8816 21.0015 22.5973V35.984H13.0345L13.0358 35.7155C13.0425 34.2703 13.0741 27.259 13.0803 21.2031L13.0804 17.5406C13.0769 14.7808 13.0639 12.6417 13.0345 12.0149H21.0015V15.4106C22.0575 13.7784 23.9525 11.4529 28.1812 11.4529ZM8.62504 12.0149V35.9829H0.659185V12.0149H8.62504ZM4.69433 0.460938C7.41884 0.460938 9.0979 2.25029 9.14953 4.60051C9.14953 6.90262 7.41884 8.7436 4.64153 8.7436H4.59107C1.91701 8.7436 0.1875 6.90262 0.1875 4.60051C0.1875 2.25029 1.96981 0.460938 4.69433 0.460938Z" fill="black"/>
</svg>
