<svg width="246" height="344" viewBox="0 0 246 344" fill="none" xmlns="http://www.w3.org/2000/svg">
<g clip-path="url(#clip0_350_2047)">
<path d="M165.529 162.661C161.578 162.661 158.363 159.446 158.363 155.496V134.314C158.363 130.363 161.578 127.149 165.529 127.149C169.479 127.149 172.694 130.363 172.694 134.314V155.496C172.694 159.447 169.479 162.661 165.529 162.661Z" fill="white"/>
<path d="M177.947 142.271C177.223 142.271 176.637 142.858 176.637 143.581V156.294C176.637 162.395 171.672 167.36 165.571 167.36H165.486C159.385 167.36 154.421 162.395 154.421 156.294V143.456C154.421 142.731 153.834 142.146 153.111 142.146C152.388 142.146 151.801 142.733 151.801 143.456V156.294C151.801 163.413 157.265 169.28 164.22 169.922V186.626C164.22 187.351 164.807 187.936 165.53 187.936C166.254 187.936 166.84 187.349 166.84 186.626V169.922C173.795 169.28 179.259 163.413 179.259 156.294V143.581C179.258 142.858 178.671 142.271 177.947 142.271Z" fill="white"/>
<path d="M286.892 154.268C286.892 170.892 283.523 186.73 277.43 201.135C268.429 222.417 274.882 243.473 256.073 256.419C250.421 260.309 225.503 287.529 209.841 258.45C201.859 243.633 195.021 289.13 166.699 252.253C156.317 238.735 133.225 271.131 118.53 264.744C99.6557 256.539 53.2881 265.616 40.9136 249.495C25.3347 229.201 41.3366 177.918 41.3366 150.357C41.3366 119.419 57.7474 95.1179 76.9218 73.7927C90.1422 59.0906 106.93 47.6595 125.922 40.866C138.597 36.3323 152.253 33.8623 166.486 33.8623C193.098 33.8623 175.972 76.8537 195.903 91.4725C210.135 101.911 263.71 81.0451 272.221 96.6228C281.575 113.742 286.892 133.385 286.892 154.268Z" stroke="white" stroke-width="0.726687" stroke-miterlimit="10"/>
<path d="M287.64 154.268C290.372 170.054 284.434 188.693 277.574 203.738C267.785 225.208 272.949 245.436 253.366 258.122C247.596 261.86 223.284 287.39 207.31 259.662C199.028 245.286 192.508 289.451 164.237 254.509C153.343 241.044 131.46 269.808 116.635 262.779C97.5283 253.677 51.6183 261.936 39.5079 244.961C25.0531 224.701 41.0909 175.652 40.159 148.651C39.1297 118.841 57.162 95.6538 75.1187 74.2388C88.8326 57.8844 106.179 48.9491 125.551 41.8723C138.569 37.1066 149.483 32.1576 166.421 32.2768C193.2 32.4665 177.747 74.5016 197.859 89.1397C212.255 99.6145 265.055 79.2942 273.724 94.9501C283.437 112.432 284.187 134.313 287.64 154.268Z" stroke="white" stroke-width="0.726687" stroke-miterlimit="10"/>
<path d="M288.389 154.268C293.799 169.131 285.358 190.658 277.72 206.342C267.169 228.007 271.029 247.407 250.662 259.826C244.776 263.415 221.041 287.249 204.78 260.872C196.187 246.932 189.907 289.81 161.774 256.765C150.35 243.346 129.695 268.486 114.739 260.814C95.4005 250.815 49.9507 258.293 38.1005 240.426C24.725 220.259 40.8551 173.415 38.9785 146.943C36.9456 118.283 56.4737 96.0691 73.3114 74.6849C87.5252 56.6334 105.425 50.2385 125.175 42.8785C138.537 37.8808 146.708 30.4438 166.352 30.6912C193.298 31.0296 179.517 72.1495 199.812 86.8081C214.371 97.3188 266.396 77.5433 275.222 93.2799C285.301 111.121 281.42 135.121 288.389 154.268Z" stroke="white" stroke-width="0.726687" stroke-miterlimit="10"/>
<path d="M289.137 154.268C297.132 168.161 286.295 192.625 277.865 208.945C266.571 230.81 269.118 249.384 247.954 261.529C241.955 264.971 218.765 287.109 202.248 262.083C193.332 248.576 187.223 290.212 159.312 259.021C147.339 245.642 127.912 267.196 112.843 258.849C93.2482 247.995 48.2816 254.686 36.6942 235.892C24.353 215.873 40.6357 171.21 37.7991 145.237C34.7958 117.745 55.7006 96.3921 71.5051 75.1297C86.2162 55.3401 104.673 51.5268 124.802 43.8834C138.507 38.655 143.935 28.7224 166.285 29.1043C193.399 29.5683 181.289 69.7962 201.766 84.474C216.491 95.0206 267.708 75.8091 276.723 91.6059C287.126 109.832 278.542 135.855 289.137 154.268Z" stroke="white" stroke-width="0.726687" stroke-miterlimit="10"/>
<path d="M289.883 154.268C300.364 167.192 287.24 194.594 278.007 211.548C265.989 233.618 267.212 251.37 245.246 263.233C239.138 266.531 216.459 286.972 199.714 263.294C190.463 250.214 184.457 290.658 156.847 261.278C144.307 247.935 126.139 265.881 110.945 256.884C91.1115 245.142 46.6025 251.114 35.2855 231.357C23.9301 211.536 40.4332 169.034 36.6173 143.529C32.6822 117.229 54.8521 96.642 69.6978 75.5758C84.8948 54.0122 103.919 52.815 124.428 44.8896C138.476 39.4292 141.162 26.9945 166.217 27.5188C193.497 28.0904 183.061 67.4441 203.72 82.1424C218.609 92.7249 269.042 74.0645 278.223 89.9344C288.978 108.527 275.541 136.583 289.883 154.268Z" stroke="white" stroke-width="0.726687" stroke-miterlimit="10"/>
<path d="M290.632 154.268C303.527 166.259 288.197 196.568 278.153 214.152C265.425 236.434 265.318 253.363 242.539 264.936C236.325 268.093 214.122 286.84 197.183 264.504C187.584 251.848 181.621 291.149 154.384 263.533C141.26 250.226 124.37 264.562 109.048 254.918C88.9767 242.284 44.9125 247.572 33.8788 226.822C23.4656 207.24 40.2583 166.887 35.4375 141.821C30.6128 116.729 53.9428 96.8342 67.8925 76.0217C83.5573 52.6508 103.167 54.1043 124.054 45.8957C138.446 40.2046 138.389 25.2589 166.15 25.9331C193.597 26.5996 184.833 65.0919 205.674 79.8094C220.727 90.4278 270.38 72.3161 279.723 88.2616C290.832 107.221 272.446 137.357 290.632 154.268Z" stroke="white" stroke-width="0.726687" stroke-miterlimit="10"/>
<path d="M291.377 154.268C306.646 165.376 289.16 198.546 278.295 216.755C264.87 239.256 263.428 255.365 239.831 266.64C233.512 269.66 211.751 286.715 194.649 265.716C184.687 253.482 178.714 291.686 151.919 265.789C138.191 252.521 122.598 263.243 107.15 252.953C86.8414 239.426 43.2027 244.06 32.4703 222.287C22.953 202.982 40.1098 164.766 34.2558 140.114C28.589 116.245 52.9751 96.9817 66.084 76.4679C82.1923 51.2589 102.411 55.3939 123.679 46.9021C138.414 40.9789 135.614 23.517 166.081 24.3476C193.694 25.1013 186.603 62.7399 207.626 77.478C222.844 88.1322 271.717 70.5704 281.222 86.5902C292.686 105.915 269.291 138.2 291.377 154.268Z" stroke="white" stroke-width="0.726687" stroke-miterlimit="10"/>
<path d="M292.126 154.268C309.752 164.537 290.134 200.528 278.44 219.357C264.327 242.082 261.546 257.375 237.125 268.341C230.702 271.225 209.349 286.6 192.119 266.923C181.777 255.114 175.747 292.265 149.457 268.042C135.105 254.818 120.831 261.919 105.256 250.985C84.711 236.564 41.4736 240.575 31.0641 217.751C22.4005 198.755 39.9982 162.665 33.0778 138.405C26.6201 115.769 51.9651 97.0907 64.2792 76.9127C80.8028 49.836 101.66 56.6808 123.307 47.907C138.386 41.7518 132.842 21.7661 166.014 22.762C193.796 23.5952 188.376 60.3878 209.581 75.1451C224.962 85.8339 273.057 68.8207 282.723 84.9187C294.545 104.607 266.113 139.112 292.126 154.268Z" stroke="white" stroke-width="0.726687" stroke-miterlimit="10"/>
<path d="M292.875 154.268C312.859 163.736 291.115 202.514 278.586 221.96C263.796 244.915 259.67 259.395 234.419 270.044C227.894 272.796 206.913 286.501 189.587 268.135C178.85 256.752 172.721 292.895 146.994 270.298C132 257.128 119.063 260.598 103.359 249.02C82.5788 233.702 39.7118 237.116 29.6574 213.217C21.8064 194.556 39.9271 160.583 31.898 136.699C24.7033 115.3 50.9121 97.174 62.4726 77.3587C79.3756 48.3876 100.907 57.9716 122.932 48.9145C138.355 42.5286 130.068 20.0113 165.945 21.1777C193.894 22.0865 190.148 58.037 211.534 72.8148C227.079 83.5396 274.397 67.0736 284.223 83.2486C296.405 103.3 262.934 140.082 292.875 154.268Z" stroke="white" stroke-width="0.726687" stroke-miterlimit="10"/>
<path d="M293.622 154.268C315.973 162.961 292.102 204.505 278.729 224.564C263.269 247.753 257.797 261.425 231.712 271.748C225.086 274.369 204.443 286.42 187.055 269.344C175.907 258.397 169.642 293.569 144.53 272.554C128.872 259.449 117.296 259.273 101.462 247.055C80.4485 230.839 37.9147 233.681 28.25 208.682C21.1732 190.378 39.9015 158.509 30.7174 134.991C22.8434 114.829 49.8213 97.2328 60.6653 77.8047C77.908 46.9109 100.153 59.2597 122.558 49.9206C138.324 43.3027 127.295 18.2474 165.877 19.592C193.994 20.5713 191.92 55.6861 213.487 70.4818C229.197 81.2425 275.737 65.3239 285.723 81.5757C298.264 101.99 259.759 141.096 293.622 154.268Z" stroke="white" stroke-width="0.726687" stroke-miterlimit="10"/>
<path d="M294.369 154.268C319.096 162.206 293.095 206.501 278.872 227.167C262.75 250.596 255.927 263.466 229.003 273.451C222.279 275.946 201.939 286.36 184.521 270.556C172.944 260.051 166.513 294.289 142.065 274.81C125.721 261.788 115.527 257.949 99.5634 245.09C78.3164 227.974 36.0736 230.266 26.8409 204.149C20.5024 186.219 39.9254 156.436 29.5352 133.285C21.0395 114.352 48.7019 97.2726 58.8575 78.2508C76.3937 45.4074 99.3994 60.5492 122.183 50.9268C138.294 44.0769 124.521 16.4786 165.809 18.0065C194.093 19.0537 193.691 53.334 215.44 68.1502C231.314 78.9468 277.08 63.5742 287.222 79.9043C300.124 100.68 256.597 142.142 294.369 154.268Z" stroke="white" stroke-width="0.726687" stroke-miterlimit="10"/>
<path d="M295.116 154.268C322.231 161.464 294.093 208.5 279.017 229.77C262.237 253.443 254.061 265.516 226.296 275.155C219.473 277.524 199.409 286.324 181.99 271.766C169.967 261.718 163.346 295.055 139.602 277.066C122.552 264.148 113.763 256.625 97.6671 243.125C76.1881 225.11 34.1888 226.87 25.4329 199.614C19.7969 182.071 40.0069 154.353 28.3541 131.577C19.2918 113.862 47.5541 97.2996 57.0509 78.6969C74.8268 43.877 98.6464 61.8375 121.808 51.9331C138.263 44.8524 121.748 14.7021 165.741 16.421C194.193 17.5323 195.462 50.982 217.393 65.8175C233.431 76.6499 278.423 61.8221 288.721 78.2316C301.986 99.3697 253.45 143.21 295.116 154.268Z" stroke="white" stroke-width="0.726687" stroke-miterlimit="10"/>
<path d="M295.865 154.268C325.377 160.732 295.099 210.505 279.162 232.374C261.73 256.295 252.2 267.576 223.59 276.858C216.669 279.104 196.852 286.315 179.458 272.977C166.971 263.402 160.143 295.864 137.14 279.322C119.36 266.536 111.997 255.299 95.7711 241.16C74.0613 222.244 32.2518 223.488 24.0265 195.08C19.0621 177.933 40.1502 152.248 27.1759 129.871C17.597 113.35 46.3823 97.3163 55.2459 79.143C73.2038 42.3209 97.895 63.127 121.436 52.938C138.234 45.6254 118.979 12.9179 165.675 14.8342C194.295 16.0083 197.235 48.6286 219.349 63.4846C235.551 74.353 279.77 60.0699 290.223 76.5589C303.852 98.0585 250.318 144.293 295.865 154.268Z" stroke="white" stroke-width="0.726687" stroke-miterlimit="10"/>
<path d="M296.615 154.268C328.534 160.005 296.11 212.514 279.308 234.977C261.227 259.15 250.341 269.644 220.885 278.562C213.866 280.687 194.274 286.335 176.929 274.187C163.962 265.106 156.91 296.715 134.68 281.577C116.145 268.955 110.237 253.972 93.8776 239.193C71.9385 219.374 30.2571 220.116 22.6227 190.544C18.3005 173.801 40.3602 150.104 25.999 128.164C15.951 112.812 45.1913 97.324 53.4422 79.5878C71.5155 40.7366 97.1449 64.4152 121.066 53.9442C138.206 46.4009 116.209 11.1285 165.609 13.2486C194.398 14.4842 199.009 46.2765 221.305 61.1517C237.672 72.056 281.117 58.3177 291.725 74.8874C305.72 96.7459 247.201 145.386 296.615 154.268Z" stroke="white" stroke-width="0.726687" stroke-miterlimit="10"/>
<path d="M297.362 154.268C331.697 159.282 297.123 214.526 279.452 237.58C260.726 262.011 248.48 271.723 218.178 280.265C211.061 282.271 191.675 286.387 174.396 275.398C160.935 266.836 153.648 297.61 132.215 283.834C112.901 271.42 108.472 252.645 91.9794 237.229C69.8108 216.508 28.1909 216.757 21.2141 186.01C17.5059 169.668 40.6282 147.91 24.8172 126.456C14.3399 112.24 43.9762 97.3277 51.6336 80.0337C69.7492 39.1266 96.39 65.7045 120.69 54.9503C138.175 47.1749 113.438 9.33255 165.542 11.6629C194.499 12.9575 200.781 43.9243 223.258 58.82C239.789 69.7601 282.463 56.5654 293.225 73.2159C307.585 95.4332 244.09 146.487 297.362 154.268Z" stroke="white" stroke-width="0.726687" stroke-miterlimit="10"/>
<path d="M298.111 154.268C334.868 158.563 298.14 216.544 279.598 240.184C260.23 264.875 246.623 273.811 215.472 281.969C208.257 283.858 189.064 286.473 171.866 276.608C157.896 268.596 150.369 298.546 129.754 286.088C109.635 273.931 106.743 251.285 90.0849 235.263C67.7317 213.594 26.0554 213.401 19.808 181.475C16.6894 165.536 40.9627 145.649 23.638 124.748C12.7645 111.63 42.7444 97.3303 49.8289 80.4798C67.9034 37.491 95.6389 66.9928 120.317 55.9566C138.146 47.9492 110.668 7.53168 165.475 10.0773C194.601 11.4296 202.553 41.5723 225.213 56.4872C241.908 67.4632 283.811 54.8119 294.726 71.5432C309.454 94.1194 240.99 147.593 298.111 154.268Z" stroke="white" stroke-width="0.726687" stroke-miterlimit="10"/>
<path d="M298.859 154.268C338.043 157.845 299.162 218.565 279.743 242.787C259.737 267.741 244.764 275.908 212.767 283.672C205.454 285.446 186.445 286.592 169.334 277.82C154.846 270.39 147.075 299.525 127.29 288.346C106.337 276.504 104.978 249.962 88.1878 233.299C65.6026 210.732 23.8392 210.047 18.4005 176.941C15.8472 161.398 41.3536 143.304 22.4587 123.042C11.2084 110.976 41.4959 97.3315 48.0228 80.9259C65.9653 35.8272 94.8864 68.2822 119.944 56.9627C138.116 48.7234 107.898 5.72432 165.408 8.49171C194.702 9.90169 204.326 39.2201 227.168 54.1556C244.027 65.1675 285.16 53.0584 296.227 69.8717C311.321 92.8055 237.897 148.702 298.859 154.268Z" stroke="white" stroke-width="0.726687" stroke-miterlimit="10"/>
<path d="M299.604 154.268C341.22 157.129 300.183 220.59 279.883 245.39C259.24 270.612 242.902 278.014 210.055 285.376C202.645 287.037 183.819 286.747 166.798 279.03C151.783 272.222 143.771 300.545 124.823 290.6C103.009 279.151 103.209 248.638 86.2876 231.333C63.4717 207.868 21.5352 206.688 16.9913 172.406C14.9827 157.252 41.7901 140.864 21.275 121.334C9.65942 110.276 40.2276 97.3367 46.2136 81.372C63.9216 34.1391 94.1296 69.5705 119.567 57.969C138.082 49.4989 105.125 3.91061 165.337 6.90616C194.8 8.37125 206.096 36.8694 229.118 51.8228C246.141 62.8706 286.533 51.2857 297.723 68.199C313.228 91.4635 234.809 149.813 299.604 154.268Z" stroke="white" stroke-width="0.726687" stroke-miterlimit="10"/>
<path d="M300.354 154.268C344.405 156.412 301.211 222.618 280.03 247.994C258.751 273.485 241.045 280.128 207.351 287.079C199.842 288.628 181.207 286.937 164.269 280.241C148.725 274.096 140.473 301.606 122.362 292.856C99.6559 281.888 101.444 247.316 84.3923 229.368C61.343 205.006 19.1413 203.321 15.5843 167.871C14.1013 153.092 42.27 138.317 20.0962 119.627C8.11528 109.528 38.9488 97.3457 44.408 81.8168C61.7712 32.4241 93.3776 70.8587 119.194 58.9739C138.053 50.2718 102.357 2.0905 165.271 5.31934C194.903 6.83954 207.869 34.516 231.073 49.4899C248.261 60.5736 287.877 49.5335 299.225 66.5275C315.091 90.1523 231.731 150.926 300.354 154.268Z" stroke="white" stroke-width="0.726687" stroke-miterlimit="10"/>
<path d="M301.102 154.268C347.594 155.698 302.241 224.651 280.175 250.597C258.263 276.361 239.186 282.251 204.645 288.783C197.039 290.221 178.606 287.16 161.739 281.451C145.668 276.011 137.185 302.707 119.901 295.112C96.2762 284.731 99.6807 245.993 82.4995 227.403C59.2183 202.143 16.6538 199.937 14.1799 163.338C13.2057 148.92 42.7742 135.657 18.9187 117.921C6.56092 108.733 37.6598 97.3623 42.6037 82.2641C59.4964 30.6885 92.6269 72.1494 118.823 59.9814C138.024 51.0473 99.5948 0.149801 165.203 3.73498C195.008 5.25647 209.641 32.1652 233.027 47.1583C250.379 58.2779 289.219 47.7838 300.725 64.856C316.954 88.8422 228.656 152.04 301.102 154.268Z" stroke="white" stroke-width="0.726687" stroke-miterlimit="10"/>
<path d="M301.849 154.268C350.783 155.06 303.318 226.725 280.319 253.2C257.818 279.278 237.325 284.381 201.937 290.485C194.232 291.814 176.02 287.414 159.205 282.661C142.613 277.971 133.912 303.849 117.436 297.367C92.8666 287.701 97.9143 244.669 80.6011 225.437C57.0879 199.279 14.0607 196.53 12.7712 158.803C12.2905 144.73 43.283 132.883 17.7368 116.212C4.97915 107.887 36.3523 97.3854 40.7963 82.7089C57.0802 28.93 91.8732 73.4377 118.447 60.9863C137.993 51.8215 96.8235 -1.62544 165.135 2.14944C195.108 3.75169 211.412 29.8131 234.98 44.8268C252.496 55.9822 290.563 46.0342 302.224 63.1846C318.815 87.531 225.582 153.273 301.849 154.268Z" stroke="white" stroke-width="0.726687" stroke-miterlimit="10"/>
<path d="M302.597 154.268C353.978 154.268 304.308 228.724 280.463 255.804C257.288 282.121 235.463 286.519 199.231 292.189C191.426 293.41 173.463 287.697 156.674 283.871C139.572 279.974 130.675 305.034 114.973 299.623C89.4386 290.825 96.1488 243.346 78.7049 223.472C54.9596 196.417 11.3633 193.094 11.3633 154.268C11.3633 140.517 43.7811 129.999 16.5558 114.505C3.37002 107.001 35.0342 97.4214 38.9898 83.155C54.5149 27.1534 91.1203 74.7259 118.074 61.9926C137.963 52.597 94.0518 -3.3994 165.068 0.56391C195.208 2.24562 213.184 27.4611 236.935 42.4939C254.614 53.6853 291.906 44.2833 303.725 61.5119C320.677 86.2211 222.518 154.268 302.597 154.268Z" stroke="white" stroke-width="0.726687" stroke-miterlimit="10"/>
</g>
<circle cx="166.722" cy="176.722" r="166.722" fill="url(#paint0_radial_350_2047)" fill-opacity="0.5"/>
<defs>
<radialGradient id="paint0_radial_350_2047" cx="0" cy="0" r="1" gradientUnits="userSpaceOnUse" gradientTransform="translate(166.722 176.722) rotate(90) scale(166.722)">
<stop stop-color="white"/>
<stop offset="1" stop-color="#D9D9D9" stop-opacity="0"/>
</radialGradient>
<clipPath id="clip0_350_2047">
<rect width="314.401" height="300.756" fill="white" transform="translate(11)"/>
</clipPath>
</defs>
</svg>
