<svg width="736" height="501" viewBox="0 0 736 501" fill="none" xmlns="http://www.w3.org/2000/svg">
<g clip-path="url(#clip0_157_5259)">
<path d="M138.941 380.105C134.266 363.205 112.191 364.765 112.191 364.765L112.711 376.465C125.436 374.385 133.487 389.204 133.487 389.204L138.941 380.105Z" fill="#E0E0E0"/>
<path d="M462.791 184.073C488.502 191.873 504.344 162.234 504.344 162.234L488.762 153.395C481.23 171.594 455.52 169.514 455.52 169.514L462.791 184.073Z" fill="#E0E0E0"/>
<path d="M674.969 342.667C670.035 328.627 651.336 331.227 651.336 331.227L652.375 341.107C663.023 338.507 670.554 350.726 670.554 350.726L674.969 342.667Z" fill="#E0E0E0"/>
<path d="M381.764 11.6998C376.83 -2.33967 358.131 0.260225 358.131 0.260225L359.17 10.1398C369.818 7.53994 377.349 19.7594 377.349 19.7594L381.764 11.6998Z" fill="#E0E0E0"/>
<path d="M159.977 192.392C155.042 178.353 136.344 180.953 136.344 180.953L137.383 190.832C148.03 188.232 155.562 200.452 155.562 200.452L159.977 192.392Z" fill="#EBEBEB"/>
<path d="M113.49 60.3174C98.6873 62.6573 97.9082 81.3765 97.9082 81.3765L108.037 81.8965C107.517 70.977 120.762 65.7772 120.762 65.7772L113.49 60.3174Z" fill="#EBEBEB"/>
<path d="M7.2717 499.7C32.9824 507.5 48.8243 477.861 48.8243 477.861L33.2421 469.021C25.7107 487.221 0 485.141 0 485.141L7.2717 499.7Z" fill="#EBEBEB"/>
<path d="M736 185.633C737.818 173.673 723.534 168.733 723.534 168.733L720.678 176.273C729.248 178.353 730.027 189.793 730.027 189.793L736 185.633Z" fill="#E0E0E0"/>
<path d="M650.817 55.3779C640.948 61.8777 646.402 75.9171 646.402 75.9171L653.933 73.0572C649.778 65.2575 657.829 56.9379 657.829 56.9379L650.817 55.3779Z" fill="#EBEBEB"/>
<path d="M560.441 409.744C555.766 392.844 533.691 394.404 533.691 394.404L534.211 406.104C546.936 404.024 554.987 418.843 554.987 418.843L560.441 409.744Z" fill="#E8505B"/>
<path d="M343.329 212.151C331.382 213.451 330.084 228.271 330.084 228.271L338.135 229.311C338.135 220.471 349.042 216.831 349.042 216.831L343.329 212.151Z" fill="#E8505B"/>
<path d="M454.221 53.5582C461.492 72.0175 486.164 67.8577 486.164 67.8577L484.087 54.5982C470.063 58.498 459.415 42.6387 459.415 42.6387L454.221 53.5582Z" fill="#E8505B"/>
<path d="M177.378 366.585C165.431 367.885 164.133 382.704 164.133 382.704L172.184 383.744C172.184 374.905 183.091 371.265 183.091 371.265L177.378 366.585Z" fill="#E8505B"/>
<path d="M226.461 112.836C228.279 100.876 213.995 95.9365 213.995 95.9365L211.139 103.476C219.709 105.556 220.488 116.996 220.488 116.996L226.461 112.836Z" fill="#E8505B"/>
<path d="M22.8547 294.828C20.7771 313.547 45.4489 317.967 45.4489 317.967L49.8639 305.748C35.0608 304.448 32.9831 287.028 32.9831 287.028L22.8547 294.828Z" fill="#E8505B"/>
<path d="M607.706 205.132C619.652 205.912 623.548 191.353 623.548 191.353L615.757 189.013C614.458 197.592 603.031 199.412 603.031 199.412L607.706 205.132Z" fill="#E8505B"/>
</g>
<defs>
<clipPath id="clip0_157_5259">
<rect width="736" height="501" fill="white"/>
</clipPath>
</defs>
</svg>
