<svg width="80" height="80" viewBox="0 0 80 80" fill="none" xmlns="http://www.w3.org/2000/svg">
<path fill-rule="evenodd" clip-rule="evenodd" d="M47.4298 40.98C47.4698 40.66 47.4998 40.34 47.4998 40C47.4998 39.66 47.4698 39.34 47.4298 39.02L49.5398 37.37C49.7298 37.22 49.7798 36.95 49.6598 36.73L47.6598 33.27C47.5698 33.11 47.3998 33.02 47.2198 33.02C47.1598 33.02 47.0998 33.03 47.0498 33.05L44.5598 34.05C44.0398 33.65 43.4798 33.32 42.8698 33.07L42.4898 30.42C42.4598 30.18 42.2498 30 41.9998 30H37.9998C37.7498 30 37.5398 30.18 37.5098 30.42L37.1298 33.07C36.5198 33.32 35.9598 33.66 35.4398 34.05L32.9498 33.05C32.8898 33.03 32.8298 33.02 32.7698 33.02C32.5998 33.02 32.4298 33.11 32.3398 33.27L30.3398 36.73C30.2098 36.95 30.2698 37.22 30.4598 37.37L32.5698 39.02C32.5298 39.34 32.4998 39.67 32.4998 40C32.4998 40.33 32.5298 40.66 32.5698 40.98L30.4598 42.63C30.2698 42.78 30.2198 43.05 30.3398 43.27L32.3398 46.73C32.4298 46.89 32.5998 46.98 32.7798 46.98C32.8398 46.98 32.8998 46.97 32.9498 46.95L35.4398 45.95C35.9598 46.35 36.5198 46.68 37.1298 46.93L37.5098 49.58C37.5398 49.82 37.7498 50 37.9998 50H41.9998C42.2498 50 42.4598 49.82 42.4898 49.58L42.8698 46.93C43.4798 46.68 44.0398 46.34 44.5598 45.95L47.0498 46.95C47.1098 46.97 47.1698 46.98 47.2298 46.98C47.3998 46.98 47.5698 46.89 47.6598 46.73L49.6598 43.27C49.7798 43.05 49.7298 42.78 49.5398 42.63L47.4298 40.98ZM45.4498 39.27C45.4898 39.58 45.4998 39.79 45.4998 40C45.4998 40.21 45.4798 40.43 45.4498 40.73L45.3098 41.86L46.1998 42.56L47.2798 43.4L46.5798 44.61L45.3098 44.1L44.2698 43.68L43.3698 44.36C42.9398 44.68 42.5298 44.92 42.1198 45.09L41.0598 45.52L40.8998 46.65L40.6998 48H39.2998L39.1098 46.65L38.9498 45.52L37.8898 45.09C37.4598 44.91 37.0598 44.68 36.6598 44.38L35.7498 43.68L34.6898 44.11L33.4198 44.62L32.7198 43.41L33.7998 42.57L34.6898 41.87L34.5498 40.74C34.5198 40.43 34.4998 40.2 34.4998 40C34.4998 39.8 34.5198 39.57 34.5498 39.27L34.6898 38.14L33.7998 37.44L32.7198 36.6L33.4198 35.39L34.6898 35.9L35.7298 36.32L36.6298 35.64C37.0598 35.32 37.4698 35.08 37.8798 34.91L38.9398 34.48L39.0998 33.35L39.2998 32H40.6898L40.8798 33.35L41.0398 34.48L42.0998 34.91C42.5298 35.09 42.9298 35.32 43.3298 35.62L44.2398 36.32L45.2998 35.89L46.5698 35.38L47.2698 36.59L46.1998 37.44L45.3098 38.14L45.4498 39.27ZM39.9998 36C37.7898 36 35.9998 37.79 35.9998 40C35.9998 42.21 37.7898 44 39.9998 44C42.2098 44 43.9998 42.21 43.9998 40C43.9998 37.79 42.2098 36 39.9998 36ZM39.9998 42C38.8998 42 37.9998 41.1 37.9998 40C37.9998 38.9 38.8998 38 39.9998 38C41.0998 38 41.9998 38.9 41.9998 40C41.9998 41.1 41.0998 42 39.9998 42Z" fill="#9A9AB0"/>
</svg>
