<svg width="461" height="432" viewBox="0 0 461 432" fill="none" xmlns="http://www.w3.org/2000/svg">
<g clip-path="url(#clip0_328_5442)">
<path d="M136.538 81.7688C135.324 51.7728 160.491 38.4419 186.229 38.4419C211.961 38.4419 239.969 45.1043 242.392 84.9927C243.95 110.655 230.262 126.444 190.83 126.444C177.535 126.444 167.197 124.348 159.282 120.609L139.569 138.108L149.257 113.922C140.68 105.954 137.066 94.7135 136.538 81.7688Z" fill="#F1F1F1"/>
<path d="M75.6797 135.135L104.019 188.851L118.554 183.574L113.836 197.904L142.249 283.411C142.249 283.411 157.967 174.772 75.6797 135.135Z" fill="#233862"/>
<path d="M122.959 182.63C122.959 182.63 153.483 266.973 143.451 411.241C143.451 411.241 131.322 417.229 90.4906 410.064C49.4449 402.862 122.959 182.63 122.959 182.63Z" fill="#233862"/>
<path d="M131.326 371.824C131.326 371.824 131.204 373.369 130.97 376.231C130.455 382.759 129.381 396.151 128.007 413.545C127.547 419.288 127.062 425.479 126.535 432H41.6578C41.3449 426.447 41.0381 421.09 40.7559 415.991C40.5718 412.828 40.4 409.776 40.2282 406.834V406.828C39.3325 390.812 38.6392 378.223 38.2711 371.487C38.2465 370.972 38.222 370.482 38.1974 370.041C38.0502 367.454 37.9766 366.057 37.9766 366.057L41.6701 366.283L47.5723 366.657L71.0462 368.104L78.421 368.563L89.4462 369.238H89.4585L111.779 370.623L131.326 371.824Z" fill="#F99746"/>
<path d="M131.326 371.824C131.326 371.824 131.204 373.369 130.97 376.231C130.455 382.759 129.381 396.151 128.007 413.545C127.547 419.288 127.062 425.479 126.535 432H41.6578C41.3449 426.447 41.0381 421.09 40.7559 415.991C40.5718 412.828 40.4 409.776 40.2282 406.834V406.828C39.3325 390.812 38.6392 378.223 38.2711 371.487C38.2465 370.972 38.222 370.482 38.1974 370.041C38.0502 367.454 37.9766 366.057 37.9766 366.057L41.6701 366.283L47.5723 366.657L71.0462 368.104L78.421 368.563L89.4462 369.238H89.4585L111.779 370.623L131.326 371.824Z" fill="#1A0F91"/>
<path d="M116.063 376.77C116.063 376.77 115.953 377.034 115.756 377.549C115.057 379.289 113.216 383.862 110.468 390.616C109.296 393.491 107.952 396.77 106.467 400.386C105.032 403.886 103.455 407.716 101.749 411.823C100.853 413.987 99.9209 416.236 98.9576 418.547C97.1845 422.806 95.307 427.305 93.3315 432H10.418C12.8353 422.383 14.3753 414.005 14.6023 408.495C14.6391 407.686 14.6759 406.84 14.7189 405.976C15.406 393 17.3325 373.712 18.6516 361.386C19.4124 354.338 19.9646 349.569 19.9646 349.569L46.7455 357.145L68.3727 363.268L78.6066 366.161L89.4478 369.232H89.46L111.511 375.477L116.063 376.77Z" fill="#1A0F91"/>
<path d="M101.078 156.918C77.5425 164.334 36.8281 144.317 36.8281 144.317C36.8281 144.317 58.5228 128.05 57.3878 94.2231L75.5853 108.872L87.9481 118.819C87.9481 118.819 87.899 124.685 86.5492 134.964C86.3038 136.839 86.0154 138.862 85.6719 141.025C85.4019 142.748 86.1627 144.494 87.6475 145.408C96.2186 150.715 101.078 156.918 101.078 156.918Z" fill="#FFB27D"/>
<path d="M133.925 375.293C133.213 375.882 132.391 376.237 131.452 376.237C122.617 376.115 96.8426 381.018 75.0436 378.781C56.662 377.016 40.391 371.579 22.9175 363.752C20.5983 362.71 15.2544 359.866 15.3771 357.274C15.4568 354.436 15.7391 350.323 16.0888 345.144C17.3281 327.131 19.4816 296.142 17.3772 260.39C16.9968 253.734 16.8005 247.133 16.7759 240.63C16.598 192.179 26.2122 149.563 45.5386 135.135C45.5386 135.135 59.0119 142.686 68.3377 145.665C77.4732 148.583 82.1852 147.994 86.9217 144.856C86.9217 144.856 96.1493 149.435 100.094 153.731C109.224 163.673 116.353 176.875 121.071 195.826C125.084 211.952 128.839 235.469 130.133 265.6C130.722 279.262 134.508 374.821 133.925 375.293Z" fill="white"/>
<path d="M109.494 401.618C109.009 406.497 108.469 411.339 107.862 416.101C107.862 416.101 59.4105 434.961 0.0078125 397.745L11.5423 290.472L19.6349 215.194L45.5446 135.142C45.5446 135.142 107.733 158.573 110.61 246.294C111.659 264.883 115.887 337.011 109.494 401.618Z" fill="#1A0F91"/>
<path d="M109.494 401.618C109.009 406.497 108.469 411.339 107.862 416.101C107.862 416.101 59.4105 434.961 0.0078125 397.744L11.5423 290.472L52.7659 250.437C52.7659 250.437 52.5941 251.822 52.361 254.323C50.4038 275.48 44.6182 376.862 109.494 401.618Z" fill="#233862"/>
<path d="M87.9403 118.826C87.9403 118.826 87.8912 124.691 86.5414 134.97C72.8473 132.622 57.3125 110.509 57.3125 110.509C64.2823 108.498 70.3931 108.137 75.5837 108.872L87.9403 118.826Z" fill="#ED975D"/>
<path d="M98.1382 118.194C98.1382 118.194 55.755 125.23 51.7731 98.7894C47.7913 72.3544 39.6435 55.4564 66.541 49.8482C93.4324 44.24 100.224 53.5379 103.703 62.0391C107.169 70.5402 109.059 115.687 98.1382 118.194Z" fill="#FFB27D"/>
<path d="M41.7237 363.25C41.7237 363.25 41.3555 370.801 42.5642 372.903C50.7488 387.147 58.2217 384.824 47.2762 403.224C47.2762 403.224 42.1899 410.475 38.4719 405.24C34.7477 400.006 39.564 396.617 33.625 389.776C26.7717 381.888 26.8208 381.735 29.4222 373.436L28.9743 364.739L41.7237 363.25Z" fill="#FFB27D"/>
<path d="M33.3115 372.823C40.5942 371.285 47.6622 367.662 47.6622 367.662C47.6622 367.662 41.4593 297.57 41.6372 290.852C41.8152 284.135 70.2649 193.448 70.2649 193.448L45.5332 135.135C45.5332 135.135 10.7395 154.755 6.91101 185.406C2.18677 223.266 3.58564 280.426 3.51815 289.835C3.32795 317.986 22.3967 372.817 22.3967 372.817C22.3967 372.817 27.5934 374.037 33.3115 372.823Z" fill="#1A0F91"/>
<path d="M51.7353 96.2521C51.7353 96.2521 56.0853 95.5227 55.3859 89.5407C54.6864 83.5587 54.6926 75.7318 59.5641 77.1905C64.4355 78.6492 64.6748 82.5474 66.6811 80.2673C68.6812 77.9934 68.718 68.4074 83.2098 67.7394C97.7016 67.0713 103.592 72.1094 110.334 69.1491C117.077 66.1887 117.433 55.9959 117.433 55.9959C117.433 55.9959 115.519 59.6366 112.623 60.795C112.623 60.795 123.869 45.4293 110.85 34.8933C97.8304 24.3573 84.5596 31.2526 77.0192 31.7123C60.4169 32.7175 49.6922 33.7104 44.2686 44.608C38.8449 55.5056 41.0843 85.759 51.7353 96.2521Z" fill="#1A0F91"/>
<path d="M39.832 373.228C39.832 373.228 46.0165 374.546 47.3049 375.961C51.4586 380.503 54.6183 381.539 54.1459 382.661C53.1642 384.99 48.3111 382.826 44.9305 380.233C41.5499 377.641 39.832 373.228 39.832 373.228Z" fill="#FFB27D"/>
<path d="M45.5391 135.135L73.8784 188.851L88.4131 183.574L83.695 197.904L112.108 283.411C112.108 283.411 127.827 174.772 45.5391 135.135Z" fill="#233862"/>
<path d="M101.032 104.042C101.032 104.042 99.3817 108.4 95.2525 108.517C91.1234 108.633 87.9453 104.631 87.9453 104.631C87.9453 104.631 96.903 102.559 101.032 104.042Z" fill="white"/>
<path d="M370.998 96.2766C358.998 90.0494 349.377 93.9598 349.377 93.9598C312.651 89.651 301.939 132.438 302.436 147.161C302.933 161.889 304.614 177.702 288.22 196.825C269.12 219.092 273.845 232.785 286.287 241.194C290.656 244.148 295.975 246.453 301.552 248.242C303.509 248.874 305.503 249.444 307.497 249.952C312.099 251.129 316.7 252.006 320.934 252.655C331.671 254.31 340.064 254.519 340.064 254.519C340.622 225.062 364.378 222.426 379.453 225.277C382.564 225.859 385.312 226.68 387.398 227.538C390.356 228.77 392.006 230.082 391.552 230.952C393.258 231.363 394.883 231.675 396.417 231.884C406.369 233.312 413.056 230.909 417.149 225.84C437.788 200.392 393.196 107.781 370.998 96.2766Z" fill="#163560"/>
<path d="M229.328 280.304C229.328 280.304 222.867 270.479 217.665 270.289C212.462 270.099 202.817 267.402 203.59 269.327C204.363 271.251 210.339 271.447 210.916 272.6C211.492 273.752 202.044 275.486 199.351 275.683C196.651 275.873 190.289 275.683 190.485 277.031C190.675 278.379 201.952 283.963 209.91 283.197C217.867 282.425 227.696 285.508 227.696 285.508L229.328 280.304Z" fill="#FFB27D"/>
<path d="M322.739 283.485C322.739 283.485 319.23 290.429 312.861 298.409C305.186 308.014 293.351 319.107 278.497 321.296C271.399 322.344 264.459 320.817 258.079 317.986C258.06 317.98 258.054 317.98 258.054 317.98C240.01 309.975 226.439 291.575 226.439 291.575C223.26 282.909 228.463 277.031 228.463 277.031C228.463 277.031 264.901 285.219 268.374 283.485C271.846 281.75 292.087 223.493 296.903 216.175C301.726 208.857 318.15 205.05 318.15 205.05L322.739 283.485Z" fill="#386DF5"/>
<path d="M312.861 298.409C305.186 308.014 293.35 319.107 278.497 321.295C271.398 322.344 264.459 320.817 258.078 317.986C258.784 318.078 276.809 320.303 283.988 307.462C291.313 294.364 299.24 273.562 310.125 280.494C314.818 283.485 314.609 290.926 312.861 298.409Z" fill="#1A0F91"/>
<path d="M409.095 372.639C396.241 343.839 388.376 335.57 389.873 326.634C390.989 319.984 386.468 202.587 386.468 202.587C384.94 202.115 381.885 201.692 380.21 201.318C374.939 200.147 370.571 196.445 368.755 191.364C366.564 185.241 364.828 176.207 364.865 164.88L363.221 165.205L335.532 170.684C335.532 170.684 336.164 179.388 336.182 187.589C336.182 187.656 336.182 187.723 336.182 187.791C336.213 194.913 331.538 201.201 324.691 203.175C321.193 204.186 318.15 205.044 318.15 205.044C318.15 205.044 307.984 234.041 306.039 263.829C304.1 293.617 324.525 306.561 305.886 366.087C286.86 426.895 416.194 388.557 409.095 372.639Z" fill="#FFB27D"/>
<path d="M335.539 170.684C335.539 170.684 336.171 179.388 336.189 187.588C351.681 187.153 359.872 173.032 363.228 165.205L335.539 170.684Z" fill="#E8945B"/>
<path d="M330.367 178.45C330.367 178.45 367.026 179.057 367.051 156.244C367.075 133.432 371.824 118.145 348.417 116.797C325.011 115.449 320.458 124.146 318.593 131.758C316.734 139.371 320.833 177.702 330.367 178.45Z" fill="#FFB27D"/>
<path d="M331.723 116.233C331.723 116.233 341.76 142.999 357.166 146.952C372.572 150.912 379.253 146.787 379.253 146.787C379.253 146.787 367.437 137.409 364.989 121.045C364.983 121.045 339.294 103.497 331.723 116.233Z" fill="#163560"/>
<path d="M334.206 118.409C334.206 118.409 326.764 121.191 323.702 126.61C320.708 131.911 318.156 138.935 318.745 147.553C318.745 147.553 311.18 129.362 319.684 119.071C328.697 108.161 334.206 118.409 334.206 118.409Z" fill="#163560"/>
<path d="M338.342 164.298C338.342 164.298 335.814 167.62 330.752 167.381C326.678 167.191 325.102 163.654 325.102 163.654C325.102 163.654 332.587 161.858 338.342 164.298Z" fill="#EBF3FA"/>
<path d="M404.1 254.519C404.1 254.519 403.959 271.889 403.033 287.622C402.413 298.054 401.456 307.762 399.953 311.219C396.192 319.886 391.952 321.296 391.952 321.296L359.152 329.325L347.618 332.144L311.247 321.296C311.247 321.296 294.682 275.106 301.333 249.107C307.983 223.107 318.144 205.05 318.144 205.05C318.144 205.05 347.82 234.078 386.461 202.586L404.1 254.519Z" fill="#386DF5"/>
<path d="M403.025 287.622C402.405 298.054 401.448 307.762 399.945 311.219C396.184 319.886 391.945 321.296 391.945 321.296L359.145 329.325L344.898 325.138C344.898 325.138 392.454 317.937 387.183 277.068L403.025 287.622Z" fill="#1A0F91"/>
<path d="M369.066 432H296.761C295.117 417.076 294.196 406.693 294.399 403.377C295.331 388.036 307.16 348.822 311.756 334.044C312.872 330.446 313.566 328.301 313.566 328.301H362.305C362.305 328.301 362.305 328.387 362.305 328.559C362.305 328.675 362.305 328.834 362.311 329.025C362.317 330.293 362.348 333.186 362.44 337.452C362.704 348.809 363.434 369.906 365.52 395.881C366.422 407.134 367.582 419.307 369.066 432Z" fill="#1A0F91"/>
<path d="M422.402 432H340.213C335.838 420.11 330.887 408.593 325.316 398.271C324.187 396.151 323.021 394.085 321.825 392.075C316.426 382.967 321.702 353.339 324.592 339.45C324.745 338.702 324.899 337.991 325.034 337.336C325.077 337.115 325.12 336.913 325.163 336.71C325.788 333.848 326.199 332.138 326.199 332.138L333.39 331.513L335.979 331.292L342.802 330.704H342.808L359.048 329.294H359.054L359.343 329.27H359.355L362.294 329.012L389.86 326.622C389.86 326.622 391.382 328.669 393.75 332.12C401.425 343.318 417.936 369.317 419.887 388.342C420.801 397.052 421.562 413.392 422.402 432Z" fill="#B7C7FF"/>
<path d="M337.524 164.911C337.524 164.911 336.892 167.601 330.198 167.185C330.198 167.185 324.578 166.835 324.75 163.881C324.744 163.881 330.198 161.779 337.524 164.911Z" fill="white"/>
<path d="M310.69 319.659C310.69 319.659 317.923 325.372 332.286 325.66C349.441 326.003 391.959 321.29 391.959 321.29C391.959 321.29 393.848 326.561 393.769 332.132C393.769 332.132 341.845 345.218 311.763 334.044C311.757 334.044 307.88 326.751 310.69 319.659Z" fill="#233862"/>
<path d="M335.987 331.298C335.963 330.33 335.797 329.398 335.521 328.534C335.49 328.454 335.472 328.375 335.441 328.301C335.098 327.333 334.613 326.444 333.999 325.678C332.564 323.864 330.478 322.724 328.171 322.724C326.312 322.724 324.606 323.459 323.269 324.691H323.263C323.213 324.734 323.158 324.777 323.115 324.832C322.146 325.758 321.373 326.953 320.9 328.301C320.538 329.312 320.336 330.422 320.336 331.574C320.336 333.523 320.9 335.331 321.845 336.796C322.569 337.906 323.508 338.819 324.6 339.456C325.674 340.081 326.889 340.431 328.171 340.431C330.134 340.431 331.932 339.609 333.306 338.249C334.95 336.631 335.993 334.246 335.993 331.58C335.993 331.482 335.993 331.39 335.987 331.298ZM333.398 331.574C333.398 334.859 331.288 337.55 328.594 337.814H328.582C328.441 337.826 328.312 337.838 328.165 337.838C327.655 337.838 327.158 337.752 326.692 337.581H326.686L326.68 337.575C326.134 337.391 325.631 337.096 325.171 336.716C323.821 335.583 322.931 333.701 322.931 331.574C322.931 330.373 323.213 329.251 323.71 328.301C324.293 327.155 325.183 326.26 326.232 325.758C326.662 325.561 327.116 325.42 327.588 325.359C327.778 325.335 327.968 325.322 328.165 325.322C328.625 325.322 329.067 325.396 329.49 325.525C330.539 325.849 331.459 326.56 332.134 327.517C332.14 327.517 332.14 327.523 332.14 327.523C332.324 327.762 332.484 328.019 332.613 328.295C333.104 329.233 333.386 330.336 333.392 331.513V331.574H333.398Z" fill="white"/>
<path d="M444.68 389.734C444.68 389.734 444.71 396.365 445.974 399.565C447.232 402.764 451.011 407.03 452.269 407.03C453.527 407.03 451.116 400.368 451.741 400.502C452.373 400.637 455.41 411.59 457.613 411.86C459.816 412.123 461.816 399.571 460.662 394.643C459.509 389.715 454.527 383.801 454.527 383.801L444.68 389.734Z" fill="#FFB27D"/>
<path d="M386.467 202.586C386.467 202.586 406.744 205.332 417.659 226.815C426.095 243.419 431.881 295.639 437.832 312.077C443.526 327.811 451.385 358.23 455.772 382.605C456.11 384.493 455.067 386.356 453.281 387.067L445.827 390.022C444.219 390.659 442.385 390.04 441.501 388.551C434.875 377.432 408.745 332.923 399.676 307.168C389.068 277.062 369.227 258.362 369.227 258.362L386.467 202.586Z" fill="#386DF5"/>
<path d="M156.072 72.232C156.907 71.5946 158.238 71.043 159.87 71.043C162.84 71.043 164.447 72.9553 164.447 75.5356C164.447 77.5582 163.091 79.3847 161.177 79.967V80.0222C163.564 80.4083 165.03 82.2961 165.03 84.8151C165.03 88.1433 162.699 90.1659 159.398 90.1659C158.097 90.1659 156.68 89.8349 155.766 89.2526L156.293 87.4813C157.042 87.9533 158.011 88.3394 159.263 88.3394C161.564 88.3394 162.84 86.8684 162.84 84.8213C162.84 82.3267 160.981 81.0273 158.594 81.0273H158.011V79.3357H158.428C160.373 79.3357 162.288 77.8402 162.288 75.8421C162.288 74.0401 161.177 72.9062 159.373 72.9062C158.373 72.9062 157.318 73.3782 156.625 73.8746L156.072 72.232Z" fill="#386DF5"/>
<path d="M175.323 76.5286V88.2781L176.458 88.3027L176.348 93.5124H174.71L174.569 89.9391H167.636L167.495 93.5124H165.857L165.746 88.3027L166.636 88.2781C167.188 87.4201 167.605 86.421 167.881 85.422C168.298 83.8958 168.495 82.2655 168.495 80.4328V76.5225H175.323V76.5286ZM170.384 80.2122C170.384 82.0693 170.274 83.8958 169.802 85.5323C169.55 86.5007 169.219 87.4139 168.746 88.2475H173.213V78.2448H170.384V80.2122Z" fill="#386DF5"/>
<path d="M178.603 80.7149C178.603 78.6616 178.517 77.4725 178.492 76.5287H180.376L180.486 78.2448H180.541C181.29 76.829 182.345 76.3325 183.4 76.3325C185.756 76.3325 187.284 78.7964 187.284 83.2033C187.284 88.1924 185.229 90.1599 183.124 90.1599C181.848 90.1599 181.124 89.3569 180.768 88.6092H180.713V95.2593H178.603V80.7149ZM180.713 85.0359C180.713 85.422 180.738 85.8143 180.824 86.1453C181.241 88.0576 182.21 88.3885 182.793 88.3885C184.566 88.3885 185.149 85.9491 185.149 83.2584C185.149 80.4881 184.486 78.159 182.762 78.159C181.793 78.159 180.903 79.3481 180.793 80.5678C180.738 80.8742 180.707 81.2358 180.707 81.5913V85.0359H180.713Z" fill="#386DF5"/>
<path d="M196.773 86.8928C196.773 87.9164 196.798 89.0809 196.915 89.939H195L194.859 88.5232H194.773C194.19 89.5467 193.246 90.1596 192.08 90.1596C190.307 90.1596 188.914 88.6641 188.914 86.3351C188.914 82.9518 191.607 81.4869 194.626 81.4563V81.0395C194.626 79.2375 194.154 78.0178 192.491 78.0178C191.657 78.0178 190.908 78.2691 190.27 78.7104L189.798 77.2149C190.38 76.7981 191.601 76.3262 192.933 76.3262C195.626 76.3262 196.761 78.073 196.761 81.064V86.8928H196.773ZM194.694 82.9885C193.583 82.9885 191.006 83.2092 191.006 86.1205C191.006 87.8919 191.896 88.5048 192.644 88.5048C193.589 88.5048 194.362 87.8122 194.614 86.4822C194.669 86.2309 194.7 85.955 194.7 85.7038V82.9885H194.694Z" fill="#386DF5"/>
<path d="M199.801 76.6142C200.69 76.4487 201.77 76.3384 202.826 76.3384C205.047 76.3384 207.82 76.9758 207.82 79.6665C207.82 81.2478 206.685 82.4369 205.157 82.823V82.8782C207.102 83.2091 208.378 84.4043 208.378 86.2308C208.378 89.3628 205.132 90.1412 202.549 90.1412C201.328 90.1412 200.328 90.0554 199.801 90.0002V76.6142ZM201.881 88.5292C202.132 88.5537 202.549 88.615 202.96 88.615C204.599 88.615 206.237 88.0328 206.237 86.2063C206.237 84.435 204.464 83.7424 202.795 83.7424H201.881V88.5292ZM201.905 82.2101H202.85C204.151 82.2101 205.764 81.3765 205.764 79.9362C205.764 78.41 204.488 77.8829 202.991 77.8829C202.605 77.8829 202.243 77.9381 201.911 77.9932V82.2101H201.905Z" fill="#386DF5"/>
<path d="M218.885 83.2339C218.885 88.4192 216.499 90.1599 214.419 90.1599C212.007 90.1599 210.062 87.9717 210.062 83.2584C210.062 78.3796 212.253 76.3325 214.56 76.3325C216.971 76.3325 218.885 78.5819 218.885 83.2339ZM212.198 83.2339C212.198 85.4527 212.584 88.4743 214.529 88.4743C216.364 88.4743 216.75 85.3424 216.75 83.2339C216.75 81.1807 216.364 78.0242 214.474 78.0242C212.56 78.0242 212.198 81.1868 212.198 83.2339Z" fill="#386DF5"/>
<path d="M286.958 18.7062C286.179 19.0372 284.823 19.3436 283.658 19.3436C282.019 19.3436 280.498 18.9023 279.246 17.5417C277.884 16.1013 276.97 13.521 277.001 10.0886C277.025 2.8011 280.743 0.331055 284.05 0.331055C285.216 0.331055 286.13 0.551704 286.689 0.85816L286.21 2.69077C285.713 2.43948 285.075 2.24947 284.075 2.24947C281.743 2.24947 279.222 4.1066 279.222 9.89864C279.222 15.66 281.412 17.5172 283.658 17.5172C284.382 17.5172 284.793 17.4068 284.964 17.2965V11.198H282.553V9.42669H286.965V18.7062H286.958Z" fill="#386DF5"/>
<path d="M309.389 12.4727C309.389 17.6579 307.002 19.3986 304.923 19.3986C302.511 19.3986 300.566 17.2105 300.566 12.4972C300.566 7.61842 302.757 5.57129 305.057 5.57129C307.475 5.57129 309.389 7.81455 309.389 12.4727ZM302.702 12.4727C302.702 14.6914 303.088 17.7131 305.033 17.7131C306.867 17.7131 307.254 14.5811 307.254 12.4727C307.254 10.4194 306.867 7.26293 304.978 7.26293C303.063 7.26293 302.702 10.4194 302.702 12.4727Z" fill="#386DF5"/>
<path d="M298.823 12.4727C298.823 17.6579 296.436 19.3986 294.356 19.3986C291.945 19.3986 290 17.2105 290 12.4972C290 7.61842 292.19 5.57129 294.491 5.57129C296.908 5.57129 298.823 7.81455 298.823 12.4727ZM292.135 12.4727C292.135 14.6914 292.522 17.7131 294.467 17.7131C296.301 17.7131 296.688 14.5811 296.688 12.4727C296.688 10.4194 296.301 7.26293 294.411 7.26293C292.497 7.26293 292.135 10.4194 292.135 12.4727Z" fill="#386DF5"/>
<path d="M319.843 0V15.9603C319.843 16.8735 319.929 18.3997 319.953 19.1781H318.119L317.978 17.5171H317.892C317.45 18.461 316.505 19.3987 315.063 19.3987C312.818 19.3987 311.18 16.9593 311.18 12.528C311.18 7.79013 313.149 5.57139 315.204 5.57139C316.205 5.57139 317.149 6.01268 317.671 7.1527H317.726V0H319.843ZM317.738 10.8915C317.738 10.6157 317.738 10.2847 317.714 10.0028C317.573 8.58692 316.744 7.39787 315.72 7.39787C313.947 7.39787 313.333 9.86178 313.333 12.5218C313.333 15.3474 314.051 17.6213 315.609 17.6213C316.278 17.6213 317.192 17.2597 317.665 15.3228C317.72 15.0715 317.751 14.7712 317.751 14.4341V10.8915H317.738Z" fill="#386DF5"/>
<path d="M335.274 0V15.9603C335.274 16.8735 335.354 18.3997 335.385 19.1781H333.556L333.415 17.5171H333.329C332.888 18.461 331.943 19.3987 330.501 19.3987C328.255 19.3987 326.617 16.9593 326.617 12.528C326.617 7.79013 328.587 5.57139 330.642 5.57139C331.642 5.57139 332.581 6.01268 333.108 7.1527H333.164V0H335.274ZM333.164 10.8915C333.164 10.6157 333.164 10.2847 333.139 10.0028C332.998 8.58692 332.17 7.39787 331.139 7.39787C329.366 7.39787 328.752 9.86178 328.752 12.5218C328.752 15.3474 329.476 17.6213 331.029 17.6213C331.697 17.6213 332.611 17.2597 333.084 15.3228C333.139 15.0715 333.17 14.7712 333.17 14.4341V10.8915H333.164Z" fill="#386DF5"/>
<path d="M345.342 16.1318C345.342 17.1554 345.366 18.3199 345.483 19.178H343.568L343.427 17.7622H343.341C342.759 18.7857 341.814 19.3986 340.648 19.3986C338.875 19.3986 337.488 17.9031 337.488 15.5741C337.488 12.1908 340.176 10.7259 343.2 10.6953V10.2785C343.2 8.47653 342.728 7.25683 341.065 7.25683C340.231 7.25683 339.482 7.50812 338.844 7.94942L338.372 6.45391C338.955 6.03713 340.176 5.56519 341.507 5.56519C344.2 5.56519 345.335 7.31199 345.335 10.303V16.1318H345.342ZM343.262 12.2214C342.151 12.2214 339.574 12.4421 339.574 15.3534C339.574 17.1247 340.464 17.7377 341.212 17.7377C342.157 17.7377 342.93 17.0451 343.182 15.715C343.237 15.4637 343.268 15.1879 343.268 14.9366V12.2214H343.262Z" fill="#386DF5"/>
<path d="M349.928 22.427C349.804 22.427 349.695 22.3804 349.602 22.2872C349.508 22.194 349.462 22.0853 349.462 21.961C349.462 21.8989 349.47 21.8368 349.485 21.7746C349.501 21.7125 349.532 21.6348 349.578 21.5416L351.372 17.2777L346.922 6.76928C346.844 6.58288 346.806 6.45085 346.806 6.37318C346.806 6.23338 346.852 6.11688 346.945 6.02368C347.039 5.93048 347.155 5.88387 347.295 5.88387H348.437C348.592 5.88387 348.716 5.92271 348.809 6.00038C348.903 6.07804 348.965 6.17124 348.996 6.27998L352.537 14.7613L356.172 6.27998C356.219 6.17124 356.281 6.07804 356.359 6.00038C356.452 5.92271 356.584 5.88387 356.755 5.88387H357.85C357.99 5.88387 358.106 5.93048 358.199 6.02368C358.293 6.11688 358.339 6.22561 358.339 6.34988C358.339 6.42755 358.3 6.56735 358.223 6.76928L351.605 22.0309C351.559 22.1397 351.489 22.2329 351.396 22.3105C351.318 22.3882 351.194 22.427 351.023 22.427H349.928Z" fill="#386DF5"/>
</g>
<defs>
<clipPath id="clip0_328_5442">
<rect width="461" height="432" fill="white"/>
</clipPath>
</defs>
</svg>
