<svg width="36" height="32" viewBox="0 0 36 32" fill="none" xmlns="http://www.w3.org/2000/svg">
<path d="M35.7589 3.76197C34.4446 4.38945 33.0332 4.81296 31.5491 5.00132C33.0622 4.02712 34.2246 2.48423 34.7729 0.646198C33.3559 1.54722 31.7881 2.20469 30.1187 2.55622C28.781 1.02652 26.876 0.0703125 24.7666 0.0703125C20.7188 0.0703125 17.4392 3.5952 17.4392 7.94433C17.4392 8.56101 17.5028 9.16329 17.6279 9.73917C11.5366 9.41044 6.13651 6.27547 2.52081 1.51122C1.89102 2.67499 1.52923 4.02712 1.52923 5.47043C1.52923 8.20348 2.82342 10.6126 4.78872 12.0259C3.58832 11.9839 2.45828 11.6312 1.47005 11.0409C1.46893 11.0733 1.46893 11.1081 1.46893 11.1393C1.46893 14.9557 3.99478 18.1387 7.34807 18.8621C6.73392 19.0409 6.08626 19.1381 5.41739 19.1381C4.94393 19.1381 4.48611 19.0889 4.03945 18.9977C4.97073 22.1243 7.6786 24.4014 10.8845 24.4662C8.37762 26.5778 5.21751 27.8387 1.78382 27.8387C1.192 27.8387 0.607996 27.8015 0.0351562 27.7284C3.2779 29.9599 7.13032 31.2641 11.2697 31.2641C24.7499 31.2641 32.1231 19.2653 32.1231 8.85855C32.1231 8.51782 32.1142 8.17709 32.1008 7.83875C33.5334 6.72898 34.7751 5.34326 35.7589 3.76197Z" fill="black"/>
</svg>
