<svg width="809" height="748" viewBox="0 0 809 748" fill="none" xmlns="http://www.w3.org/2000/svg">
<path d="M1026.92 121.549L650.237 355.536L499.768 268.156L238.874 402.409L508.214 574.039L285.861 709.229" stroke="#F2F2F2" stroke-width="2"/>
<ellipse rx="29" ry="14" transform="matrix(-0.999363 -0.0356804 -0.0356804 0.999363 245.394 398.841)" fill="#3E3AEE"/>
<ellipse rx="17.5" ry="8.5" transform="matrix(-0.999363 -0.0356804 -0.0356804 0.999363 282.751 711.874)" fill="#3E3AEE"/>
<g opacity="0.15">
<path opacity="0.090909" d="M379.138 530.149L518.45 476.617C526.175 471.984 536.218 469.668 546.003 469.668C550.381 469.668 554.243 470.183 558.106 471.212C561.711 471.984 565.831 473.786 568.664 475.587L671.667 535.811L674.757 537.612C682.997 542.502 686.603 550.223 686.088 558.459C685.573 566.952 679.392 576.474 670.122 581.621L584.372 664.235C576.647 668.611 567.119 671.184 557.334 671.184C548.836 671.184 541.11 669.383 534.93 665.78L376.048 572.614C368.065 567.981 363.43 560.775 363.43 552.797C364.202 544.046 369.61 535.811 379.138 530.149Z" fill="#9FA5D0"/>
<path opacity="0.1818" d="M379.907 530.149L519.219 476.617C526.945 471.984 536.988 469.668 546.773 469.926C551.151 469.926 555.013 470.698 558.618 471.727C561.708 472.499 566.343 474.558 569.176 476.102L671.664 536.068C671.922 536.068 674.497 537.87 674.754 537.87C682.737 542.76 685.312 550.481 684.54 558.459C683.767 565.922 676.557 576.474 668.574 581.364L584.369 663.206C576.901 667.581 567.374 669.898 557.846 669.898C549.605 669.898 541.88 668.096 535.957 664.75L377.075 570.812C369.35 566.437 364.972 559.488 365.23 551.767C365.487 543.274 370.637 535.553 379.907 530.149Z" fill="#8F95BB"/>
<path opacity="0.2727" d="M380.429 530.407L519.741 476.875C527.466 472.5 537.509 470.184 547.037 470.441C551.157 470.699 555.277 471.471 558.882 472.243C561.715 473.015 566.865 475.331 569.182 476.875L671.156 536.584C671.413 536.841 673.988 538.128 674.246 538.385C681.971 543.533 683.774 550.996 682.229 558.975C681.199 565.666 673.216 576.99 666.006 581.365L583.345 662.435C576.135 666.553 566.865 668.869 557.595 669.127C549.612 669.127 542.144 667.325 536.479 663.979L377.854 568.754C370.386 564.637 366.523 557.945 366.523 550.739C366.523 542.761 371.674 535.554 380.429 530.407Z" fill="#7F84A7"/>
<path opacity="0.3636" d="M381.201 530.406L520.513 476.875C528.239 472.499 538.282 470.183 547.809 470.698C551.929 470.955 556.05 471.727 559.397 472.757C561.972 473.529 567.637 476.102 569.698 477.389L671.156 536.84C671.413 537.098 673.731 538.385 674.246 538.642C681.971 543.789 684.289 551.51 680.684 558.974C680.684 564.893 670.641 577.247 664.203 580.85L583.345 661.147C576.135 665.265 567.122 667.581 558.367 667.581C550.642 667.581 543.174 666.037 537.767 662.692L378.884 566.695C371.931 562.577 368.069 556.4 368.326 549.709C367.811 542.245 372.704 535.296 381.201 530.406Z" fill="#6F7492"/>
<path opacity="0.4545" d="M381.716 530.662L521.028 477.13C528.753 472.755 538.796 470.439 548.067 470.954C552.187 471.211 556.049 472.24 559.654 473.27C561.714 473.785 567.895 477.13 569.697 477.902L670.383 536.839C670.898 537.096 672.958 538.383 673.216 538.64C680.683 543.788 682.228 551.766 677.851 558.972C677.851 564.119 666.778 577.245 661.37 580.333L582.058 659.859C575.105 663.977 566.35 666.036 557.594 666.036C549.869 666.036 542.916 664.492 537.509 661.403L378.626 564.634C371.931 560.774 368.326 554.854 368.583 548.678C369.098 541.729 373.733 535.295 381.716 530.662Z" fill="#5F637D"/>
<path opacity="0.5455" d="M382.226 530.663L521.538 477.132C529.263 472.756 539.306 470.698 548.576 471.212C552.697 471.47 556.559 472.499 560.164 473.786C561.967 474.301 568.662 477.904 570.207 478.676L670.378 537.355C670.893 537.612 672.953 538.899 673.211 539.156C680.421 544.304 681.451 552.282 676.301 559.231C676.301 563.349 664.198 577.504 659.563 580.077L581.795 658.831C575.1 662.691 566.602 664.75 558.104 665.008C550.637 665.008 543.684 663.463 538.534 660.375L379.651 562.577C373.213 558.973 369.866 553.311 370.123 547.392C370.381 541.215 374.758 535.039 382.226 530.663Z" fill="#505368"/>
<path opacity="0.6364" d="M383.001 530.921L522.313 477.39C530.038 473.014 540.081 470.956 549.094 471.728C553.214 471.985 557.077 473.272 560.424 474.301C561.712 474.816 569.18 478.676 570.21 479.191L669.866 537.613C670.638 538.128 672.183 539.157 672.698 539.414C679.908 544.819 680.166 552.797 673.986 559.489C673.986 562.835 660.853 577.762 657.248 579.821L581.283 657.802C574.587 661.663 566.347 663.721 558.107 663.721C550.897 663.721 544.201 662.435 539.051 659.346L380.169 560.518C374.246 556.915 371.156 551.768 371.413 546.363C371.671 540.701 375.791 535.039 383.001 530.921Z" fill="#404253"/>
<path opacity="0.7273" d="M383.519 530.92L522.831 477.388C530.556 473.013 540.599 470.954 549.612 471.984C553.732 472.241 557.594 473.528 560.942 474.815C561.972 475.072 569.697 479.447 570.727 479.962L669.868 537.869C670.641 538.384 672.186 539.413 672.701 539.671C679.653 545.075 679.396 553.053 672.186 559.488C672.186 562.061 658.023 578.018 655.19 579.562L580.513 656.771C574.075 660.374 566.092 662.433 558.109 662.433C551.157 662.433 544.461 661.147 539.569 658.316L380.686 558.716C375.021 555.37 372.188 550.737 372.446 545.59C372.961 540.185 376.823 534.781 383.519 530.92Z" fill="#30323E"/>
<path opacity="0.8182" d="M384.029 530.921L523.341 477.389C530.808 473.014 541.109 471.212 549.864 471.984C553.984 472.499 557.589 473.786 560.937 475.073C561.709 475.33 569.95 479.963 570.465 480.22L669.09 537.87C669.863 538.384 671.15 539.156 671.923 539.928C678.618 545.333 677.846 553.569 669.863 559.746C669.863 561.547 654.67 578.276 652.867 579.305L579.735 655.742C573.555 659.345 565.572 661.147 558.104 661.404C551.409 661.404 544.971 660.118 540.079 657.287L381.196 556.657C375.788 553.569 373.213 549.194 373.471 544.304C374.243 539.671 377.591 534.781 384.029 530.921Z" fill="#20212A"/>
<path opacity="0.9091" d="M384.801 531.178L524.113 477.646C531.58 473.271 541.881 471.47 550.636 472.499C554.756 473.014 558.361 474.558 561.709 475.587C561.966 475.845 570.979 480.735 571.237 480.992L669.09 538.384C670.12 538.899 671.15 539.671 671.922 540.443C678.618 546.105 677.073 554.084 668.06 560.003C668.06 560.775 651.837 578.533 650.807 579.048L579.219 654.713C573.297 658.316 565.571 660.118 558.104 660.118C551.666 660.118 545.228 658.831 540.593 656.257L381.71 554.598C376.56 551.767 374.243 547.65 374.758 543.274C375.53 539.156 378.62 534.524 384.801 531.178Z" fill="#101115"/>
<path opacity="0.15" d="M541.363 655.227L382.48 552.796C372.952 547.391 374.24 537.611 385.055 531.177L524.367 477.646C535.44 471.211 552.178 470.697 561.706 476.101L668.314 538.641C677.842 544.046 676.555 553.825 665.739 560.26L578.701 653.683C567.629 660.117 550.891 660.889 541.363 655.227Z" fill="black"/>
</g>
<path d="M541.367 654.971L382.485 562.835C378.107 560.261 376.047 557.173 376.047 553.57C376.047 553.57 376.047 531.436 376.047 531.179C376.047 527.061 379.137 534.267 385.06 530.922L524.372 477.39C535.445 470.956 552.183 470.441 561.71 475.846L668.319 538.385C671.409 540.187 673.727 532.466 674.757 534.782C675.014 535.554 674.757 556.915 674.757 557.687C674.757 562.063 671.666 566.438 665.744 570.041L578.706 653.427C567.633 659.861 550.895 660.633 541.367 654.971Z" fill="url(#paint0_linear_295_4354)"/>
<path d="M541.363 633.095L382.48 540.958C372.952 535.553 374.24 525.774 385.055 519.339L524.625 465.808C535.698 459.374 552.436 458.859 561.963 464.264L668.572 526.803C678.1 532.208 676.812 541.988 665.997 548.422L578.701 631.55C567.629 637.727 550.891 638.499 541.363 633.095Z" fill="url(#paint1_linear_295_4354)"/>
<path d="M668.833 526.545L562.224 464.006C552.697 458.601 535.959 459.116 524.886 465.55L454.586 492.573C455.358 493.088 455.873 493.603 456.646 494.117L615.529 586.254C617.846 587.541 620.421 588.57 622.996 589.085L666 548.164C677.073 541.73 678.361 532.207 668.833 526.545Z" fill="url(#paint2_linear_295_4354)"/>
<path d="M666 546.105L578.705 629.492C567.632 635.926 550.894 636.44 541.366 631.036L382.483 538.899C378.621 536.583 376.303 533.495 376.046 530.406C375.531 534.267 377.591 538.127 382.483 540.958L541.366 633.867C550.894 639.271 567.632 638.757 578.705 632.323L666 548.422C672.438 544.819 675.528 539.929 675.013 535.296C674.498 538.899 671.408 543.017 666 546.105Z" fill="white"/>
<path d="M748.919 633.352L359.051 408.158C339.223 396.577 323 365.693 323 339.185V41.1569C323 14.6484 339.223 2.29488 359.051 13.8763L748.919 239.07C768.747 250.651 784.97 281.535 784.97 308.044V606.072C784.97 632.838 768.747 644.934 748.919 633.352Z" fill="url(#paint3_linear_295_4354)"/>
<path d="M753.554 612.763L369.094 390.657C353.129 380.363 343.086 360.031 343.086 339.185V39.3551C343.086 34.4652 348.494 31.3768 352.614 33.9504C353.129 34.2078 353.386 34.4652 353.644 34.7225L738.619 257.085C757.674 268.152 764.627 287.712 764.627 308.558V607.616C764.627 613.02 758.962 616.109 754.327 613.535C754.069 613.02 753.812 612.763 753.554 612.763Z" fill="url(#paint4_linear_295_4354)"/>
<path d="M738.877 256.828L353.902 34.4647C353.644 34.2074 353.387 34.2074 352.872 33.6926C348.494 31.119 343.344 34.2074 343.344 39.0973V339.184C343.344 360.031 353.387 380.362 369.352 390.657L753.812 612.762C754.07 612.762 754.327 613.02 754.585 613.277C759.22 615.851 764.885 612.505 764.885 607.358V308.043C764.627 287.197 757.932 267.637 738.877 256.828ZM760.765 607.1C760.765 608.902 759.22 609.931 757.932 609.931C757.417 609.931 756.902 609.674 756.645 609.674L371.412 387.311C356.992 378.046 347.464 359.259 347.464 339.441V39.3547C347.464 37.8105 348.751 37.0384 349.781 37.0384C350.296 37.0384 350.554 37.0384 351.069 37.2957L737.074 260.173C756.902 271.497 761.022 292.601 761.022 308.043V607.1H760.765Z" fill="#AFB6E5"/>
<path d="M765.4 229.547L375.532 4.35318C367.549 -0.279374 360.339 -1.05147 354.416 1.26481C353.644 1.52218 337.163 11.0447 336.391 11.5594C342.571 8.47101 350.296 9.24311 358.794 14.133L748.661 239.327C768.49 250.908 784.713 281.792 784.713 308.3V606.328C784.713 622.8 778.532 633.866 768.747 636.955C769.52 636.955 770.55 636.697 771.837 635.925C772.352 635.668 789.605 625.373 790.12 625.116C797.073 620.226 801.193 610.446 801.193 596.806V298.521C801.708 272.012 785.485 241.128 765.4 229.547Z" fill="url(#paint5_linear_295_4354)"/>
<path d="M765.142 229.805L375.275 4.611C367.292 -0.0215619 360.082 -0.793655 354.159 1.52262C353.386 1.77999 337.163 11.0451 336.648 11.5598C342.829 8.47146 350.554 9.24356 359.052 14.1335L748.919 239.327C768.747 250.909 784.97 281.792 784.97 308.301V606.329C784.97 622.8 778.79 633.867 769.005 636.955C769.777 636.955 770.807 636.698 772.095 635.926C772.61 635.668 789.606 625.374 790.121 625.116C797.073 620.227 801.193 610.447 801.193 596.806V298.778C801.193 272.013 785.228 241.129 765.142 229.805Z" fill="url(#paint6_linear_295_4354)"/>
<path d="M764.885 229.805L375.017 4.611C367.034 -0.0215619 359.824 -0.793655 353.901 1.52262C353.129 1.77999 337.421 11.0451 336.648 11.3025C342.829 8.2141 350.554 8.98619 359.052 13.8761L748.919 239.07C768.747 250.651 784.971 281.535 784.971 308.044V606.071C784.971 622.543 778.79 633.609 769.005 636.698C769.777 636.698 770.808 636.44 772.095 635.668C772.61 635.411 789.348 625.374 789.606 625.116C796.558 620.227 800.679 610.447 800.679 596.806V298.778C800.936 272.27 784.97 241.386 764.885 229.805Z" fill="url(#paint7_linear_295_4354)"/>
<path d="M764.627 230.063L374.502 4.86881C366.519 0.236251 359.309 -0.535842 353.386 1.78044C352.614 2.0378 337.163 11.0456 336.391 11.3029C342.571 8.21455 350.296 8.98664 358.794 13.8766L748.661 239.07C768.49 250.652 784.713 281.535 784.713 308.044V606.072C784.713 622.543 778.532 633.61 768.747 636.698C769.52 636.698 770.55 636.441 771.837 635.669C772.352 635.411 788.575 625.632 789.09 625.374C796.043 620.484 800.163 610.704 800.163 597.064V299.036C800.678 272.528 784.455 241.644 764.627 230.063Z" fill="url(#paint8_linear_295_4354)"/>
<path d="M764.37 230.318L374.244 5.12467C366.262 0.49211 359.051 -0.279983 353.129 2.0363C352.356 2.29366 337.163 11.044 336.391 11.5588C342.571 8.4704 350.296 9.2425 358.794 14.1324L748.661 239.326C768.49 250.908 784.713 281.791 784.713 308.3V606.328C784.713 622.799 778.532 633.866 768.747 636.954C769.52 636.954 770.55 636.697 771.837 635.925C772.352 635.667 788.318 626.145 788.833 625.887C795.786 620.997 799.906 611.218 799.906 597.577V299.292C800.421 272.784 784.198 241.9 764.37 230.318Z" fill="url(#paint9_linear_295_4354)"/>
<path d="M764.112 230.576L373.987 5.38248C366.004 0.749922 358.794 -0.0221703 352.871 2.29411C352.099 2.55147 337.163 11.0445 336.391 11.5592C342.571 8.47085 350.296 9.24295 358.794 14.1329L748.661 239.327C768.49 250.908 784.713 281.792 784.713 308.3V606.328C784.713 622.8 778.532 633.866 768.747 636.955C769.52 636.955 770.55 636.697 771.837 635.925C772.352 635.668 788.06 626.403 788.575 625.888C795.528 620.998 799.648 611.218 799.648 597.578V299.55C800.163 272.784 783.94 242.158 764.112 230.576Z" fill="url(#paint10_linear_295_4354)"/>
<path d="M763.597 230.834L373.73 5.38248C365.747 0.749922 358.537 -0.0221703 352.614 2.29411C351.841 2.55147 337.163 11.0445 336.648 11.3019C342.829 8.21349 350.554 8.98558 359.052 13.8755L748.919 239.069C768.747 250.651 784.97 281.534 784.97 308.043V606.071C784.97 622.542 778.79 633.609 769.005 636.697C769.777 636.697 770.808 636.44 772.095 635.668C772.61 635.41 788.061 626.145 788.576 625.888C795.528 620.998 799.648 611.218 799.648 597.578V299.55C799.906 273.041 783.683 242.158 763.597 230.834Z" fill="url(#paint11_linear_295_4354)"/>
<path d="M763.34 230.834L373.472 5.64029C365.489 1.00774 358.279 0.235642 352.356 2.55192C351.584 2.80929 337.163 11.0449 336.648 11.3023C342.829 8.21394 350.554 8.98603 359.052 13.876L748.919 239.07C768.747 250.651 784.97 281.535 784.97 308.043V606.071C784.97 622.543 778.79 633.609 769.005 636.698C769.777 636.698 770.808 636.44 772.095 635.668C772.61 635.411 787.803 626.403 788.061 626.146C795.013 621.256 799.133 611.476 799.133 597.836V299.808C799.391 273.299 783.425 242.415 763.34 230.834Z" fill="url(#paint12_linear_295_4354)"/>
<path d="M763.082 231.09L373.215 5.89615C365.232 1.26359 358.022 0.491502 352.099 2.80778C351.326 3.06514 337.421 11.0434 336.648 11.5582C342.829 8.4698 350.554 9.24189 359.052 14.1318L748.919 239.326C768.747 250.907 784.97 281.791 784.97 308.299V606.327C784.97 622.798 778.79 633.865 769.005 636.953C769.777 636.953 770.808 636.696 772.095 635.924C772.61 635.667 787.546 626.916 787.803 626.659C794.756 621.769 798.876 611.989 798.876 598.349V300.064C799.133 273.555 782.91 242.671 763.082 231.09Z" fill="url(#paint13_linear_295_4354)"/>
<path d="M762.824 231.348L372.699 6.15397C364.717 1.52141 357.506 0.749314 351.584 3.06559C350.811 3.32296 337.163 11.0439 336.391 11.5586C342.571 8.47024 350.296 9.24234 358.794 14.1323L748.661 239.326C768.49 250.907 784.713 281.791 784.713 308.3V606.328C784.713 622.799 778.532 633.866 768.747 636.954C769.52 636.954 770.55 636.697 771.837 635.924C772.352 635.667 786.773 627.174 787.288 626.917C794.24 622.027 798.361 612.247 798.361 598.607V300.321C798.876 273.813 782.653 242.929 762.824 231.348Z" fill="url(#paint14_linear_295_4354)"/>
<path d="M762.567 231.606L372.442 6.41178C364.459 1.77922 357.249 1.00713 351.326 3.32341C350.554 3.58077 337.163 11.0443 336.391 11.5591C342.571 8.47069 350.296 9.24278 358.794 14.1327L748.661 239.327C768.49 250.908 784.713 281.792 784.713 308.3V606.328C784.713 622.799 778.532 633.866 768.747 636.954C769.52 636.954 770.55 636.697 771.837 635.925C772.352 635.668 786.515 627.175 787.03 626.917C793.983 622.027 798.103 612.247 798.103 598.607V300.579C798.618 273.813 782.395 242.93 762.567 231.606Z" fill="url(#paint15_linear_295_4354)"/>
<path d="M762.052 231.606L372.184 6.41178C364.202 1.77922 356.991 1.00713 351.069 3.32341C350.296 3.58077 337.163 11.0443 336.391 11.3017C342.571 8.21333 350.296 8.98542 358.794 13.8753L748.661 239.069C768.49 250.651 784.713 281.534 784.713 308.043V606.071C784.713 622.542 778.532 633.609 768.747 636.697C769.52 636.697 770.55 636.44 771.837 635.668C772.352 635.41 786.258 627.175 786.773 626.917C793.725 622.027 797.846 612.248 797.846 598.607V300.579C798.361 274.071 782.138 243.187 762.052 231.606Z" fill="url(#paint16_linear_295_4354)"/>
<path d="M761.795 231.863L371.927 6.66959C363.944 2.03703 356.734 1.26494 350.811 3.58122C350.039 3.83858 337.163 11.0448 336.648 11.3021C342.829 8.21378 350.554 8.98587 359.052 13.8758L748.919 239.07C768.747 250.651 784.97 281.535 784.97 308.043V606.071C784.97 622.542 778.79 633.609 769.005 636.697C769.777 636.697 770.808 636.44 772.095 635.668C772.61 635.411 786.258 627.432 786.773 627.175C793.726 622.285 797.846 612.505 797.846 598.865V300.837C797.846 274.328 781.88 243.445 761.795 231.863Z" fill="url(#paint17_linear_295_4354)"/>
<path d="M761.537 232.121L371.67 6.9274C363.687 2.29484 356.477 1.52275 350.554 3.83903C349.781 4.09639 337.421 11.0452 336.648 11.56C342.829 8.47159 350.554 9.24368 359.052 14.1336L748.919 239.327C768.747 250.909 784.97 281.793 784.97 308.301V606.329C784.97 622.8 778.79 633.867 769.005 636.955C769.777 636.955 770.807 636.698 772.095 635.926C772.61 635.669 786 627.948 786.258 627.69C793.211 622.8 797.331 613.02 797.331 599.38V301.095C797.588 274.586 781.623 243.703 761.537 232.121Z" fill="url(#paint18_linear_295_4354)"/>
<path d="M761.279 232.377L371.154 7.18326C363.171 2.5507 355.961 1.77861 350.039 4.09489C349.266 4.35225 337.163 11.0437 336.391 11.5585C342.571 8.47008 350.296 9.24218 358.794 14.1321L748.661 239.326C768.49 250.907 784.713 281.791 784.713 308.3V606.327C784.713 622.799 778.532 633.865 768.747 636.954C769.52 636.954 770.55 636.696 771.837 635.924C772.352 635.667 785.228 628.203 785.743 627.689C792.695 622.799 796.816 613.019 796.816 599.379V301.351C797.331 274.585 781.108 243.958 761.279 232.377Z" fill="url(#paint19_linear_295_4354)"/>
<path d="M761.022 232.635L370.897 7.44107C362.914 2.80852 355.704 2.03642 349.781 4.3527C349.009 4.61007 337.163 11.3015 336.391 11.5589C342.571 8.47053 350.296 9.24262 358.794 14.1325L748.661 239.326C768.49 250.908 784.713 281.791 784.713 308.3V606.328C784.713 622.799 778.532 633.866 768.747 636.954C769.52 636.954 770.55 636.697 771.837 635.925C772.352 635.667 784.97 628.204 785.485 627.946C792.438 623.057 796.558 613.277 796.558 599.636V301.351C797.073 274.843 780.85 243.959 761.022 232.635Z" fill="url(#paint20_linear_295_4354)"/>
<path d="M760.764 232.635L370.639 7.44107C362.656 2.80852 355.446 2.03642 349.524 4.3527C348.751 4.61007 337.163 11.0442 336.391 11.3015C342.571 8.21317 350.296 8.98526 358.794 13.8752L748.661 239.069C768.49 250.65 784.713 281.534 784.713 308.043V606.07C784.713 622.542 778.532 633.608 768.747 636.697C769.52 636.697 770.55 636.439 771.837 635.667C772.352 635.41 784.713 628.204 785.228 627.946C792.18 623.057 796.301 613.277 796.301 599.636V301.608C796.816 275.1 780.593 244.216 760.764 232.635Z" fill="url(#paint21_linear_295_4354)"/>
<path d="M760.249 232.893L370.382 7.69889C362.399 3.06633 355.189 2.29424 349.266 4.61051C348.494 4.86788 337.163 11.0446 336.391 11.5594C342.571 8.47098 350.296 9.24307 358.794 14.133L748.661 239.327C768.49 250.908 784.713 281.792 784.713 308.3V606.328C784.713 622.8 778.532 633.866 768.747 636.955C769.52 636.955 770.55 636.697 771.837 635.925C772.352 635.668 784.455 628.719 784.97 628.462C791.923 623.572 796.043 613.792 796.043 600.152V301.866C796.558 275.358 780.335 244.474 760.249 232.893Z" fill="url(#paint22_linear_295_4354)"/>
<path d="M759.992 233.15L370.125 7.9567C362.142 3.32414 354.932 2.55205 349.009 4.86833C348.236 5.12569 337.163 11.0451 336.648 11.5598C342.829 8.47143 350.554 9.24352 359.052 14.1334L748.919 239.327C768.747 250.909 784.97 281.792 784.97 308.301V606.329C784.97 622.8 778.79 633.867 769.005 636.955C769.777 636.955 770.808 636.698 772.095 635.926C772.61 635.668 784.455 628.977 784.713 628.719C791.666 623.83 795.786 614.05 795.786 600.409V302.124C796.043 275.616 780.078 244.732 759.992 233.15Z" fill="url(#paint23_linear_295_4354)"/>
<path d="M759.735 233.406L369.867 8.21256C361.884 3.58 354.674 2.80791 348.751 5.12419C347.979 5.38155 337.421 11.0436 336.648 11.5583C342.829 8.46992 350.554 9.24202 359.052 14.1319L748.919 239.326C768.747 250.907 784.971 281.791 784.971 308.299V606.327C784.971 622.799 778.79 633.865 769.005 636.954C769.777 636.954 770.808 636.696 772.095 635.924C772.61 635.667 784.198 628.975 784.455 628.718C791.408 623.828 795.528 614.048 795.528 600.408V302.38C795.786 275.614 779.563 244.73 759.735 233.406Z" fill="url(#paint24_linear_295_4354)"/>
<path d="M759.477 233.406L369.352 8.21256C361.369 3.58 354.159 2.80791 348.236 5.12419C347.463 5.38155 337.163 11.0436 336.391 11.3009C342.571 8.21256 350.296 8.98465 358.794 13.8746L748.661 239.068C768.49 250.65 784.713 281.534 784.713 308.042V606.07C784.713 622.541 778.532 633.608 768.747 636.696C769.52 636.696 770.55 636.439 771.837 635.667C772.352 635.41 783.425 628.975 783.94 628.718C790.893 623.828 795.013 614.048 795.013 600.408V302.38C795.528 275.871 779.305 244.988 759.477 233.406Z" fill="url(#paint25_linear_295_4354)"/>
<path d="M759.219 233.664L369.094 8.47037C361.111 3.83781 353.901 3.06572 347.979 5.382C347.206 5.63936 337.163 11.044 336.391 11.3014C342.571 8.21301 350.296 8.9851 358.794 13.875L748.661 239.069C768.49 250.65 784.713 281.534 784.713 308.042V606.07C784.713 622.542 778.532 633.608 768.747 636.697C769.52 636.697 770.55 636.439 771.837 635.667C772.352 635.41 783.168 629.233 783.683 628.976C790.635 624.086 794.755 614.306 794.755 600.666V302.638C795.271 276.129 779.048 245.246 759.219 233.664Z" fill="url(#paint26_linear_295_4354)"/>
<path d="M750.717 238.298L360.592 13.1042C352.351 8.47159 344.884 7.6995 338.961 10.2731C344.111 9.50105 350.034 10.7879 356.472 14.391L746.339 239.585C766.167 251.166 782.39 282.05 782.39 308.558V606.586C782.39 622.286 776.725 632.838 767.97 636.698C779.043 634.896 786.768 623.572 786.768 605.3V307.272C786.768 280.763 770.545 249.879 750.717 238.298Z" fill="white"/>
<path d="M480.326 386.796L359.555 316.536V305.727L480.326 375.987V386.796Z" fill="url(#paint27_linear_295_4354)"/>
<path d="M480.326 404.813L359.555 334.553V326.574L480.326 397.092V404.813Z" fill="url(#paint28_linear_295_4354)"/>
<path d="M480.326 421.283L359.555 350.765V344.588L480.326 414.848V421.283Z" fill="url(#paint29_linear_295_4354)"/>
<path d="M480.326 364.665L359.555 294.405V232.895L480.326 303.412V364.665Z" fill="url(#paint30_linear_295_4354)"/>
<path d="M615.006 466.323L494.234 396.063V384.996L615.006 455.514V466.323Z" fill="url(#paint31_linear_295_4354)"/>
<path d="M615.006 484.34L494.234 413.822V406.102L615.006 476.619V484.34Z" fill="url(#paint32_linear_295_4354)"/>
<path d="M615.006 500.812L494.234 430.294V424.117L615.006 494.378V500.812Z" fill="url(#paint33_linear_295_4354)"/>
<path d="M615.006 444.189L494.234 373.928V312.418L615.006 382.936V444.189Z" fill="url(#paint34_linear_295_4354)"/>
<path d="M750.709 546.878L629.68 476.36V465.551L750.709 535.811V546.878Z" fill="url(#paint35_linear_295_4354)"/>
<path d="M750.709 564.637L629.68 494.377V486.398L750.709 556.916V564.637Z" fill="url(#paint36_linear_295_4354)"/>
<path d="M750.709 581.109L629.68 510.591V504.414L750.709 574.932V581.109Z" fill="url(#paint37_linear_295_4354)"/>
<path d="M480.326 435.183L359.555 364.665V360.547L480.326 431.065V435.183Z" fill="url(#paint38_linear_295_4354)"/>
<path d="M615.006 514.708L494.234 444.19V440.072L615.006 510.333V514.708Z" fill="url(#paint39_linear_295_4354)"/>
<path d="M750.709 595.007L629.68 524.489V520.371L750.709 590.889V595.007Z" fill="url(#paint40_linear_295_4354)"/>
<path d="M750.709 524.489L629.68 454.229V392.719L750.709 463.237V524.489Z" fill="url(#paint41_linear_295_4354)"/>
<path d="M750.452 447.792L359.297 223.628V86.1953L750.452 310.36V447.792Z" fill="url(#paint42_linear_295_4354)"/>
<path d="M750.452 362.09L379.383 148.992V112.961L750.452 326.059V362.09Z" fill="url(#paint43_linear_295_4354)"/>
<path opacity="0.95" d="M750.451 397.35L490.883 248.336V234.695L750.451 383.709V397.35Z" fill="url(#paint44_linear_295_4354)"/>
<path d="M590.02 340.731L530.021 306.244C525.128 303.413 521.266 295.95 521.266 289.516V285.14C521.266 278.706 525.128 275.875 530.021 278.449L589.763 313.193C594.655 316.024 598.518 323.488 598.518 329.922V334.297C598.518 340.731 594.655 343.562 590.02 340.731Z" fill="url(#paint45_linear_295_4354)"/>
<path d="M494.227 222.6L550.878 255.543V248.079L494.227 215.137V222.6ZM558.346 252.455V259.918L625.813 298.523V291.059L558.346 252.455Z" fill="#AFD3E5"/>
<path d="M535.942 261.978L593.109 294.406V286.942L535.942 254.514V261.978ZM460.75 218.483L528.732 257.602V250.139L460.75 211.02V218.483ZM600.577 291.06V298.523L659.289 331.981V324.517L600.577 291.06Z" fill="#AFD3E5"/>
<path d="M615.775 261.203L518.18 205.098V215.907L615.775 272.012V261.203Z" fill="white"/>
<path d="M595.176 194.031L564.79 176.53C561.7 174.729 559.125 176.273 559.125 179.619C559.125 183.222 561.7 187.34 564.79 189.141L595.176 206.642C598.266 208.444 600.841 206.899 600.841 203.554C600.584 199.951 598.266 195.833 595.176 194.031ZM645.133 222.856L614.747 205.355C611.657 203.554 609.082 205.098 609.082 208.444C609.082 212.047 611.657 216.165 614.747 217.966L645.133 235.467C648.223 237.268 650.798 235.724 650.798 232.379C650.54 228.775 648.223 224.658 645.133 222.856ZM695.089 251.681L664.703 234.18C661.613 232.379 659.038 233.923 659.038 237.268C659.038 240.872 661.613 244.989 664.703 246.791L695.089 264.292C698.18 266.093 700.755 264.549 700.755 261.203C700.497 257.6 697.922 253.482 695.089 251.681ZM744.789 280.506L714.403 263.005C711.312 261.203 708.737 262.748 708.737 266.093C708.737 269.696 711.312 273.814 714.403 275.616L744.789 293.116C747.879 294.918 750.454 293.374 750.454 290.028C750.454 286.425 747.879 282.307 744.789 280.506Z" fill="#929CDB"/>
<path d="M421.614 115.021L359.297 78.99V55.3125L421.614 91.3435V115.021Z" fill="#929CDB"/>
<g opacity="0.2">
<path opacity="0.047619" d="M135.192 742.443C140.857 742.443 145.75 741.157 149.87 738.84L353.559 621.739C358.967 618.651 362.057 613.761 362.057 608.357C362.057 602.437 358.452 597.033 352.014 593.172L244.633 530.633C239.483 527.802 233.303 526 226.865 526C221.2 526 216.307 527.287 212.187 529.603L8.49778 646.704C3.09011 649.792 0 654.682 0 660.087C0 666.006 3.60512 671.411 10.0428 675.271L117.424 737.811C122.574 740.899 128.754 742.443 135.192 742.443Z" fill="#ABB2E2"/>
<path opacity="0.1342" d="M212.187 530.375L8.4984 647.476C3.34823 650.307 0.515625 654.939 0.515625 660.087C0.515625 665.749 4.12075 670.896 10.301 674.499L113.819 734.722C114.077 734.722 118.197 737.296 118.454 737.296C123.605 740.127 130.042 741.414 136.223 741.414C141.373 741.414 147.038 739.612 150.643 737.553L353.045 620.967C358.195 618.136 361.027 613.504 361.027 608.356C361.027 602.694 357.422 597.547 351.242 593.944L244.376 531.662C242.573 530.632 239.741 529.346 237.681 528.831C234.333 527.801 230.471 527.029 226.865 527.029C221.2 527.029 216.05 528.059 212.187 530.375Z" fill="#A4AADC"/>
<path opacity="0.2208" d="M212.188 531.147L8.49869 648.247C3.60603 651.078 0.773438 655.453 0.773438 660.343C0.773438 665.748 4.12104 670.638 10.0437 673.984L113.82 734.464C114.077 734.722 118.197 736.781 118.455 737.038C123.862 739.869 130.3 740.898 136.48 740.641C141.115 740.641 147.296 738.325 150.643 736.523L352.015 620.709C356.907 617.878 359.74 613.503 359.74 608.613C359.74 603.209 356.392 598.319 350.47 594.973L244.119 532.948C242.316 531.919 239.484 530.632 237.424 529.86C234.076 528.83 230.471 528.058 226.608 528.058C221.201 527.801 216.308 528.83 212.188 531.147Z" fill="#9CA2D7"/>
<path opacity="0.3074" d="M212.446 531.92L8.75712 649.021C4.12197 651.852 1.54688 655.97 1.54688 660.602C1.54688 665.492 4.89448 670.382 10.5597 673.47L114.851 734.208C115.366 734.466 118.971 736.525 119.486 736.782C124.893 739.356 131.589 740.385 137.511 739.87C141.631 739.87 148.584 737.039 151.417 735.495L351.758 620.196C356.393 617.365 358.968 613.247 358.968 608.615C358.968 603.725 355.621 598.835 349.956 595.746L244.12 533.979C242.575 533.207 239.227 531.405 237.682 530.89C234.334 529.861 230.729 529.089 226.867 528.832C221.459 528.574 216.309 529.604 212.446 531.92Z" fill="#9599D1"/>
<path opacity="0.3939" d="M212.704 532.691L9.01522 649.792C4.63758 652.366 2.0625 656.226 2.0625 660.601C2.0625 665.234 5.15259 669.867 10.5603 672.955L115.109 733.95C115.624 734.208 119.229 736.267 119.744 736.267C125.409 738.84 132.104 739.612 137.769 738.84C141.375 738.84 149.1 735.494 151.417 733.95L350.471 619.423C354.849 616.85 357.424 612.989 357.424 608.614C357.424 603.981 354.334 599.349 348.926 596.26L243.605 534.75C242.318 533.978 238.713 532.177 237.168 531.662C233.82 530.633 230.215 529.603 226.61 529.603C221.717 529.346 216.567 530.375 212.704 532.691Z" fill="#8E91CB"/>
<path opacity="0.4805" d="M212.955 533.206L9.26583 650.307C4.88819 652.88 2.82812 656.483 2.82812 660.601C2.82812 664.976 5.91824 669.094 11.0684 672.183L116.132 733.435C116.904 733.95 119.994 735.494 120.767 735.752C126.432 738.325 133.385 738.84 139.05 737.81C142.14 737.81 150.38 733.95 152.698 732.663L350.722 618.651C355.099 616.077 357.16 612.474 357.16 608.356C357.16 603.981 354.069 599.863 348.919 596.775L244.113 535.779C243.083 535.007 238.963 532.948 237.676 532.691C234.328 531.404 230.723 530.632 227.118 530.375C221.71 530.117 216.818 531.147 212.955 533.206Z" fill="#8789C5"/>
<path opacity="0.5671" d="M213.211 533.979L9.52231 651.08C5.40218 653.396 3.34212 656.999 3.59963 660.602C3.85714 664.72 6.43222 668.581 11.3249 671.412L116.903 732.922C117.676 733.437 120.766 734.981 121.796 735.238C127.719 737.554 134.671 738.069 140.079 736.782C142.654 736.782 151.667 732.407 153.469 731.378L350.463 618.137C354.584 615.821 356.644 612.218 356.386 608.615C356.129 604.497 353.553 600.637 348.661 597.806L244.37 537.068C243.34 536.553 239.22 534.237 237.932 533.722C234.585 532.435 231.237 531.406 227.632 531.148C221.967 530.891 216.817 531.92 213.211 533.979Z" fill="#7F81C0"/>
<path opacity="0.6537" d="M213.212 534.75L9.78049 651.85C5.91787 654.167 3.85779 657.255 4.1153 660.858C4.37281 664.719 6.94789 668.322 11.583 670.895L117.419 732.663C118.449 733.178 121.024 734.722 122.312 734.979C128.234 737.295 135.445 737.553 140.595 736.009C142.655 736.009 152.183 731.119 153.728 730.347L349.434 617.621C353.297 615.305 355.357 612.216 355.099 608.613C354.842 604.753 352.267 601.15 347.631 598.576L243.856 538.095C243.083 537.581 238.448 535.264 237.675 534.75C234.585 533.463 230.98 532.433 227.375 532.176C222.225 531.661 217.075 532.691 213.212 534.75Z" fill="#7879BA"/>
<path opacity="0.7403" d="M213.473 535.523L9.78375 652.624C6.17863 654.683 4.37607 657.771 4.63358 661.117C4.89109 664.462 7.20866 668.066 11.5863 670.639L117.937 732.664C118.967 733.436 121.542 734.466 122.83 734.98C129.01 737.297 136.22 737.297 141.37 735.495C142.916 735.495 153.216 730.09 154.246 729.318L348.922 617.365C352.527 615.306 354.33 612.217 354.072 608.872C353.815 605.526 351.497 601.923 347.12 599.349L243.859 539.126C243.344 538.869 238.194 536.038 237.679 535.78C234.589 534.493 230.983 533.464 227.378 532.949C222.486 532.435 217.078 533.207 213.473 535.523Z" fill="#7171B4"/>
<path opacity="0.8268" d="M213.731 536.295L10.0419 653.396C6.69432 655.455 4.89176 658.286 5.14927 661.117C5.40678 664.205 7.72435 667.294 11.8445 669.867L118.453 732.15C119.74 732.922 122.058 733.951 123.346 734.466C129.526 736.525 136.994 736.525 141.886 734.466C142.916 734.466 153.989 728.547 154.504 728.032L348.15 616.593C351.498 614.534 353.301 611.703 353.043 608.872C352.786 605.784 350.468 602.695 346.348 600.122L243.859 540.413C243.602 540.156 238.194 537.067 237.679 537.067C234.589 535.781 231.242 534.494 227.636 534.236C222.486 533.207 217.336 533.979 213.731 536.295Z" fill="#6A68AE"/>
<path opacity="0.9134" d="M213.985 536.81L10.2959 653.91C7.20584 655.712 5.6608 658.286 5.91831 661.117C6.17582 663.948 8.23587 666.779 12.0985 669.095L119.222 731.634C120.51 732.407 122.57 733.436 124.115 733.951C130.552 736.01 137.763 735.752 142.913 733.436C143.428 733.436 155.016 727.002 155.531 726.745L347.889 616.078C350.98 614.276 352.525 611.703 352.267 608.872C352.01 606.041 349.949 603.21 346.087 600.893L243.856 541.185C243.598 541.185 237.933 537.839 237.676 537.839C234.586 536.552 231.238 535.265 227.633 534.751C222.74 533.979 217.59 534.751 213.985 536.81Z" fill="#6260A9"/>
<path opacity="0.2" d="M143.431 732.149L347.12 615.048C353.3 611.445 352.528 605.268 345.318 601.408L237.937 538.611C230.984 534.493 220.169 533.978 213.988 537.581L10.2993 654.682C4.11912 658.285 4.89163 664.462 12.1019 668.322L119.483 730.862C126.693 735.237 137.508 735.752 143.431 732.149Z" fill="#5B58A3"/>
</g>
<path d="M114.59 732.664L12.8747 673.213C3.60436 667.809 4.8919 658.544 15.4497 652.367L208.581 540.928C219.396 534.751 235.362 533.979 244.632 539.384L346.348 598.835C355.618 604.24 354.331 613.505 343.773 619.681L150.642 731.12C139.826 737.297 123.861 738.069 114.59 732.664Z" fill="url(#paint46_linear_295_4354)"/>
<path d="M114.591 731.377L12.8755 671.926C8.75538 669.61 6.69531 666.264 6.69531 662.918C6.69531 662.661 6.69531 656.227 6.69531 655.97C6.95282 652.109 10.0429 654.168 15.4506 651.08L208.582 539.641C219.397 533.464 235.363 532.692 244.633 538.097L346.349 597.548C350.469 599.864 352.529 595.746 352.529 599.092C352.529 599.349 352.529 607.07 352.529 607.328C352.271 611.188 349.181 615.306 343.774 618.394L150.642 729.833C139.827 736.01 123.862 736.782 114.591 731.377Z" fill="url(#paint47_linear_295_4354)"/>
<path d="M114.59 724.428L12.8747 664.977C3.60436 659.572 4.8919 650.307 15.4497 644.13L208.581 532.692C219.396 526.515 235.362 525.743 244.632 531.147L346.348 590.599C355.618 596.003 354.331 605.268 343.773 611.445L150.642 722.884C139.826 729.061 123.861 729.575 114.59 724.428Z" fill="url(#paint48_linear_295_4354)"/>
<path d="M12.6235 663.948L114.339 723.399C123.61 728.803 139.833 728.031 150.39 721.855L343.522 610.416C349.187 607.07 352.02 602.952 352.277 599.092C352.535 603.21 349.444 607.842 343.522 611.445L150.39 722.884C139.575 729.061 123.61 729.833 114.339 724.428L12.6235 664.977C8.2459 662.403 6.18583 659.058 6.44333 655.455C6.70084 658.543 8.76091 661.631 12.6235 663.948Z" fill="white"/>
<path d="M32.6999 639.755L201.11 542.214C209.093 537.582 220.939 537.067 227.891 541.185L328.577 599.864C335.53 603.724 334.5 610.673 326.775 615.306L158.364 712.847C150.381 717.479 138.536 717.994 131.583 713.876L30.8974 655.197C23.9446 651.337 24.7172 644.388 32.6999 639.755Z" fill="#AFB6E5"/>
<path d="M227.123 542.729C220.685 538.869 210.127 538.869 203.689 542.729L33.2189 641.557C26.7812 645.16 26.7812 651.337 33.2189 654.94L131.845 712.59C138.282 716.45 148.84 716.45 155.278 712.59L325.748 613.762C332.186 610.159 332.186 603.982 325.748 600.379L227.123 542.729Z" fill="url(#paint49_linear_295_4354)"/>
<path d="M143.944 713.62C148.064 713.62 151.927 712.59 154.759 711.046L325.23 612.218C327.805 610.674 329.35 608.872 329.35 606.813C329.35 604.755 327.805 602.953 325.23 601.409L226.604 543.759C223.772 541.958 219.909 541.186 215.789 541.186C211.669 541.186 207.806 542.215 204.973 543.759L34.5029 642.587C31.9279 644.131 30.3828 645.933 30.3828 647.992C30.3828 650.051 31.9279 651.852 34.5029 653.396L133.129 711.046C135.704 712.848 139.566 713.62 143.944 713.62Z" fill="url(#paint50_linear_295_4354)"/>
<path opacity="0.5" d="M213.219 686.853L343.776 611.188C349.183 608.099 352.273 603.982 352.531 600.121C352.531 599.864 352.531 598.32 352.531 596.775C352.531 596.775 352.531 604.754 352.531 605.011C352.273 608.871 349.183 612.989 343.776 616.078L213.219 686.853Z" fill="#836DF3"/>
<path d="M56.6562 697.405L71.3342 705.898C71.3342 703.324 69.7892 699.979 67.7291 698.949L60.2614 694.574C58.2013 693.545 56.6562 694.832 56.6562 697.405Z" fill="#9396AB"/>
<path d="M118.454 660.088L65.9219 629.461L71.3295 626.373L123.861 656.999L118.454 660.088Z" fill="url(#paint51_linear_295_4354)"/>
<path d="M109.695 665.236L56.9062 634.609L61.0264 632.293L113.558 662.919L109.695 665.236Z" fill="url(#paint52_linear_295_4354)"/>
<path d="M101.454 669.867L48.9219 639.241L52.012 637.439L104.544 668.066L101.454 669.867Z" fill="url(#paint53_linear_295_4354)"/>
<path d="M129.516 653.652L76.9844 623.026L112.778 601.922L165.31 632.548L129.516 653.652Z" fill="url(#paint54_linear_295_4354)"/>
<path d="M177.157 693.803L124.625 663.176L130.033 660.088L182.564 690.714L177.157 693.803Z" fill="url(#paint55_linear_295_4354)"/>
<path d="M168.406 698.95L115.617 668.324L119.48 666.008L172.269 696.634L168.406 698.95Z" fill="url(#paint56_linear_295_4354)"/>
<path d="M160.164 703.582L107.633 672.956L110.723 671.154L163.255 701.781L160.164 703.582Z" fill="url(#paint57_linear_295_4354)"/>
<path d="M188.235 687.367L135.703 656.741L171.239 635.637L224.028 666.263L188.235 687.367Z" fill="url(#paint58_linear_295_4354)"/>
<path d="M94.5004 673.983L41.9688 643.357L44.0288 642.07L96.5605 672.697L94.5004 673.983Z" fill="url(#paint59_linear_295_4354)"/>
<path d="M153.211 707.7L100.68 677.074L102.74 675.787L155.271 706.413L153.211 707.7Z" fill="url(#paint60_linear_295_4354)"/>
<path d="M231.236 661.116L120.508 597.804L189.005 558.428L299.734 621.482L231.236 661.116Z" fill="url(#paint61_linear_295_4354)"/>
<path d="M273.981 636.41L172.266 578.246L190.034 567.951L291.75 626.115L273.981 636.41Z" fill="url(#paint62_linear_295_4354)"/>
<path opacity="0.95" d="M256.211 646.704L203.422 616.335L210.375 612.475L263.164 642.586L256.211 646.704Z" fill="url(#paint63_linear_295_4354)"/>
<path d="M203.421 635.638L166.34 614.277C164.279 612.99 165.052 610.674 168.4 608.615L170.717 607.328C173.807 605.527 178.185 605.012 180.245 606.299L217.326 627.66C219.386 628.947 218.614 631.263 215.266 633.322L212.949 634.609C209.858 636.41 205.481 636.925 203.421 635.638Z" fill="url(#paint64_linear_295_4354)"/>
<path d="M186.422 590.34L211.143 604.753L214.748 602.694L190.027 588.281L186.422 590.34ZM218.095 604.238L214.49 606.297L244.104 623.283L247.709 621.224L218.095 604.238Z" fill="#AFD3E5"/>
<path d="M197.242 605.268L222.478 619.423L226.083 617.364L200.847 602.952L197.242 605.268ZM164.281 586.223L193.895 603.209L197.5 601.15L167.886 584.164L164.281 586.223ZM229.431 619.166L225.826 621.225L251.577 635.894L255.182 633.835L229.431 619.166Z" fill="#AFD3E5"/>
<path d="M255.186 611.961L212.439 587.254L207.289 590.342L249.778 615.049L255.186 611.961Z" fill="white"/>
<path d="M239.474 579.79L197.5 555.597L215.526 545.303L257.499 569.238L239.474 579.79Z" fill="#929CDB"/>
<path d="M318.79 609.643L306.172 602.18L308.232 601.15L320.85 608.357L318.79 609.643Z" fill="white"/>
<path d="M314.415 612.217L301.797 604.754L303.857 603.467L316.732 610.93L314.415 612.217Z" fill="white"/>
<path d="M310.297 614.534L297.422 607.328L299.739 606.041L312.357 613.247L310.297 614.534Z" fill="white"/>
<defs>
<linearGradient id="paint0_linear_295_4354" x1="388.165" y1="565.486" x2="703.511" y2="565.486" gradientUnits="userSpaceOnUse">
<stop stop-color="#CDD2F3"/>
<stop offset="0.4343" stop-color="#E5E9FF"/>
<stop offset="0.4834" stop-color="#EFF2FF"/>
<stop offset="0.5354" stop-color="white"/>
<stop offset="0.5905" stop-color="#EBEDF9"/>
<stop offset="0.7024" stop-color="#B9BFE8"/>
<stop offset="0.7222" stop-color="#AFB6E5"/>
<stop offset="0.9091" stop-color="#AFB6E5"/>
<stop offset="0.9503" stop-color="#BAC0EA"/>
<stop offset="1" stop-color="#CDD2F3"/>
</linearGradient>
<linearGradient id="paint1_linear_295_4354" x1="564.845" y1="458.801" x2="481.45" y2="618.449" gradientUnits="userSpaceOnUse">
<stop stop-color="#AFB6E5"/>
<stop offset="0.1449" stop-color="#B6BCE8"/>
<stop offset="0.3485" stop-color="#C8CDF1"/>
<stop offset="0.5808" stop-color="#E5E9FF"/>
<stop offset="0.8551" stop-color="#F5F6FF"/>
<stop offset="1" stop-color="white"/>
</linearGradient>
<linearGradient id="paint2_linear_295_4354" x1="583.186" y1="479.665" x2="547.506" y2="549.28" gradientUnits="userSpaceOnUse">
<stop offset="0.1818" stop-color="#4D5A96"/>
<stop offset="0.2483" stop-color="#6A75A7"/>
<stop offset="0.3644" stop-color="#979FC2"/>
<stop offset="0.4813" stop-color="#BDC2D8"/>
<stop offset="0.5972" stop-color="#DADCE9"/>
<stop offset="0.712" stop-color="#EEF0F5"/>
<stop offset="0.825" stop-color="#FBFBFD"/>
<stop offset="0.9343" stop-color="white"/>
</linearGradient>
<linearGradient id="paint3_linear_295_4354" x1="5.0542" y1="203.336" x2="1008.49" y2="423.669" gradientUnits="userSpaceOnUse">
<stop stop-color="#AFB6E5"/>
<stop offset="0.1449" stop-color="#B6BCE8"/>
<stop offset="0.3485" stop-color="#C8CDF1"/>
<stop offset="0.5808" stop-color="#E5E9FF"/>
<stop offset="0.8551" stop-color="#F5F6FF"/>
<stop offset="1" stop-color="white"/>
</linearGradient>
<linearGradient id="paint4_linear_295_4354" x1="362.461" y1="35.1747" x2="772.715" y2="652.421" gradientUnits="userSpaceOnUse">
<stop offset="0.00505051" stop-color="#273B98"/>
<stop offset="0.2274" stop-color="#2F2BA2"/>
<stop offset="0.399" stop-color="#361CAC"/>
<stop offset="0.768" stop-color="#440B89"/>
<stop offset="1" stop-color="#4E0070"/>
</linearGradient>
<linearGradient id="paint5_linear_295_4354" x1="467.719" y1="-57.3625" x2="810.654" y2="630.084" gradientUnits="userSpaceOnUse">
<stop stop-color="#B3BAE7"/>
<stop offset="0.1919" stop-color="#B7BDE9"/>
<stop offset="0.2828" stop-color="#BAC0E9"/>
<stop offset="0.4091" stop-color="#AFB6E5"/>
<stop offset="0.9091" stop-color="#AFB6E5"/>
<stop offset="1" stop-color="#B3BAE7"/>
</linearGradient>
<linearGradient id="paint6_linear_295_4354" x1="467.577" y1="-57.2421" x2="810.493" y2="630.165" gradientUnits="userSpaceOnUse">
<stop stop-color="#B4BBE8"/>
<stop offset="0.1919" stop-color="#B9BEEA"/>
<stop offset="0.2828" stop-color="#BCC2EA"/>
<stop offset="0.4091" stop-color="#B2B8E6"/>
<stop offset="0.4343" stop-color="#B2B8E6"/>
<stop offset="0.5354" stop-color="#B3B9E6"/>
<stop offset="0.7222" stop-color="#AFB6E5"/>
<stop offset="0.9091" stop-color="#AFB6E5"/>
<stop offset="1" stop-color="#B4BBE8"/>
</linearGradient>
<linearGradient id="paint7_linear_295_4354" x1="467.435" y1="-57.1225" x2="810.331" y2="630.245" gradientUnits="userSpaceOnUse">
<stop stop-color="#B5BCE8"/>
<stop offset="0.1919" stop-color="#BAC0EA"/>
<stop offset="0.2828" stop-color="#BDC3EB"/>
<stop offset="0.4091" stop-color="#B4BBE7"/>
<stop offset="0.4343" stop-color="#B4BBE7"/>
<stop offset="0.5354" stop-color="#B7BDE7"/>
<stop offset="0.7222" stop-color="#AFB6E5"/>
<stop offset="0.9091" stop-color="#AFB6E5"/>
<stop offset="1" stop-color="#B5BCE8"/>
</linearGradient>
<linearGradient id="paint8_linear_295_4354" x1="467.292" y1="-57.0026" x2="810.168" y2="630.325" gradientUnits="userSpaceOnUse">
<stop stop-color="#B7BDE9"/>
<stop offset="0.1919" stop-color="#BCC1EB"/>
<stop offset="0.2828" stop-color="#BFC5EC"/>
<stop offset="0.4091" stop-color="#B7BDE9"/>
<stop offset="0.4343" stop-color="#B7BDE9"/>
<stop offset="0.5354" stop-color="#BAC0E9"/>
<stop offset="0.7222" stop-color="#AFB6E5"/>
<stop offset="0.9091" stop-color="#AFB6E5"/>
<stop offset="1" stop-color="#B7BDE9"/>
</linearGradient>
<linearGradient id="paint9_linear_295_4354" x1="467.15" y1="-56.8844" x2="810.006" y2="630.404" gradientUnits="userSpaceOnUse">
<stop stop-color="#B8BFE9"/>
<stop offset="0.1919" stop-color="#BDC3EC"/>
<stop offset="0.2828" stop-color="#C1C6EC"/>
<stop offset="0.4091" stop-color="#B9C0EA"/>
<stop offset="0.4343" stop-color="#B9C0EA"/>
<stop offset="0.5354" stop-color="#BEC4EA"/>
<stop offset="0.7222" stop-color="#AFB6E5"/>
<stop offset="0.9091" stop-color="#AFB6E5"/>
<stop offset="1" stop-color="#B8BFE9"/>
</linearGradient>
<linearGradient id="paint10_linear_295_4354" x1="467.008" y1="-56.7641" x2="809.844" y2="630.484" gradientUnits="userSpaceOnUse">
<stop stop-color="#B9C0EA"/>
<stop offset="0.1919" stop-color="#BFC4ED"/>
<stop offset="0.2828" stop-color="#C2C8ED"/>
<stop offset="0.4091" stop-color="#BCC2EB"/>
<stop offset="0.4343" stop-color="#BCC2EB"/>
<stop offset="0.5354" stop-color="#C2C7EB"/>
<stop offset="0.7222" stop-color="#AFB6E5"/>
<stop offset="0.9091" stop-color="#AFB6E5"/>
<stop offset="1" stop-color="#B9C0EA"/>
</linearGradient>
<linearGradient id="paint11_linear_295_4354" x1="466.866" y1="-56.6444" x2="809.682" y2="630.564" gradientUnits="userSpaceOnUse">
<stop stop-color="#BAC1EA"/>
<stop offset="0.1919" stop-color="#C0C6ED"/>
<stop offset="0.2828" stop-color="#C4C9EE"/>
<stop offset="0.4091" stop-color="#BEC4EC"/>
<stop offset="0.4343" stop-color="#BEC5EC"/>
<stop offset="0.5354" stop-color="#C6CBEC"/>
<stop offset="0.698" stop-color="#B2B9E6"/>
<stop offset="0.7222" stop-color="#AFB6E5"/>
<stop offset="0.9091" stop-color="#AFB6E5"/>
<stop offset="0.999" stop-color="#BAC1EA"/>
<stop offset="1" stop-color="#BAC1EA"/>
</linearGradient>
<linearGradient id="paint12_linear_295_4354" x1="466.723" y1="-56.5243" x2="809.52" y2="630.645" gradientUnits="userSpaceOnUse">
<stop stop-color="#BCC2EB"/>
<stop offset="0.1919" stop-color="#C2C7EE"/>
<stop offset="0.2828" stop-color="#C6CBEF"/>
<stop offset="0.4091" stop-color="#C1C7ED"/>
<stop offset="0.4343" stop-color="#C1C7EE"/>
<stop offset="0.5354" stop-color="#CACEEE"/>
<stop offset="0.6768" stop-color="#B6BDE7"/>
<stop offset="0.7222" stop-color="#AFB6E5"/>
<stop offset="0.9091" stop-color="#AFB6E5"/>
<stop offset="0.9881" stop-color="#BAC0EA"/>
<stop offset="1" stop-color="#BCC2EB"/>
</linearGradient>
<linearGradient id="paint13_linear_295_4354" x1="466.581" y1="-56.4061" x2="809.358" y2="630.723" gradientUnits="userSpaceOnUse">
<stop stop-color="#BDC3EC"/>
<stop offset="0.1919" stop-color="#C4C9EF"/>
<stop offset="0.2828" stop-color="#C7CDF0"/>
<stop offset="0.4091" stop-color="#C3C9EF"/>
<stop offset="0.4343" stop-color="#C4C9EF"/>
<stop offset="0.5354" stop-color="#CDD2EF"/>
<stop offset="0.6644" stop-color="#B9C0E8"/>
<stop offset="0.7222" stop-color="#AFB6E5"/>
<stop offset="0.9091" stop-color="#AFB6E5"/>
<stop offset="0.9836" stop-color="#BAC0EA"/>
<stop offset="1" stop-color="#BDC3EC"/>
</linearGradient>
<linearGradient id="paint14_linear_295_4354" x1="466.438" y1="-56.2862" x2="809.196" y2="630.804" gradientUnits="userSpaceOnUse">
<stop stop-color="#BEC4EC"/>
<stop offset="0.1919" stop-color="#C5CAEF"/>
<stop offset="0.2828" stop-color="#C9CEF1"/>
<stop offset="0.4091" stop-color="#C6CBF0"/>
<stop offset="0.4343" stop-color="#C6CCF0"/>
<stop offset="0.5289" stop-color="#D0D4F0"/>
<stop offset="0.5354" stop-color="#D1D5F0"/>
<stop offset="0.651" stop-color="#BDC3EA"/>
<stop offset="0.7222" stop-color="#AFB6E5"/>
<stop offset="0.9091" stop-color="#AFB6E5"/>
<stop offset="0.9797" stop-color="#BAC0EA"/>
<stop offset="1" stop-color="#BEC4EC"/>
</linearGradient>
<linearGradient id="paint15_linear_295_4354" x1="466.296" y1="-56.1661" x2="809.034" y2="630.884" gradientUnits="userSpaceOnUse">
<stop stop-color="#BFC5ED"/>
<stop offset="0.1919" stop-color="#C7CCF0"/>
<stop offset="0.2828" stop-color="#CBD0F2"/>
<stop offset="0.4091" stop-color="#C8CEF1"/>
<stop offset="0.4343" stop-color="#C9CEF1"/>
<stop offset="0.5228" stop-color="#D3D7F1"/>
<stop offset="0.5354" stop-color="#D5D9F1"/>
<stop offset="0.6403" stop-color="#C1C7EB"/>
<stop offset="0.7222" stop-color="#AFB6E5"/>
<stop offset="0.9091" stop-color="#AFB6E5"/>
<stop offset="0.9763" stop-color="#BAC0EA"/>
<stop offset="1" stop-color="#BFC5ED"/>
</linearGradient>
<linearGradient id="paint16_linear_295_4354" x1="466.154" y1="-56.0467" x2="808.872" y2="630.964" gradientUnits="userSpaceOnUse">
<stop stop-color="#C1C7ED"/>
<stop offset="0.1919" stop-color="#C8CDF1"/>
<stop offset="0.2828" stop-color="#CCD1F2"/>
<stop offset="0.4091" stop-color="#CBD0F2"/>
<stop offset="0.4343" stop-color="#CBD1F3"/>
<stop offset="0.513" stop-color="#D5D9F3"/>
<stop offset="0.5354" stop-color="#D9DCF3"/>
<stop offset="0.6316" stop-color="#C5CAEC"/>
<stop offset="0.7222" stop-color="#AFB6E5"/>
<stop offset="0.9091" stop-color="#AFB6E5"/>
<stop offset="0.9704" stop-color="#BAC0EA"/>
<stop offset="1" stop-color="#C1C7ED"/>
</linearGradient>
<linearGradient id="paint17_linear_295_4354" x1="466.012" y1="-55.9265" x2="808.71" y2="631.045" gradientUnits="userSpaceOnUse">
<stop stop-color="#C2C8EE"/>
<stop offset="0.1919" stop-color="#CACFF2"/>
<stop offset="0.2828" stop-color="#CED3F3"/>
<stop offset="0.4091" stop-color="#CDD3F3"/>
<stop offset="0.4343" stop-color="#CED3F4"/>
<stop offset="0.509" stop-color="#D8DCF4"/>
<stop offset="0.5354" stop-color="#DDE0F4"/>
<stop offset="0.6245" stop-color="#C9CEEE"/>
<stop offset="0.7222" stop-color="#AFB6E5"/>
<stop offset="0.9091" stop-color="#AFB6E5"/>
<stop offset="0.9679" stop-color="#BAC0EA"/>
<stop offset="1" stop-color="#C2C8EE"/>
</linearGradient>
<linearGradient id="paint18_linear_295_4354" x1="465.869" y1="-55.8064" x2="808.548" y2="631.126" gradientUnits="userSpaceOnUse">
<stop stop-color="#C3C9EE"/>
<stop offset="0.1919" stop-color="#CBD0F2"/>
<stop offset="0.2828" stop-color="#D0D4F4"/>
<stop offset="0.4091" stop-color="#D0D5F4"/>
<stop offset="0.4343" stop-color="#D0D6F5"/>
<stop offset="0.5022" stop-color="#DADEF5"/>
<stop offset="0.5354" stop-color="#E1E3F5"/>
<stop offset="0.6182" stop-color="#CDD1EF"/>
<stop offset="0.7222" stop-color="#AFB6E5"/>
<stop offset="0.9091" stop-color="#AFB6E5"/>
<stop offset="0.9656" stop-color="#BAC0EA"/>
<stop offset="1" stop-color="#C3C9EE"/>
</linearGradient>
<linearGradient id="paint19_linear_295_4354" x1="465.727" y1="-55.6888" x2="808.385" y2="631.204" gradientUnits="userSpaceOnUse">
<stop stop-color="#C4CAEF"/>
<stop offset="0.1919" stop-color="#CDD2F3"/>
<stop offset="0.2828" stop-color="#D1D6F5"/>
<stop offset="0.4091" stop-color="#D2D7F6"/>
<stop offset="0.4343" stop-color="#D3D8F6"/>
<stop offset="0.5022" stop-color="#DDE1F6"/>
<stop offset="0.5354" stop-color="#E4E7F6"/>
<stop offset="0.6142" stop-color="#D0D5F0"/>
<stop offset="0.7222" stop-color="#AFB6E5"/>
<stop offset="0.9091" stop-color="#AFB6E5"/>
<stop offset="0.9635" stop-color="#BAC0EA"/>
<stop offset="1" stop-color="#C4CAEF"/>
</linearGradient>
<linearGradient id="paint20_linear_295_4354" x1="465.584" y1="-55.5689" x2="808.224" y2="631.285" gradientUnits="userSpaceOnUse">
<stop stop-color="#C6CBF0"/>
<stop offset="0.1919" stop-color="#CFD3F4"/>
<stop offset="0.2828" stop-color="#D3D8F6"/>
<stop offset="0.4091" stop-color="#D5DAF7"/>
<stop offset="0.4343" stop-color="#D6DAF8"/>
<stop offset="0.4993" stop-color="#E0E3F8"/>
<stop offset="0.5354" stop-color="#E8EAF8"/>
<stop offset="0.6093" stop-color="#D4D8F1"/>
<stop offset="0.7222" stop-color="#AFB6E5"/>
<stop offset="0.9091" stop-color="#AFB6E5"/>
<stop offset="0.9597" stop-color="#BAC0EA"/>
<stop offset="1" stop-color="#C6CBF0"/>
</linearGradient>
<linearGradient id="paint21_linear_295_4354" x1="465.441" y1="-55.4495" x2="808.061" y2="631.365" gradientUnits="userSpaceOnUse">
<stop stop-color="#C7CCF0"/>
<stop offset="0.1919" stop-color="#D0D5F4"/>
<stop offset="0.2828" stop-color="#D5D9F7"/>
<stop offset="0.4091" stop-color="#D7DCF8"/>
<stop offset="0.4343" stop-color="#D8DDF9"/>
<stop offset="0.4942" stop-color="#E2E6F9"/>
<stop offset="0.5354" stop-color="#ECEEF9"/>
<stop offset="0.6051" stop-color="#D8DCF3"/>
<stop offset="0.7222" stop-color="#AFB6E5"/>
<stop offset="0.9091" stop-color="#AFB6E5"/>
<stop offset="0.9581" stop-color="#BAC0EA"/>
<stop offset="1" stop-color="#C7CCF0"/>
</linearGradient>
<linearGradient id="paint22_linear_295_4354" x1="465.299" y1="-55.3299" x2="807.899" y2="631.445" gradientUnits="userSpaceOnUse">
<stop stop-color="#C8CDF1"/>
<stop offset="0.1919" stop-color="#D2D6F5"/>
<stop offset="0.2828" stop-color="#D6DBF8"/>
<stop offset="0.4091" stop-color="#DADEF9"/>
<stop offset="0.4343" stop-color="#DBDFFA"/>
<stop offset="0.4921" stop-color="#E5E8FA"/>
<stop offset="0.5354" stop-color="#F0F1FA"/>
<stop offset="0.6013" stop-color="#DCDFF4"/>
<stop offset="0.7222" stop-color="#AFB6E5"/>
<stop offset="0.9091" stop-color="#AFB6E5"/>
<stop offset="0.9566" stop-color="#BAC0EA"/>
<stop offset="1" stop-color="#C8CDF1"/>
</linearGradient>
<linearGradient id="paint23_linear_295_4354" x1="465.157" y1="-55.21" x2="807.738" y2="631.526" gradientUnits="userSpaceOnUse">
<stop stop-color="#C9CFF1"/>
<stop offset="0.1919" stop-color="#D3D8F6"/>
<stop offset="0.2828" stop-color="#D8DCF8"/>
<stop offset="0.4091" stop-color="#DCE1FA"/>
<stop offset="0.4343" stop-color="#DDE2FB"/>
<stop offset="0.4882" stop-color="#E7EAFB"/>
<stop offset="0.5354" stop-color="#F4F5FB"/>
<stop offset="0.598" stop-color="#E0E3F5"/>
<stop offset="0.7222" stop-color="#AFB6E5"/>
<stop offset="0.9091" stop-color="#AFB6E5"/>
<stop offset="0.9551" stop-color="#BAC0EA"/>
<stop offset="1" stop-color="#C9CFF1"/>
</linearGradient>
<linearGradient id="paint24_linear_295_4354" x1="465.014" y1="-55.0926" x2="807.576" y2="631.604" gradientUnits="userSpaceOnUse">
<stop stop-color="#CBD0F2"/>
<stop offset="0.1919" stop-color="#D5D9F7"/>
<stop offset="0.2828" stop-color="#DADEF9"/>
<stop offset="0.4091" stop-color="#DFE3FC"/>
<stop offset="0.4343" stop-color="#E0E4FD"/>
<stop offset="0.4882" stop-color="#EAEDFD"/>
<stop offset="0.5354" stop-color="#F7F8FD"/>
<stop offset="0.5957" stop-color="#E3E6F6"/>
<stop offset="0.7185" stop-color="#B1B8E6"/>
<stop offset="0.7222" stop-color="#AFB6E5"/>
<stop offset="0.9091" stop-color="#AFB6E5"/>
<stop offset="0.9526" stop-color="#BAC0EA"/>
<stop offset="1" stop-color="#CBD0F2"/>
</linearGradient>
<linearGradient id="paint25_linear_295_4354" x1="464.871" y1="-54.974" x2="807.413" y2="631.684" gradientUnits="userSpaceOnUse">
<stop stop-color="#CCD1F2"/>
<stop offset="0.1919" stop-color="#D6DBF7"/>
<stop offset="0.2828" stop-color="#DBDFFA"/>
<stop offset="0.4091" stop-color="#E1E6FD"/>
<stop offset="0.4343" stop-color="#E2E7FE"/>
<stop offset="0.4849" stop-color="#ECEFFE"/>
<stop offset="0.5354" stop-color="#FBFCFE"/>
<stop offset="0.593" stop-color="#E7EAF8"/>
<stop offset="0.7101" stop-color="#B5BBE7"/>
<stop offset="0.7222" stop-color="#AFB6E5"/>
<stop offset="0.9091" stop-color="#AFB6E5"/>
<stop offset="0.9514" stop-color="#BAC0EA"/>
<stop offset="1" stop-color="#CCD1F2"/>
</linearGradient>
<linearGradient id="paint26_linear_295_4354" x1="464.728" y1="-54.8549" x2="807.251" y2="631.765" gradientUnits="userSpaceOnUse">
<stop stop-color="#CDD2F3"/>
<stop offset="0.4343" stop-color="#E5E9FF"/>
<stop offset="0.4834" stop-color="#EFF2FF"/>
<stop offset="0.5354" stop-color="white"/>
<stop offset="0.5905" stop-color="#EBEDF9"/>
<stop offset="0.7024" stop-color="#B9BFE8"/>
<stop offset="0.7222" stop-color="#AFB6E5"/>
<stop offset="0.9091" stop-color="#AFB6E5"/>
<stop offset="0.9503" stop-color="#BAC0EA"/>
<stop offset="1" stop-color="#CDD2F3"/>
</linearGradient>
<linearGradient id="paint27_linear_295_4354" x1="541.698" y1="149.693" x2="396.751" y2="383.969" gradientUnits="userSpaceOnUse">
<stop offset="0.00505051" stop-color="#4C4FFA"/>
<stop offset="0.298" stop-color="#4C4FFA"/>
<stop offset="0.325" stop-color="#4C52FA"/>
<stop offset="0.6616" stop-color="#5277F7"/>
<stop offset="0.7579" stop-color="#5B75F6"/>
<stop offset="0.9138" stop-color="#7370F4"/>
<stop offset="1" stop-color="#836DF3"/>
</linearGradient>
<linearGradient id="paint28_linear_295_4354" x1="550.421" y1="155.09" x2="405.472" y2="389.368" gradientUnits="userSpaceOnUse">
<stop offset="0.00505051" stop-color="#4C4FFA"/>
<stop offset="0.298" stop-color="#4C4FFA"/>
<stop offset="0.325" stop-color="#4C52FA"/>
<stop offset="0.6616" stop-color="#5277F7"/>
<stop offset="0.7579" stop-color="#5B75F6"/>
<stop offset="0.9138" stop-color="#7370F4"/>
<stop offset="1" stop-color="#836DF3"/>
</linearGradient>
<linearGradient id="paint29_linear_295_4354" x1="558.101" y1="159.841" x2="413.154" y2="394.118" gradientUnits="userSpaceOnUse">
<stop offset="0.00505051" stop-color="#4C4FFA"/>
<stop offset="0.298" stop-color="#4C4FFA"/>
<stop offset="0.325" stop-color="#4C52FA"/>
<stop offset="0.6616" stop-color="#5277F7"/>
<stop offset="0.7579" stop-color="#5B75F6"/>
<stop offset="0.9138" stop-color="#7370F4"/>
<stop offset="1" stop-color="#836DF3"/>
</linearGradient>
<linearGradient id="paint30_linear_295_4354" x1="501.626" y1="166.992" x2="380.376" y2="362.968" gradientUnits="userSpaceOnUse">
<stop offset="0.00505051" stop-color="#4C4FFA"/>
<stop offset="0.298" stop-color="#4C4FFA"/>
<stop offset="0.325" stop-color="#4C52FA"/>
<stop offset="0.6616" stop-color="#5277F7"/>
<stop offset="0.7579" stop-color="#5B75F6"/>
<stop offset="0.9138" stop-color="#7370F4"/>
<stop offset="1" stop-color="#836DF3"/>
</linearGradient>
<linearGradient id="paint31_linear_295_4354" x1="674.647" y1="231.947" x2="529.699" y2="466.224" gradientUnits="userSpaceOnUse">
<stop offset="0.00505051" stop-color="#4C4FFA"/>
<stop offset="0.298" stop-color="#4C4FFA"/>
<stop offset="0.325" stop-color="#4C52FA"/>
<stop offset="0.6616" stop-color="#5277F7"/>
<stop offset="0.7579" stop-color="#5B75F6"/>
<stop offset="0.9138" stop-color="#7370F4"/>
<stop offset="1" stop-color="#836DF3"/>
</linearGradient>
<linearGradient id="paint32_linear_295_4354" x1="683.367" y1="237.349" x2="538.421" y2="471.623" gradientUnits="userSpaceOnUse">
<stop offset="0.00505051" stop-color="#4C4FFA"/>
<stop offset="0.298" stop-color="#4C4FFA"/>
<stop offset="0.325" stop-color="#4C52FA"/>
<stop offset="0.6616" stop-color="#5277F7"/>
<stop offset="0.7579" stop-color="#5B75F6"/>
<stop offset="0.9138" stop-color="#7370F4"/>
<stop offset="1" stop-color="#836DF3"/>
</linearGradient>
<linearGradient id="paint33_linear_295_4354" x1="691.05" y1="242.098" x2="546.102" y2="476.375" gradientUnits="userSpaceOnUse">
<stop offset="0.00505051" stop-color="#4C4FFA"/>
<stop offset="0.298" stop-color="#4C4FFA"/>
<stop offset="0.325" stop-color="#4C52FA"/>
<stop offset="0.6616" stop-color="#5277F7"/>
<stop offset="0.7579" stop-color="#5B75F6"/>
<stop offset="0.9138" stop-color="#7370F4"/>
<stop offset="1" stop-color="#836DF3"/>
</linearGradient>
<linearGradient id="paint34_linear_295_4354" x1="634.858" y1="248.786" x2="513.608" y2="444.762" gradientUnits="userSpaceOnUse">
<stop offset="0.00505051" stop-color="#4C4FFA"/>
<stop offset="0.298" stop-color="#4C4FFA"/>
<stop offset="0.325" stop-color="#4C52FA"/>
<stop offset="0.6616" stop-color="#5277F7"/>
<stop offset="0.7579" stop-color="#5B75F6"/>
<stop offset="0.9138" stop-color="#7370F4"/>
<stop offset="1" stop-color="#836DF3"/>
</linearGradient>
<linearGradient id="paint35_linear_295_4354" x1="808.682" y1="314.879" x2="663.735" y2="549.156" gradientUnits="userSpaceOnUse">
<stop offset="0.00505051" stop-color="#4C4FFA"/>
<stop offset="0.298" stop-color="#4C4FFA"/>
<stop offset="0.325" stop-color="#4C52FA"/>
<stop offset="0.6616" stop-color="#5277F7"/>
<stop offset="0.7579" stop-color="#5B75F6"/>
<stop offset="0.9138" stop-color="#7370F4"/>
<stop offset="1" stop-color="#836DF3"/>
</linearGradient>
<linearGradient id="paint36_linear_295_4354" x1="817.406" y1="320.275" x2="672.457" y2="554.553" gradientUnits="userSpaceOnUse">
<stop offset="0.00505051" stop-color="#4C4FFA"/>
<stop offset="0.298" stop-color="#4C4FFA"/>
<stop offset="0.325" stop-color="#4C52FA"/>
<stop offset="0.6616" stop-color="#5277F7"/>
<stop offset="0.7579" stop-color="#5B75F6"/>
<stop offset="0.9138" stop-color="#7370F4"/>
<stop offset="1" stop-color="#836DF3"/>
</linearGradient>
<linearGradient id="paint37_linear_295_4354" x1="825.086" y1="325.029" x2="680.138" y2="559.305" gradientUnits="userSpaceOnUse">
<stop offset="0.00505051" stop-color="#4C4FFA"/>
<stop offset="0.298" stop-color="#4C4FFA"/>
<stop offset="0.325" stop-color="#4C52FA"/>
<stop offset="0.6616" stop-color="#5277F7"/>
<stop offset="0.7579" stop-color="#5B75F6"/>
<stop offset="0.9138" stop-color="#7370F4"/>
<stop offset="1" stop-color="#836DF3"/>
</linearGradient>
<linearGradient id="paint38_linear_295_4354" x1="564.803" y1="163.981" x2="419.852" y2="398.264" gradientUnits="userSpaceOnUse">
<stop offset="0.00505051" stop-color="#4C4FFA"/>
<stop offset="0.298" stop-color="#4C4FFA"/>
<stop offset="0.325" stop-color="#4C52FA"/>
<stop offset="0.6616" stop-color="#5277F7"/>
<stop offset="0.7579" stop-color="#5B75F6"/>
<stop offset="0.9138" stop-color="#7370F4"/>
<stop offset="1" stop-color="#836DF3"/>
</linearGradient>
<linearGradient id="paint39_linear_295_4354" x1="697.748" y1="246.241" x2="552.8" y2="480.518" gradientUnits="userSpaceOnUse">
<stop offset="0.00505051" stop-color="#4C4FFA"/>
<stop offset="0.298" stop-color="#4C4FFA"/>
<stop offset="0.325" stop-color="#4C52FA"/>
<stop offset="0.6616" stop-color="#5277F7"/>
<stop offset="0.7579" stop-color="#5B75F6"/>
<stop offset="0.9138" stop-color="#7370F4"/>
<stop offset="1" stop-color="#836DF3"/>
</linearGradient>
<linearGradient id="paint40_linear_295_4354" x1="831.783" y1="329.174" x2="686.836" y2="563.45" gradientUnits="userSpaceOnUse">
<stop offset="0.00505051" stop-color="#4C4FFA"/>
<stop offset="0.298" stop-color="#4C4FFA"/>
<stop offset="0.325" stop-color="#4C52FA"/>
<stop offset="0.6616" stop-color="#5277F7"/>
<stop offset="0.7579" stop-color="#5B75F6"/>
<stop offset="0.9138" stop-color="#7370F4"/>
<stop offset="1" stop-color="#836DF3"/>
</linearGradient>
<linearGradient id="paint41_linear_295_4354" x1="769.152" y1="331.305" x2="647.901" y2="527.28" gradientUnits="userSpaceOnUse">
<stop offset="0.00505051" stop-color="#4C4FFA"/>
<stop offset="0.298" stop-color="#4C4FFA"/>
<stop offset="0.325" stop-color="#4C52FA"/>
<stop offset="0.6616" stop-color="#5277F7"/>
<stop offset="0.7579" stop-color="#5B75F6"/>
<stop offset="0.9138" stop-color="#7370F4"/>
<stop offset="1" stop-color="#836DF3"/>
</linearGradient>
<linearGradient id="paint42_linear_295_4354" x1="590.92" y1="208.741" x2="459.085" y2="421.824" gradientUnits="userSpaceOnUse">
<stop offset="0.00505051" stop-color="#4C4FFA"/>
<stop offset="0.298" stop-color="#4C4FFA"/>
<stop offset="0.325" stop-color="#4C52FA"/>
<stop offset="0.6616" stop-color="#5277F7"/>
<stop offset="0.7579" stop-color="#5B75F6"/>
<stop offset="0.9138" stop-color="#7370F4"/>
<stop offset="1" stop-color="#836DF3"/>
</linearGradient>
<linearGradient id="paint43_linear_295_4354" x1="598.717" y1="187.221" x2="487.431" y2="352.635" gradientUnits="userSpaceOnUse">
<stop offset="0.00505051" stop-color="#4C4FFA"/>
<stop offset="0.5354" stop-color="#4C4FFA"/>
<stop offset="0.5698" stop-color="#4C52FA"/>
<stop offset="1" stop-color="#5277F7"/>
</linearGradient>
<linearGradient id="paint44_linear_295_4354" x1="961.94" y1="574.187" x2="407.36" y2="154.241" gradientUnits="userSpaceOnUse">
<stop stop-color="#FFE585"/>
<stop offset="0.0513669" stop-color="#DBC79D"/>
<stop offset="0.1648" stop-color="#807BD8"/>
<stop offset="0.2273" stop-color="#4C4FFA"/>
<stop offset="0.4596" stop-color="#4C4FFA"/>
<stop offset="0.7222" stop-color="#4C4FFA"/>
<stop offset="0.814" stop-color="#4D58F9"/>
<stop offset="0.9625" stop-color="#5170F8"/>
<stop offset="1" stop-color="#5277F7"/>
</linearGradient>
<linearGradient id="paint45_linear_295_4354" x1="604.834" y1="349.257" x2="513.891" y2="268.662" gradientUnits="userSpaceOnUse">
<stop offset="0.0353535" stop-color="#BB6DF3"/>
<stop offset="0.3625" stop-color="#CA6DEA"/>
<stop offset="0.9939" stop-color="#F36DD4"/>
<stop offset="1" stop-color="#F36DD4"/>
</linearGradient>
<linearGradient id="paint46_linear_295_4354" x1="-20.15" y1="636.184" x2="336.144" y2="636.184" gradientUnits="userSpaceOnUse">
<stop stop-color="#BEC4EC"/>
<stop offset="0.1919" stop-color="#C5CAEF"/>
<stop offset="0.2828" stop-color="#C9CEF1"/>
<stop offset="0.4091" stop-color="#C6CBF0"/>
<stop offset="0.4343" stop-color="#C6CCF0"/>
<stop offset="0.5289" stop-color="#D0D4F0"/>
<stop offset="0.5354" stop-color="#D1D5F0"/>
<stop offset="0.651" stop-color="#BDC3EA"/>
<stop offset="0.7222" stop-color="#AFB6E5"/>
<stop offset="0.9091" stop-color="#AFB6E5"/>
<stop offset="0.9797" stop-color="#BAC0EA"/>
<stop offset="1" stop-color="#BEC4EC"/>
</linearGradient>
<linearGradient id="paint47_linear_295_4354" x1="307.049" y1="634.777" x2="-39.0258" y2="634.777" gradientUnits="userSpaceOnUse">
<stop stop-color="#CDD2F3"/>
<stop offset="0.4343" stop-color="#E5E9FF"/>
<stop offset="0.4834" stop-color="#EFF2FF"/>
<stop offset="0.5354" stop-color="white"/>
<stop offset="0.5905" stop-color="#EBEDF9"/>
<stop offset="0.7024" stop-color="#B9BFE8"/>
<stop offset="0.7222" stop-color="#AFB6E5"/>
<stop offset="0.9091" stop-color="#AFB6E5"/>
<stop offset="0.9503" stop-color="#BAC0EA"/>
<stop offset="1" stop-color="#CDD2F3"/>
</linearGradient>
<linearGradient id="paint48_linear_295_4354" x1="214.967" y1="682.55" x2="-17.8759" y2="322.249" gradientUnits="userSpaceOnUse">
<stop offset="0.020202" stop-color="#E5E9FF"/>
<stop offset="0.6613" stop-color="#F5F6FF"/>
<stop offset="1" stop-color="white"/>
</linearGradient>
<linearGradient id="paint49_linear_295_4354" x1="28.5026" y1="627.586" x2="330.731" y2="627.586" gradientUnits="userSpaceOnUse">
<stop offset="0.00505051" stop-color="#273B98"/>
<stop offset="0.2274" stop-color="#2F2BA2"/>
<stop offset="0.399" stop-color="#361CAC"/>
<stop offset="0.768" stop-color="#440B89"/>
<stop offset="1" stop-color="#4E0070"/>
</linearGradient>
<linearGradient id="paint50_linear_295_4354" x1="175.789" y1="752.099" x2="183.415" y2="503.579" gradientUnits="userSpaceOnUse">
<stop offset="0.00505051" stop-color="#273B98"/>
<stop offset="0.2274" stop-color="#2F2BA2"/>
<stop offset="0.399" stop-color="#361CAC"/>
<stop offset="0.768" stop-color="#440B89"/>
<stop offset="1" stop-color="#4E0070"/>
</linearGradient>
<linearGradient id="paint51_linear_295_4354" x1="424.563" y1="542.416" x2="202.849" y2="806.185" gradientUnits="userSpaceOnUse">
<stop offset="0.00505051" stop-color="#4C4FFA"/>
<stop offset="0.298" stop-color="#4C4FFA"/>
<stop offset="0.325" stop-color="#4C52FA"/>
<stop offset="0.6616" stop-color="#5277F7"/>
<stop offset="0.7579" stop-color="#5B75F6"/>
<stop offset="0.9138" stop-color="#7370F4"/>
<stop offset="1" stop-color="#836DF3"/>
</linearGradient>
<linearGradient id="paint52_linear_295_4354" x1="482.372" y1="527.369" x2="233.101" y2="823.924" gradientUnits="userSpaceOnUse">
<stop offset="0.00505051" stop-color="#4C4FFA"/>
<stop offset="0.298" stop-color="#4C4FFA"/>
<stop offset="0.325" stop-color="#4C52FA"/>
<stop offset="0.6616" stop-color="#5277F7"/>
<stop offset="0.7579" stop-color="#5B75F6"/>
<stop offset="0.9138" stop-color="#7370F4"/>
<stop offset="1" stop-color="#836DF3"/>
</linearGradient>
<linearGradient id="paint53_linear_295_4354" x1="530.52" y1="514.963" x2="261.5" y2="835.012" gradientUnits="userSpaceOnUse">
<stop offset="0.00505051" stop-color="#4C4FFA"/>
<stop offset="0.298" stop-color="#4C4FFA"/>
<stop offset="0.325" stop-color="#4C52FA"/>
<stop offset="0.6616" stop-color="#5277F7"/>
<stop offset="0.7579" stop-color="#5B75F6"/>
<stop offset="0.9138" stop-color="#7370F4"/>
<stop offset="1" stop-color="#836DF3"/>
</linearGradient>
<linearGradient id="paint54_linear_295_4354" x1="269.161" y1="582.545" x2="137.726" y2="738.91" gradientUnits="userSpaceOnUse">
<stop offset="0.00505051" stop-color="#4C4FFA"/>
<stop offset="0.298" stop-color="#4C4FFA"/>
<stop offset="0.325" stop-color="#4C52FA"/>
<stop offset="0.6616" stop-color="#5277F7"/>
<stop offset="0.7579" stop-color="#5B75F6"/>
<stop offset="0.9138" stop-color="#7370F4"/>
<stop offset="1" stop-color="#836DF3"/>
</linearGradient>
<linearGradient id="paint55_linear_295_4354" x1="478.526" y1="577.558" x2="256.811" y2="841.33" gradientUnits="userSpaceOnUse">
<stop offset="0.00505051" stop-color="#4C4FFA"/>
<stop offset="0.298" stop-color="#4C4FFA"/>
<stop offset="0.325" stop-color="#4C52FA"/>
<stop offset="0.6616" stop-color="#5277F7"/>
<stop offset="0.7579" stop-color="#5B75F6"/>
<stop offset="0.9138" stop-color="#7370F4"/>
<stop offset="1" stop-color="#836DF3"/>
</linearGradient>
<linearGradient id="paint56_linear_295_4354" x1="535.756" y1="562.691" x2="286.485" y2="859.245" gradientUnits="userSpaceOnUse">
<stop offset="0.00505051" stop-color="#4C4FFA"/>
<stop offset="0.298" stop-color="#4C4FFA"/>
<stop offset="0.325" stop-color="#4C52FA"/>
<stop offset="0.6616" stop-color="#5277F7"/>
<stop offset="0.7579" stop-color="#5B75F6"/>
<stop offset="0.9138" stop-color="#7370F4"/>
<stop offset="1" stop-color="#836DF3"/>
</linearGradient>
<linearGradient id="paint57_linear_295_4354" x1="583.479" y1="550.414" x2="314.462" y2="870.459" gradientUnits="userSpaceOnUse">
<stop offset="0.00505051" stop-color="#4C4FFA"/>
<stop offset="0.298" stop-color="#4C4FFA"/>
<stop offset="0.325" stop-color="#4C52FA"/>
<stop offset="0.6616" stop-color="#5277F7"/>
<stop offset="0.7579" stop-color="#5B75F6"/>
<stop offset="0.9138" stop-color="#7370F4"/>
<stop offset="1" stop-color="#836DF3"/>
</linearGradient>
<linearGradient id="paint58_linear_295_4354" x1="323.057" y1="617.713" x2="191.623" y2="774.078" gradientUnits="userSpaceOnUse">
<stop offset="0.00505051" stop-color="#4C4FFA"/>
<stop offset="0.298" stop-color="#4C4FFA"/>
<stop offset="0.325" stop-color="#4C52FA"/>
<stop offset="0.6616" stop-color="#5277F7"/>
<stop offset="0.7579" stop-color="#5B75F6"/>
<stop offset="0.9138" stop-color="#7370F4"/>
<stop offset="1" stop-color="#836DF3"/>
</linearGradient>
<linearGradient id="paint59_linear_295_4354" x1="611.105" y1="492.34" x2="304.75" y2="856.808" gradientUnits="userSpaceOnUse">
<stop offset="0.00505051" stop-color="#4C4FFA"/>
<stop offset="0.298" stop-color="#4C4FFA"/>
<stop offset="0.325" stop-color="#4C52FA"/>
<stop offset="0.6616" stop-color="#5277F7"/>
<stop offset="0.7579" stop-color="#5B75F6"/>
<stop offset="0.9138" stop-color="#7370F4"/>
<stop offset="1" stop-color="#836DF3"/>
</linearGradient>
<linearGradient id="paint60_linear_295_4354" x1="663.281" y1="528.033" x2="356.924" y2="892.502" gradientUnits="userSpaceOnUse">
<stop offset="0.00505051" stop-color="#4C4FFA"/>
<stop offset="0.298" stop-color="#4C4FFA"/>
<stop offset="0.325" stop-color="#4C52FA"/>
<stop offset="0.6616" stop-color="#5277F7"/>
<stop offset="0.7579" stop-color="#5B75F6"/>
<stop offset="0.9138" stop-color="#7370F4"/>
<stop offset="1" stop-color="#836DF3"/>
</linearGradient>
<linearGradient id="paint61_linear_295_4354" x1="267.507" y1="592.188" x2="148.828" y2="733.379" gradientUnits="userSpaceOnUse">
<stop offset="0.00505051" stop-color="#4C4FFA"/>
<stop offset="0.298" stop-color="#4C4FFA"/>
<stop offset="0.325" stop-color="#4C52FA"/>
<stop offset="0.6616" stop-color="#5277F7"/>
<stop offset="0.7579" stop-color="#5B75F6"/>
<stop offset="0.9138" stop-color="#7370F4"/>
<stop offset="1" stop-color="#836DF3"/>
</linearGradient>
<linearGradient id="paint62_linear_295_4354" x1="287.983" y1="585.765" x2="168.742" y2="704.753" gradientUnits="userSpaceOnUse">
<stop offset="0.00505051" stop-color="#4C4FFA"/>
<stop offset="0.5354" stop-color="#4C4FFA"/>
<stop offset="0.5698" stop-color="#4C52FA"/>
<stop offset="1" stop-color="#5277F7"/>
</linearGradient>
<linearGradient id="paint63_linear_295_4354" x1="290.01" y1="705.492" x2="249.394" y2="556.971" gradientUnits="userSpaceOnUse">
<stop stop-color="#FFE585"/>
<stop offset="0.0513669" stop-color="#DBC79D"/>
<stop offset="0.1648" stop-color="#807BD8"/>
<stop offset="0.2273" stop-color="#4C4FFA"/>
<stop offset="0.4596" stop-color="#4C4FFA"/>
<stop offset="0.7222" stop-color="#4C4FFA"/>
<stop offset="0.814" stop-color="#4D58F9"/>
<stop offset="0.9625" stop-color="#5170F8"/>
<stop offset="1" stop-color="#5277F7"/>
</linearGradient>
<linearGradient id="paint64_linear_295_4354" x1="201.365" y1="642.749" x2="189.892" y2="596.451" gradientUnits="userSpaceOnUse">
<stop offset="0.0353535" stop-color="#BB6DF3"/>
<stop offset="0.3625" stop-color="#CA6DEA"/>
<stop offset="0.9939" stop-color="#F36DD4"/>
<stop offset="1" stop-color="#F36DD4"/>
</linearGradient>
</defs>
</svg>
