<svg width="40" height="33" viewBox="0 0 40 33" fill="none" xmlns="http://www.w3.org/2000/svg">
<path d="M38.4956 5.29573C38.007 3.34408 36.5748 1.80561 34.7587 1.28009C31.4407 0.304688 19.895 0.304688 19.895 0.304688C19.895 0.304688 8.34991 0.304688 5.03196 1.24311C3.25071 1.76808 1.78363 3.34436 1.29503 5.29573C0.421875 8.86036 0.421875 16.2529 0.421875 16.2529C0.421875 16.2529 0.421875 23.6828 1.29503 27.2101C1.78415 29.1615 3.21577 30.7 5.03222 31.2255C8.38484 32.2012 19.8956 32.2012 19.8956 32.2012C19.8956 32.2012 31.4407 32.2012 34.7587 31.2628C36.5751 30.7375 38.007 29.199 38.4961 27.2477C39.369 23.6828 39.369 16.2905 39.369 16.2905C39.369 16.2905 39.4039 8.86036 38.4956 5.29573ZM15.6695 23.0825V9.42341L26.7059 16.2529L15.6695 23.0825Z" fill="black"/>
</svg>
